<svg width="138" height="32" viewBox="0 0 138 32" fill="none" xmlns="http://www.w3.org/2000/svg">
<path d="M49.7805 12.7621H46.9808C46.9297 12.3999 46.8253 12.0781 46.6676 11.7969C46.5099 11.5114 46.3075 11.2685 46.0604 11.0682C45.8132 10.8679 45.5277 10.7145 45.2038 10.608C44.8842 10.5014 44.5369 10.4482 44.1619 10.4482C43.4844 10.4482 42.8942 10.6165 42.3913 10.9531C41.8885 11.2855 41.4986 11.7713 41.2216 12.4105C40.9446 13.0455 40.8061 13.8168 40.8061 14.7244C40.8061 15.6577 40.9446 16.4418 41.2216 17.0767C41.5028 17.7116 41.8949 18.1911 42.3977 18.5149C42.9006 18.8388 43.4822 19.0007 44.1428 19.0007C44.5135 19.0007 44.8565 18.9517 45.1719 18.8537C45.4915 18.7557 45.7749 18.6129 46.022 18.4254C46.2692 18.2337 46.4737 18.0014 46.6357 17.7287C46.8018 17.456 46.9169 17.1449 46.9808 16.7955L49.7805 16.8082C49.7081 17.4091 49.527 17.9886 49.2372 18.5469C48.9517 19.1009 48.5661 19.5973 48.0803 20.0362C47.5987 20.4709 47.0234 20.8161 46.3544 21.0717C45.6896 21.3232 44.9375 21.4489 44.098 21.4489C42.9304 21.4489 41.8864 21.1847 40.9659 20.6562C40.0497 20.1278 39.3253 19.3629 38.7926 18.3615C38.2642 17.3601 38 16.1477 38 14.7244C38 13.2969 38.2685 12.0824 38.8054 11.081C39.3423 10.0795 40.071 9.31676 40.9915 8.79261C41.9119 8.2642 42.9474 8 44.098 8C44.8565 8 45.5597 8.10653 46.2074 8.3196C46.8594 8.53267 47.4368 8.84375 47.9396 9.25284C48.4425 9.65767 48.8516 10.1541 49.1669 10.7422C49.4865 11.3303 49.6911 12.0036 49.7805 12.7621Z" fill="white"/>
<path d="M54.5138 21.4553C53.8874 21.4553 53.3292 21.3466 52.8391 21.1293C52.3491 20.9077 51.9613 20.5817 51.6758 20.1513C51.3945 19.7166 51.2539 19.1754 51.2539 18.5277C51.2539 17.9822 51.354 17.5241 51.5543 17.1534C51.7546 16.7827 52.0273 16.4844 52.3725 16.2585C52.7177 16.0327 53.1097 15.8622 53.5487 15.7472C53.9918 15.6321 54.4563 15.5511 54.9421 15.5043C55.5131 15.4446 55.9734 15.3892 56.3228 15.3381C56.6722 15.2827 56.9258 15.2017 57.0835 15.0952C57.2411 14.9886 57.32 14.831 57.32 14.6222V14.5838C57.32 14.179 57.1921 13.8658 56.9364 13.6442C56.685 13.4226 56.3271 13.3118 55.8626 13.3118C55.3725 13.3118 54.9826 13.4205 54.6928 13.6378C54.4031 13.8509 54.2113 14.1193 54.1175 14.4432L51.5991 14.2386C51.7269 13.642 51.9783 13.1264 52.3533 12.6918C52.7283 12.2528 53.212 11.9162 53.8043 11.6818C54.4009 11.4432 55.0913 11.3239 55.8754 11.3239C56.4208 11.3239 56.9428 11.3878 57.4414 11.5156C57.9442 11.6435 58.3896 11.8416 58.7773 12.1101C59.1694 12.3786 59.4783 12.7237 59.7042 13.1456C59.93 13.5632 60.043 14.0639 60.043 14.6477V21.2699H57.4606V19.9084H57.3839C57.2262 20.2152 57.0153 20.4858 56.7511 20.7202C56.4869 20.9503 56.1694 21.1314 55.7987 21.2635C55.4279 21.3913 54.9996 21.4553 54.5138 21.4553ZM55.2937 19.576C55.6942 19.576 56.0479 19.4972 56.3548 19.3395C56.6616 19.1776 56.9023 18.9602 57.0771 18.6875C57.2518 18.4148 57.3391 18.1058 57.3391 17.7607V16.7188C57.2539 16.7741 57.1367 16.8253 56.9876 16.8722C56.8427 16.9148 56.6786 16.9553 56.4954 16.9936C56.3121 17.0277 56.1289 17.0597 55.9457 17.0895C55.7624 17.1151 55.5962 17.1385 55.4471 17.1598C55.1275 17.2067 54.8484 17.2812 54.6097 17.3835C54.3711 17.4858 54.1857 17.6243 54.0536 17.799C53.9215 17.9695 53.8555 18.1825 53.8555 18.4382C53.8555 18.8089 53.9897 19.0923 54.2582 19.2884C54.5309 19.4801 54.8761 19.576 55.2937 19.576Z" fill="white"/>
<path d="M70.3246 14.2514L67.8317 14.4048C67.7891 14.1918 67.6974 14 67.5568 13.8295C67.4162 13.6548 67.2308 13.5163 67.0007 13.4141C66.7749 13.3075 66.5043 13.2543 66.1889 13.2543C65.767 13.2543 65.4112 13.3438 65.1214 13.5227C64.8317 13.6974 64.6868 13.9318 64.6868 14.2259C64.6868 14.4602 64.7805 14.6584 64.968 14.8203C65.1555 14.9822 65.4773 15.1122 65.9332 15.2102L67.7102 15.5682C68.6648 15.7642 69.3764 16.0795 69.8452 16.5142C70.3139 16.9489 70.5483 17.5199 70.5483 18.2273C70.5483 18.8707 70.3587 19.4354 69.9794 19.9212C69.6044 20.407 69.0888 20.7862 68.4325 21.0589C67.7805 21.3274 67.0284 21.4616 66.1761 21.4616C64.8764 21.4616 63.8409 21.1911 63.0696 20.6499C62.3026 20.1044 61.853 19.3629 61.7209 18.4254L64.3991 18.2848C64.4801 18.6811 64.6761 18.9837 64.9872 19.1925C65.2983 19.397 65.6967 19.4993 66.1825 19.4993C66.6598 19.4993 67.0433 19.4077 67.3331 19.2244C67.6271 19.0369 67.7763 18.7962 67.7805 18.5021C67.7763 18.255 67.6719 18.0526 67.4673 17.8949C67.2628 17.733 66.9474 17.6094 66.5213 17.5241L64.821 17.1854C63.8622 16.9936 63.1484 16.6612 62.6797 16.1882C62.2152 15.7152 61.983 15.1122 61.983 14.3793C61.983 13.7486 62.1534 13.2053 62.4943 12.7493C62.8395 12.2933 63.3232 11.9418 63.9453 11.6946C64.5717 11.4474 65.3047 11.3239 66.1442 11.3239C67.3842 11.3239 68.3601 11.5859 69.0717 12.1101C69.7876 12.6342 70.2053 13.348 70.3246 14.2514Z" fill="white"/>
<path d="M76.7374 21.4616C75.7274 21.4616 74.8581 21.2571 74.1294 20.848C73.405 20.4347 72.8468 19.8509 72.4547 19.0966C72.0627 18.3381 71.8667 17.4411 71.8667 16.4055C71.8667 15.3956 72.0627 14.5092 72.4547 13.7464C72.8468 12.9837 73.3986 12.3892 74.1103 11.9631C74.8262 11.5369 75.6657 11.3239 76.6287 11.3239C77.2765 11.3239 77.8794 11.4283 78.4377 11.6371C79.0002 11.8416 79.4902 12.1506 79.9078 12.5639C80.3297 12.9773 80.6578 13.4972 80.8922 14.1236C81.1266 14.7457 81.2438 15.4744 81.2438 16.3097V17.0575H72.9533V15.37H78.6806C78.6806 14.978 78.5953 14.6307 78.4249 14.3281C78.2544 14.0256 78.0179 13.7891 77.7154 13.6186C77.4171 13.4439 77.0698 13.3565 76.6735 13.3565C76.2601 13.3565 75.8936 13.4524 75.574 13.6442C75.2587 13.8317 75.0115 14.0852 74.8326 14.4048C74.6536 14.7202 74.562 15.0717 74.5577 15.4595V17.0639C74.5577 17.5497 74.6472 17.9695 74.8262 18.3232C75.0094 18.6768 75.2672 18.9496 75.5996 19.1413C75.932 19.3331 76.3262 19.429 76.7821 19.429C77.0847 19.429 77.3617 19.3864 77.6131 19.3011C77.8645 19.2159 78.0797 19.0881 78.2587 18.9176C78.4377 18.7472 78.574 18.5384 78.6678 18.2912L81.1863 18.4574C81.0584 19.0625 80.7963 19.5909 80.4 20.0426C80.008 20.4901 79.5009 20.8395 78.8787 21.0909C78.2608 21.3381 77.5471 21.4616 76.7374 21.4616Z" fill="white"/>
<path d="M94.3395 11.9439C94.2884 11.4283 94.0689 11.0277 93.6811 10.7422C93.2933 10.4567 92.767 10.3139 92.1023 10.3139C91.6506 10.3139 91.2692 10.3778 90.9581 10.5057C90.647 10.6293 90.4084 10.8018 90.2422 11.0234C90.0803 11.245 89.9993 11.4964 89.9993 11.7777C89.9908 12.0121 90.0398 12.2166 90.1463 12.3913C90.2571 12.5661 90.4084 12.7173 90.6001 12.8452C90.7919 12.9688 91.0135 13.0774 91.2649 13.1712C91.5163 13.2607 91.7848 13.3374 92.0703 13.4013L93.2464 13.6825C93.8175 13.8104 94.3416 13.9808 94.8189 14.1939C95.2962 14.407 95.7095 14.669 96.0589 14.9801C96.4084 15.2912 96.679 15.6577 96.8707 16.0795C97.0668 16.5014 97.1669 16.9851 97.1712 17.5305C97.1669 18.3317 96.9624 19.0263 96.5575 19.6143C96.157 20.1982 95.5774 20.652 94.8189 20.9759C94.0646 21.2955 93.1548 21.4553 92.0895 21.4553C91.0327 21.4553 90.1122 21.2933 89.3281 20.9695C88.5483 20.6456 87.9389 20.1662 87.5 19.5312C87.0653 18.892 86.8374 18.1016 86.8161 17.1598H89.4943C89.5242 17.5987 89.6499 17.9652 89.8714 18.2592C90.0973 18.549 90.3977 18.7685 90.7727 18.9176C91.152 19.0625 91.5803 19.1349 92.0575 19.1349C92.5263 19.1349 92.9332 19.0668 93.2784 18.9304C93.6278 18.794 93.8984 18.6044 94.0902 18.3615C94.282 18.1186 94.3778 17.8395 94.3778 17.5241C94.3778 17.2301 94.2905 16.983 94.1158 16.7827C93.9453 16.5824 93.6939 16.4119 93.3615 16.2713C93.0334 16.1307 92.6307 16.0028 92.1534 15.8878L90.728 15.5298C89.6243 15.2614 88.7528 14.8416 88.1136 14.2706C87.4744 13.6996 87.157 12.9304 87.1612 11.9631C87.157 11.1705 87.3679 10.478 87.794 9.88565C88.2244 9.29332 88.8146 8.83097 89.5646 8.49858C90.3146 8.16619 91.1669 8 92.1214 8C93.093 8 93.9411 8.16619 94.6655 8.49858C95.3942 8.83097 95.9609 9.29332 96.3658 9.88565C96.7706 10.478 96.9794 11.1641 96.9922 11.9439H94.3395Z" fill="white"/>
<path d="M104.204 11.4517V13.4972H98.2914V11.4517H104.204ZM99.6337 9.09943H102.357V18.2528C102.357 18.5043 102.395 18.7003 102.472 18.8409C102.548 18.9773 102.655 19.0732 102.791 19.1286C102.932 19.1839 103.094 19.2116 103.277 19.2116C103.405 19.2116 103.533 19.201 103.661 19.1797C103.789 19.1541 103.887 19.1349 103.955 19.1222L104.383 21.1484C104.247 21.1911 104.055 21.2401 103.808 21.2955C103.561 21.3551 103.26 21.3913 102.906 21.4041C102.25 21.4297 101.675 21.3423 101.181 21.142C100.691 20.9418 100.309 20.6307 100.036 20.2088C99.7637 19.7869 99.6294 19.2543 99.6337 18.6108V9.09943Z" fill="white"/>
<path d="M112.274 17.0895V11.4517H114.997V21.2699H112.383V19.4865H112.28C112.059 20.0618 111.69 20.5241 111.175 20.8736C110.663 21.223 110.039 21.3977 109.302 21.3977C108.645 21.3977 108.068 21.2486 107.569 20.9503C107.071 20.652 106.681 20.228 106.4 19.6783C106.123 19.1286 105.982 18.4702 105.978 17.7031V11.4517H108.701V17.2173C108.705 17.7969 108.861 18.255 109.167 18.5916C109.474 18.9283 109.885 19.0966 110.401 19.0966C110.729 19.0966 111.036 19.022 111.322 18.8729C111.607 18.7195 111.837 18.4936 112.012 18.1953C112.191 17.897 112.278 17.5284 112.274 17.0895Z" fill="white"/>
<path d="M120.793 21.4297C120.047 21.4297 119.372 21.2379 118.767 20.8544C118.166 20.4666 117.689 19.8977 117.335 19.1477C116.985 18.3935 116.811 17.4688 116.811 16.3736C116.811 15.2486 116.992 14.3132 117.354 13.5675C117.716 12.8175 118.198 12.2571 118.799 11.8864C119.404 11.5114 120.066 11.3239 120.787 11.3239C121.336 11.3239 121.794 11.4176 122.161 11.6051C122.532 11.7884 122.83 12.0185 123.056 12.2955C123.286 12.5682 123.461 12.8366 123.58 13.1009H123.663V8.17898H126.38V21.2699H123.695V19.6974H123.58C123.452 19.9702 123.271 20.2408 123.037 20.5092C122.806 20.7734 122.506 20.9929 122.135 21.1676C121.769 21.3423 121.321 21.4297 120.793 21.4297ZM121.656 19.2628C122.095 19.2628 122.466 19.1435 122.768 18.9048C123.075 18.6619 123.309 18.3232 123.471 17.8885C123.637 17.4538 123.721 16.9446 123.721 16.3608C123.721 15.777 123.64 15.2699 123.478 14.8395C123.316 14.4091 123.081 14.0767 122.775 13.8423C122.468 13.608 122.095 13.4908 121.656 13.4908C121.208 13.4908 120.831 13.6122 120.525 13.8551C120.218 14.098 119.985 14.4347 119.828 14.8651C119.67 15.2955 119.591 15.794 119.591 16.3608C119.591 16.9318 119.67 17.4368 119.828 17.8757C119.99 18.3104 120.222 18.6513 120.525 18.8984C120.831 19.1413 121.208 19.2628 121.656 19.2628Z" fill="white"/>
<path d="M130.3 24.9517C129.954 24.9517 129.631 24.924 129.328 24.8686C129.03 24.8175 128.782 24.7514 128.586 24.6705L129.2 22.6378C129.52 22.7358 129.807 22.7891 130.063 22.7976C130.323 22.8061 130.547 22.7464 130.734 22.6186C130.926 22.4908 131.081 22.2734 131.201 21.9666L131.361 21.5511L127.839 11.4517H130.702L132.735 18.6619H132.837L134.889 11.4517H137.772L133.956 22.331C133.773 22.8594 133.523 23.3196 133.208 23.7116C132.897 24.108 132.503 24.4126 132.025 24.6257C131.548 24.843 130.973 24.9517 130.3 24.9517Z" fill="white"/>
<path d="M21 2H5C4.46957 2 3.96086 2.21071 3.58579 2.58579C3.21071 2.96086 3 3.46957 3 4V30L13 24.9462L23 30V4C23 3.46957 22.7893 2.96086 22.4142 2.58579C22.0391 2.21071 21.5304 2 21 2Z" fill="white"/>
</svg>
