<svg width="32" height="32" viewBox="0 0 32 32" fill="none" xmlns="http://www.w3.org/2000/svg">
<g clip-path="url(#clip0_1458_595)">
<path fill-rule="evenodd" clip-rule="evenodd" d="M26.054 0C27.862 0 29.334 1.472 29.334 3.296V32L25.894 28.96L23.958 27.168L21.91 25.264L22.758 28.224H4.61398C2.80598 28.224 1.33398 26.752 1.33398 24.928V3.296C1.33398 1.472 2.80598 0 4.61398 0L26.054 0ZM19.878 20.896C23.414 20.784 24.774 18.464 24.774 18.464C24.774 13.312 22.47 9.136 22.47 9.136C20.166 7.408 17.974 7.456 17.974 7.456L17.75 7.712C20.47 8.544 21.734 9.744 21.734 9.744C20.07 8.832 18.438 8.384 16.918 8.208C15.766 8.08 14.662 8.112 13.686 8.24L13.414 8.272C12.854 8.32 11.494 8.528 9.78198 9.28C9.18998 9.552 8.83798 9.744 8.83798 9.744C8.83798 9.744 10.166 8.48 13.046 7.648L12.886 7.456C12.886 7.456 10.694 7.408 8.38998 9.136C8.38998 9.136 6.08598 13.312 6.08598 18.464C6.08598 18.464 7.42998 20.784 10.966 20.896C10.966 20.896 11.558 20.176 12.038 19.568C10.006 18.96 9.23798 17.68 9.23798 17.68L9.68598 17.952L9.74998 18L9.81265 18.036L9.83132 18.044L9.89398 18.08C10.294 18.304 10.694 18.48 11.062 18.624C11.718 18.88 12.502 19.136 13.414 19.312C14.614 19.536 16.022 19.616 17.558 19.328C18.31 19.2 19.078 18.976 19.878 18.64C20.438 18.432 21.062 18.128 21.718 17.696C21.718 17.696 20.918 19.008 18.822 19.6C19.302 20.208 19.878 20.896 19.878 20.896ZM12.438 13.424C11.526 13.424 10.806 14.224 10.806 15.2C10.806 16.176 11.542 16.976 12.438 16.976C13.35 16.976 14.07 16.176 14.07 15.2C14.086 14.224 13.35 13.424 12.438 13.424ZM18.278 13.424C17.366 13.424 16.646 14.224 16.646 15.2C16.646 16.176 17.382 16.976 18.278 16.976C19.19 16.976 19.91 16.176 19.91 15.2C19.91 14.224 19.19 13.424 18.278 13.424Z" fill="black"/>
</g>
<defs>
<clipPath id="clip0_1458_595">
<rect width="32" height="32" fill="white"/>
</clipPath>
</defs>
</svg>
