<svg width="32" height="32" viewBox="0 0 32 32" fill="none" xmlns="http://www.w3.org/2000/svg">
<path d="M0 4.8C0 2.14903 2.14903 0 4.8 0H27.2C29.851 0 32 2.14903 32 4.8V27.2C32 29.851 29.851 32 27.2 32H4.8C2.14903 32 0 29.851 0 27.2V4.8Z" fill="url(#paint0_radial_1458_610)"/>
<path d="M5.37109 20V11.8545H8.2745C8.90822 11.8545 9.43322 11.9699 9.8495 12.2006C10.2658 12.4312 10.5773 12.7468 10.7842 13.1471C10.991 13.5449 11.0944 13.993 11.0944 14.4915C11.0944 14.9926 10.9897 15.4434 10.7802 15.8437C10.5734 16.2415 10.2605 16.557 9.84155 16.7903C9.42526 17.021 8.90159 17.1363 8.27053 17.1363H6.27393V16.0943H8.15916C8.55954 16.0943 8.88435 16.0254 9.13359 15.8875C9.38284 15.747 9.56579 15.556 9.68246 15.3148C9.79912 15.0735 9.85746 14.799 9.85746 14.4915C9.85746 14.1839 9.79912 13.9108 9.68246 13.6721C9.56579 13.4335 9.38151 13.2466 9.12962 13.1113C8.88037 12.9761 8.55159 12.9085 8.14325 12.9085H6.60007V20H5.37109Z" fill="black"/>
<path d="M5.37109 20V11.8545H8.2745C8.90822 11.8545 9.43322 11.9699 9.8495 12.2006C10.2658 12.4312 10.5773 12.7468 10.7842 13.1471C10.991 13.5449 11.0944 13.993 11.0944 14.4915C11.0944 14.9926 10.9897 15.4434 10.7802 15.8437C10.5734 16.2415 10.2605 16.557 9.84155 16.7903C9.42526 17.021 8.90159 17.1363 8.27053 17.1363H6.27393V16.0943H8.15916C8.55954 16.0943 8.88435 16.0254 9.13359 15.8875C9.38284 15.747 9.56579 15.556 9.68246 15.3148C9.79912 15.0735 9.85746 14.799 9.85746 14.4915C9.85746 14.1839 9.79912 13.9108 9.68246 13.6721C9.56579 13.4335 9.38151 13.2466 9.12962 13.1113C8.88037 12.9761 8.55159 12.9085 8.14325 12.9085H6.60007V20H5.37109Z" fill="white"/>
<path d="M17.4258 13.9943C17.3833 13.6178 17.2083 13.3261 16.9008 13.1193C16.5932 12.9098 16.2061 12.8051 15.7394 12.8051C15.4053 12.8051 15.1163 12.8581 14.8724 12.9642C14.6284 13.0676 14.4388 13.2108 14.3036 13.3937C14.171 13.574 14.1047 13.7795 14.1047 14.0102C14.1047 14.2038 14.1498 14.3708 14.24 14.5113C14.3328 14.6519 14.4534 14.7699 14.6019 14.8653C14.753 14.9581 14.9148 15.0363 15.0871 15.1C15.2595 15.161 15.4252 15.2113 15.5843 15.2511L16.3797 15.4579C16.6396 15.5216 16.9061 15.6077 17.1792 15.7165C17.4523 15.8252 17.7055 15.9684 17.9388 16.146C18.1722 16.3237 18.3604 16.5437 18.5036 16.8062C18.6494 17.0687 18.7224 17.3829 18.7224 17.7488C18.7224 18.2102 18.603 18.6199 18.3644 18.9778C18.1284 19.3358 17.7851 19.6182 17.3343 19.825C16.8862 20.0318 16.344 20.1352 15.7076 20.1352C15.0977 20.1352 14.5701 20.0384 14.1246 19.8449C13.6792 19.6513 13.3305 19.3769 13.0786 19.0216C12.8267 18.6636 12.6875 18.2394 12.661 17.7488H13.894C13.9178 18.0432 14.0133 18.2884 14.1803 18.4846C14.35 18.6782 14.5661 18.8227 14.8286 18.9182C15.0938 19.011 15.3841 19.0574 15.6996 19.0574C16.047 19.0574 16.3559 19.003 16.6263 18.8943C16.8994 18.7829 17.1142 18.6291 17.2707 18.4329C17.4271 18.2341 17.5053 18.0021 17.5053 17.7369C17.5053 17.4956 17.4364 17.2981 17.2985 17.1443C17.1633 16.9905 16.979 16.8632 16.7457 16.7625C16.515 16.6617 16.2538 16.5729 15.9621 16.496L14.9996 16.2335C14.3474 16.0559 13.8303 15.7947 13.4485 15.45C13.0693 15.1053 12.8797 14.6492 12.8797 14.0818C12.8797 13.6125 13.007 13.2028 13.2616 12.8528C13.5161 12.5028 13.8608 12.231 14.2957 12.0375C14.7305 11.8413 15.221 11.7432 15.7672 11.7432C16.3188 11.7432 16.8053 11.8399 17.2269 12.0335C17.6511 12.2271 17.9852 12.4935 18.2292 12.8329C18.4731 13.1697 18.6004 13.5568 18.611 13.9943H17.4258Z" fill="black"/>
<path d="M17.4258 13.9943C17.3833 13.6178 17.2083 13.3261 16.9008 13.1193C16.5932 12.9098 16.2061 12.8051 15.7394 12.8051C15.4053 12.8051 15.1163 12.8581 14.8724 12.9642C14.6284 13.0676 14.4388 13.2108 14.3036 13.3937C14.171 13.574 14.1047 13.7795 14.1047 14.0102C14.1047 14.2038 14.1498 14.3708 14.24 14.5113C14.3328 14.6519 14.4534 14.7699 14.6019 14.8653C14.753 14.9581 14.9148 15.0363 15.0871 15.1C15.2595 15.161 15.4252 15.2113 15.5843 15.2511L16.3797 15.4579C16.6396 15.5216 16.9061 15.6077 17.1792 15.7165C17.4523 15.8252 17.7055 15.9684 17.9388 16.146C18.1722 16.3237 18.3604 16.5437 18.5036 16.8062C18.6494 17.0687 18.7224 17.3829 18.7224 17.7488C18.7224 18.2102 18.603 18.6199 18.3644 18.9778C18.1284 19.3358 17.7851 19.6182 17.3343 19.825C16.8862 20.0318 16.344 20.1352 15.7076 20.1352C15.0977 20.1352 14.5701 20.0384 14.1246 19.8449C13.6792 19.6513 13.3305 19.3769 13.0786 19.0216C12.8267 18.6636 12.6875 18.2394 12.661 17.7488H13.894C13.9178 18.0432 14.0133 18.2884 14.1803 18.4846C14.35 18.6782 14.5661 18.8227 14.8286 18.9182C15.0938 19.011 15.3841 19.0574 15.6996 19.0574C16.047 19.0574 16.3559 19.003 16.6263 18.8943C16.8994 18.7829 17.1142 18.6291 17.2707 18.4329C17.4271 18.2341 17.5053 18.0021 17.5053 17.7369C17.5053 17.4956 17.4364 17.2981 17.2985 17.1443C17.1633 16.9905 16.979 16.8632 16.7457 16.7625C16.515 16.6617 16.2538 16.5729 15.9621 16.496L14.9996 16.2335C14.3474 16.0559 13.8303 15.7947 13.4485 15.45C13.0693 15.1053 12.8797 14.6492 12.8797 14.0818C12.8797 13.6125 13.007 13.2028 13.2616 12.8528C13.5161 12.5028 13.8608 12.231 14.2957 12.0375C14.7305 11.8413 15.221 11.7432 15.7672 11.7432C16.3188 11.7432 16.8053 11.8399 17.2269 12.0335C17.6511 12.2271 17.9852 12.4935 18.2292 12.8329C18.4731 13.1697 18.6004 13.5568 18.611 13.9943H17.4258Z" fill="white"/>
<path d="M21.2614 20H19.9569L22.8881 11.8545H24.308L27.2393 20H25.9347L23.6319 13.3341H23.5682L21.2614 20ZM21.4802 16.8102H25.712V17.8443H21.4802V16.8102Z" fill="black"/>
<path d="M21.2614 20H19.9569L22.8881 11.8545H24.308L27.2393 20H25.9347L23.6319 13.3341H23.5682L21.2614 20ZM21.4802 16.8102H25.712V17.8443H21.4802V16.8102Z" fill="white"/>
<defs>
<radialGradient id="paint0_radial_1458_610" cx="0" cy="0" r="1" gradientUnits="userSpaceOnUse" gradientTransform="translate(21.6 21.6) rotate(67.2176) scale(21.6924)">
<stop offset="0.453125" stop-color="#5A25CC"/>
<stop offset="1" stop-color="#8800AA"/>
</radialGradient>
</defs>
</svg>
