<svg xmlns="http://www.w3.org/2000/svg" width="116" height="38" fill="none"><path fill="#fff" d="M13.022.006c-.494.924-7.158 13.39-10.029 18.747-.1.185-.092.319.006.5 2.812 5.249 8.512 15.895 8.57 15.995.06-.099 5.76-10.746 8.572-15.994.097-.181.106-.315.005-.5-1.609-2.994-3.208-5.993-4.817-8.986-.103-.191-.11-.334-.003-.527.442-.798.866-1.605 1.315-2.442.063.108 4.328 8.07 6.42 11.97.088.164.095.286.005.455-3.31 6.177-6.614 12.357-9.915 18.539-.088.165-.178.24-.378.237a93.28 93.28 0 0 0-2.453-.002c-.151.001-.232-.047-.303-.182C6.7 31.603 3.38 25.392.054 19.184c-.068-.13-.075-.226-.003-.36 3.325-6.21 6.645-12.422 9.97-18.63.042-.078.14-.179.214-.18.912-.012 1.825-.008 2.787-.008Z"/><path fill="#fff" d="M16.804 3.81c-1.521 2.835-5.715 10.669-8.001 14.935-.097.182-.104.316-.005.5 1.61 2.994 3.208 5.993 4.818 8.986.103.192.108.334.001.527-.442.798-.866 1.605-1.315 2.443-.06-.101-4.324-8.063-6.42-11.971-.088-.164-.095-.287-.005-.456C9.187 12.598 12.491 6.42 15.791.237c.09-.167.18-.24.378-.237.818.014 1.636.01 2.453.002.153-.001.231.049.303.183 3.319 6.212 6.64 12.423 9.964 18.632.07.13.074.227.003.36-3.325 6.209-6.645 12.42-9.97 18.628-.042.078-.14.178-.214.179-.912.012-1.824.007-2.78.007.063-.122 6.73-12.6 10.023-18.746.1-.185.091-.32-.006-.5-2.813-5.249-8.513-15.896-8.572-15.994-.01.018-.22.406-.569 1.059ZM41.09 24.654h-2.32V14.567c0-.128-.015-.212-.045-.253-.03-.041-.101-.085-.218-.13l-.628-.245.191-1.012h5.863c1.512 0 2.6.287 3.263.863.663.576.995 1.504.995 2.784 0 1.012-.207 1.792-.62 2.338-.413.547-1.056.902-1.928 1.065l2.862 4.677h-2.564l-2.6-4.415h-2.25v4.415Zm0-6.16h2.582c.803 0 1.376-.145 1.72-.436.342-.29.514-.785.514-1.484 0-.686-.172-1.176-.515-1.466-.343-.29-.916-.437-1.718-.437H41.09v3.823ZM58.959 12.928v1.78h-6.143v3.125h4.886v1.71h-4.886v3.333h6.281v1.78h-8.601V14.57c0-.129-.014-.212-.044-.253-.03-.041-.102-.085-.218-.131l-.629-.244.192-1.012h9.162v-.002ZM61.02 14.567c0-.128-.015-.212-.045-.253-.03-.041-.101-.085-.218-.13l-.628-.245.191-1.012h2.618c.175 0 .288.02.34.061.053.042.148.155.288.34l6.022 8.15v-8.55h2.146v11.726h-2.25l-6.317-8.55v8.55H61.02V14.567ZM80.023 12.928c.233.419.483.923.75 1.51s.544 1.224.829 1.91c.285.687.566 1.401.846 2.146a82.727 82.727 0 0 1 1.484 4.328c.21.675.384 1.286.523 1.832h-2.338a42.977 42.977 0 0 0-.4-1.396c-.14-.454-.274-.902-.403-1.344H76.15a69.204 69.204 0 0 0-.803 2.74h-2.338c.14-.547.315-1.157.524-1.832a79.384 79.384 0 0 1 1.484-4.328 66.186 66.186 0 0 1 1.675-4.056c.267-.587.517-1.091.75-1.51h2.582Zm-1.292 2.058a59.025 59.025 0 0 0-2.025 5.218h4.05a78.26 78.26 0 0 0-2.025-5.218ZM85.625 14.567c0-.128-.016-.212-.044-.253-.03-.041-.102-.085-.219-.13l-.628-.245.192-1.012h2.862c.104 0 .157.058.157.175v6.787c0 1.117.239 1.92.715 2.409.477.488 1.25.732 2.322.732 1.081 0 1.858-.244 2.33-.732.471-.488.706-1.291.706-2.409v-6.962h2.322v7.137c0 .85-.102 1.576-.306 2.181a3.444 3.444 0 0 1-.95 1.492c-.431.389-.987.674-1.667.855-.68.18-1.491.27-2.434.27-.943 0-1.754-.09-2.435-.27-.68-.18-1.235-.465-1.666-.855a3.444 3.444 0 0 1-.95-1.492c-.205-.605-.306-1.332-.306-2.18v-5.498h-.001ZM99.027 14.567c0-.128-.014-.212-.044-.253-.03-.041-.101-.085-.218-.13l-.628-.245.191-1.012h2.862c.104 0 .157.058.157.175v9.771h5.357v1.781h-7.678V14.567h.001ZM109.215 14.707h-3.805v-1.78h9.93v1.78h-3.804v9.947h-2.321v-9.947Z"/></svg>