<svg width="24" height="24" viewBox="0 0 24 24" fill="none" xmlns="http://www.w3.org/2000/svg">
<g clip-path="url(#clip0_1458_535)">
<path d="M15.75 18H8.25C7.85218 18 7.47064 18.158 7.18934 18.4393C6.90804 18.7206 6.75 19.1022 6.75 19.5V21C6.75 21.3978 6.90804 21.7794 7.18934 22.0607C7.47064 22.342 7.85218 22.5 8.25 22.5H15.75C16.1478 22.5 16.5294 22.342 16.8107 22.0607C17.092 21.7794 17.25 21.3978 17.25 21V19.5C17.25 19.1022 17.092 18.7206 16.8107 18.4393C16.5294 18.158 16.1478 18 15.75 18Z" fill="white"/>
<path d="M21.5301 10.7197L12.5301 1.71975C12.4605 1.65007 12.3778 1.5948 12.2868 1.55709C12.1959 1.51938 12.0983 1.49997 11.9998 1.49997C11.9014 1.49997 11.8038 1.51938 11.7128 1.55709C11.6219 1.5948 11.5392 1.65007 11.4696 1.71975L2.46959 10.7197C2.36473 10.8246 2.29333 10.9583 2.2644 11.1037C2.23548 11.2492 2.25033 11.4 2.30708 11.537C2.36383 11.674 2.45994 11.7911 2.58325 11.8735C2.70655 11.956 2.85153 12 2.99984 12H6.74984V15C6.7503 15.3977 6.90848 15.7789 7.18968 16.0601C7.47089 16.3414 7.85216 16.4995 8.24984 16.5H15.7498C16.1475 16.4995 16.5287 16.3413 16.8099 16.0601C17.0911 15.7789 17.2493 15.3977 17.2498 15V12H20.9998C21.1482 12 21.2931 11.956 21.4164 11.8735C21.5397 11.7911 21.6358 11.674 21.6926 11.537C21.7494 11.4 21.7642 11.2492 21.7353 11.1037C21.7064 10.9583 21.6349 10.8246 21.5301 10.7197Z" fill="white"/>
</g>
<defs>
<clipPath id="clip0_1458_535">
<rect width="24" height="24" fill="white"/>
</clipPath>
</defs>
</svg>
