<svg width="25" height="18" viewBox="0 0 25 18" fill="none" xmlns="http://www.w3.org/2000/svg">
<path d="M20.4007 1.50747C18.8184 0.793091 17.148 0.286285 15.4321 0C15.1973 0.413926 14.9849 0.8398 14.7957 1.27584C12.968 1.00424 11.1093 1.00424 9.28163 1.27584C9.09232 0.839845 8.87987 0.413976 8.64517 0C6.92823 0.288702 5.25673 0.796712 3.67286 1.51121C0.528467 6.099 -0.323929 10.5729 0.102269 14.9832C1.94371 16.3249 4.0048 17.3453 6.19595 18C6.68934 17.3456 7.12592 16.6514 7.50107 15.9247C6.78853 15.6622 6.1008 15.3384 5.44585 14.957C5.61822 14.8337 5.7868 14.7067 5.94971 14.5834C7.85547 15.4673 9.93551 15.9255 12.0415 15.9255C14.1475 15.9255 16.2275 15.4673 18.1333 14.5834C18.2981 14.7161 18.4667 14.8431 18.6371 14.957C17.9809 15.339 17.2919 15.6635 16.5781 15.9265C16.9528 16.6529 17.3894 17.3465 17.8832 18C20.0763 17.3479 22.1389 16.328 23.9807 14.9851C24.4808 9.87049 23.1264 5.43773 20.4007 1.50747ZM8.04092 12.2709C6.85325 12.2709 5.87204 11.208 5.87204 9.90037C5.87204 8.59278 6.81915 7.52055 8.03713 7.52055C9.25511 7.52055 10.2287 8.59278 10.2079 9.90037C10.1871 11.208 9.25132 12.2709 8.04092 12.2709ZM16.0421 12.2709C14.8525 12.2709 13.8751 11.208 13.8751 9.90037C13.8751 8.59278 14.8222 7.52055 16.0421 7.52055C17.2619 7.52055 18.228 8.59278 18.2072 9.90037C18.1863 11.208 17.2525 12.2709 16.0421 12.2709Z" fill="white"/>
</svg>
