<svg width="167" height="69" viewBox="0 0 167 69" fill="none" xmlns="http://www.w3.org/2000/svg">
<path d="M167 62.5001C167 65.8138 164.314 68.5001 161 68.5001L5.99998 68.4998C2.68628 68.4998 2.34866e-07 65.8135 5.24559e-07 62.4998L-1.14806e-05 25.2825C-1.11909e-05 21.9688 2.68628 19.2825 5.99999 19.2825L45.5244 19.2825C48.7281 19.2825 51.8191 18.0994 54.2041 15.9604L72 1.4583e-05L69.5385 15.8213C69.2555 17.6401 70.6621 19.2825 72.5028 19.2825L161 19.2825C164.314 19.2825 167 21.9688 167 25.2825L167 62.5001Z" fill="black"/>
<path d="M8.95881 31.2727H10.5568L13.3352 38.0568H13.4375L16.2159 31.2727H17.8139V40H16.5611V33.6847H16.4801L13.9062 39.9872H12.8665L10.2926 33.6804H10.2116V40H8.95881V31.2727ZM21.5309 40.1449C21.1161 40.1449 20.7411 40.0682 20.4059 39.9148C20.0707 39.7585 19.805 39.5327 19.609 39.2372C19.4158 38.9418 19.3192 38.5795 19.3192 38.1506C19.3192 37.7812 19.3903 37.4773 19.5323 37.2386C19.6744 37 19.8661 36.8111 20.1076 36.6719C20.3491 36.5327 20.619 36.4276 20.9173 36.3565C21.2156 36.2855 21.5195 36.2315 21.8292 36.1946C22.2212 36.1491 22.5394 36.1122 22.7837 36.0838C23.0281 36.0526 23.2056 36.0028 23.3164 35.9347C23.4272 35.8665 23.4826 35.7557 23.4826 35.6023V35.5724C23.4826 35.2003 23.3775 34.9119 23.1673 34.7074C22.9599 34.5028 22.6502 34.4006 22.2383 34.4006C21.8093 34.4006 21.4712 34.4957 21.2241 34.6861C20.9798 34.8736 20.8107 35.0824 20.717 35.3125L19.5195 35.0398C19.6616 34.642 19.869 34.321 20.1417 34.0767C20.4173 33.8295 20.734 33.6506 21.092 33.5398C21.4499 33.4261 21.8263 33.3693 22.2212 33.3693C22.4826 33.3693 22.7596 33.4006 23.0522 33.4631C23.3477 33.5227 23.6232 33.6335 23.8789 33.7955C24.1374 33.9574 24.3491 34.1889 24.5138 34.4901C24.6786 34.7884 24.761 35.1761 24.761 35.6534V40H23.5167V39.1051H23.4656C23.3832 39.2699 23.2596 39.4318 23.0948 39.5909C22.93 39.75 22.7184 39.8821 22.4599 39.9872C22.2013 40.0923 21.8917 40.1449 21.5309 40.1449ZM21.8079 39.1222C22.1602 39.1222 22.4613 39.0526 22.7113 38.9134C22.9641 38.7741 23.1559 38.5923 23.2866 38.3679C23.4201 38.1406 23.4869 37.8977 23.4869 37.6392V36.7955C23.4414 36.8409 23.3533 36.8835 23.2227 36.9233C23.0948 36.9602 22.9485 36.9929 22.7837 37.0213C22.619 37.0469 22.4585 37.071 22.3022 37.0938C22.146 37.1136 22.0153 37.1307 21.9102 37.1449C21.663 37.1761 21.4371 37.2287 21.2326 37.3026C21.0309 37.3764 20.869 37.483 20.7468 37.6222C20.6275 37.7585 20.5678 37.9403 20.5678 38.1676C20.5678 38.483 20.6843 38.7216 20.9173 38.8835C21.1502 39.0426 21.4471 39.1222 21.8079 39.1222ZM26.4581 40V33.4545H27.6896V34.4943H27.7578C27.8771 34.142 28.0874 33.8651 28.3885 33.6634C28.6925 33.4588 29.0362 33.3565 29.4197 33.3565C29.4993 33.3565 29.593 33.3594 29.701 33.3651C29.8118 33.3707 29.8984 33.3778 29.9609 33.3864V34.6051C29.9098 34.5909 29.8189 34.5753 29.6882 34.5582C29.5575 34.5384 29.4268 34.5284 29.2962 34.5284C28.995 34.5284 28.7266 34.5923 28.4908 34.7202C28.2578 34.8452 28.0732 35.0199 27.9368 35.2443C27.8004 35.4659 27.7322 35.7187 27.7322 36.0028V40H26.4581ZM34.5057 33.4545V34.4773H30.9304V33.4545H34.5057ZM31.8892 31.8864H33.1634V38.0781C33.1634 38.3253 33.2003 38.5114 33.2741 38.6364C33.348 38.7585 33.4432 38.8423 33.5597 38.8878C33.679 38.9304 33.8082 38.9517 33.9474 38.9517C34.0497 38.9517 34.1392 38.9446 34.2159 38.9304C34.2926 38.9162 34.3523 38.9048 34.3949 38.8963L34.625 39.9489C34.5511 39.9773 34.446 40.0057 34.3097 40.0341C34.1733 40.0653 34.0028 40.0824 33.7983 40.0852C33.4631 40.0909 33.1506 40.0312 32.8608 39.9062C32.571 39.7812 32.3366 39.5881 32.1577 39.3267C31.9787 39.0653 31.8892 38.7372 31.8892 38.3423V31.8864ZM35.9151 40V33.4545H37.1893V40H35.9151ZM36.5586 32.4446C36.337 32.4446 36.1467 32.3707 35.9876 32.223C35.8313 32.0724 35.7532 31.8935 35.7532 31.6861C35.7532 31.4759 35.8313 31.2969 35.9876 31.1491C36.1467 30.9986 36.337 30.9233 36.5586 30.9233C36.7802 30.9233 36.9691 30.9986 37.1254 31.1491C37.2844 31.2969 37.364 31.4759 37.364 31.6861C37.364 31.8935 37.2844 32.0724 37.1254 32.223C36.9691 32.3707 36.7802 32.4446 36.5586 32.4446ZM40.1776 36.1136V40H38.9034V33.4545H40.1264V34.5199H40.2074C40.358 34.1733 40.5938 33.8949 40.9148 33.6847C41.2386 33.4744 41.6463 33.3693 42.1378 33.3693C42.5838 33.3693 42.9744 33.4631 43.3097 33.6506C43.6449 33.8352 43.9048 34.1108 44.0895 34.4773C44.2741 34.8437 44.3665 35.2969 44.3665 35.8366V40H43.0923V35.9901C43.0923 35.5156 42.9688 35.1449 42.7216 34.8778C42.4744 34.608 42.1349 34.473 41.7031 34.473C41.4077 34.473 41.1449 34.5369 40.9148 34.6648C40.6875 34.7926 40.5071 34.9801 40.3736 35.2273C40.2429 35.4716 40.1776 35.767 40.1776 36.1136ZM50.9801 35.0526L49.8253 35.2571C49.777 35.1094 49.7003 34.9687 49.5952 34.8352C49.4929 34.7017 49.3537 34.5923 49.1776 34.5071C49.0014 34.4219 48.7813 34.3793 48.517 34.3793C48.1563 34.3793 47.8551 34.4602 47.6136 34.6222C47.3722 34.7812 47.2514 34.9872 47.2514 35.2401C47.2514 35.4588 47.3324 35.6349 47.4943 35.7685C47.6563 35.902 47.9176 36.0114 48.2784 36.0966L49.3182 36.3352C49.9205 36.4744 50.3693 36.6889 50.6648 36.9787C50.9602 37.2685 51.108 37.6449 51.108 38.108C51.108 38.5 50.9943 38.8494 50.767 39.1562C50.5426 39.4602 50.2287 39.6989 49.8253 39.8722C49.4247 40.0455 48.9602 40.1321 48.4318 40.1321C47.6989 40.1321 47.1009 39.9759 46.6378 39.6634C46.1747 39.348 45.8906 38.9006 45.7855 38.321L47.017 38.1335C47.0938 38.4545 47.2514 38.6974 47.4901 38.8622C47.7287 39.0241 48.0398 39.1051 48.4233 39.1051C48.8409 39.1051 49.1747 39.0185 49.4247 38.8452C49.6747 38.669 49.7997 38.4545 49.7997 38.2017C49.7997 37.9972 49.723 37.8253 49.5696 37.6861C49.419 37.5469 49.1875 37.4418 48.875 37.3707L47.767 37.1278C47.1563 36.9886 46.7045 36.767 46.4119 36.4631C46.1222 36.1591 45.9773 35.7741 45.9773 35.3082C45.9773 34.9219 46.0852 34.5838 46.3011 34.294C46.517 34.0043 46.8153 33.7784 47.196 33.6165C47.5767 33.4517 48.0128 33.3693 48.5043 33.3693C49.2116 33.3693 49.7685 33.5227 50.1747 33.8295C50.581 34.1335 50.8494 34.5412 50.9801 35.0526ZM61.3991 31.2727H62.7202V37.0128C62.7202 37.6236 62.5767 38.1648 62.2898 38.6364C62.0028 39.1051 61.5994 39.4744 61.0795 39.7443C60.5597 40.0114 59.9503 40.1449 59.2514 40.1449C58.5554 40.1449 57.9474 40.0114 57.4276 39.7443C56.9077 39.4744 56.5043 39.1051 56.2173 38.6364C55.9304 38.1648 55.7869 37.6236 55.7869 37.0128V31.2727H57.1037V36.9062C57.1037 37.3011 57.1903 37.652 57.3636 37.9588C57.5398 38.2656 57.7884 38.5071 58.1094 38.6832C58.4304 38.8565 58.8111 38.9432 59.2514 38.9432C59.6946 38.9432 60.0767 38.8565 60.3977 38.6832C60.7216 38.5071 60.9688 38.2656 61.1392 37.9588C61.3125 37.652 61.3991 37.3011 61.3991 36.9062V31.2727ZM64.5323 42.4545V33.4545H65.7766V34.5156H65.8832C65.957 34.3793 66.0636 34.2216 66.2028 34.0426C66.342 33.8636 66.5352 33.7074 66.7823 33.5739C67.0295 33.4375 67.3562 33.3693 67.7624 33.3693C68.2908 33.3693 68.7624 33.5028 69.1772 33.7699C69.592 34.0369 69.9173 34.4219 70.1531 34.9247C70.3917 35.4276 70.511 36.0327 70.511 36.7401C70.511 37.4474 70.3931 38.054 70.1573 38.5597C69.9215 39.0625 69.5977 39.4503 69.1857 39.723C68.7738 39.9929 68.3036 40.1278 67.7752 40.1278C67.3775 40.1278 67.0522 40.0611 66.7994 39.9276C66.5494 39.794 66.3533 39.6378 66.2113 39.4588C66.0692 39.2798 65.9599 39.1207 65.8832 38.9815H65.8065V42.4545H64.5323ZM65.7809 36.7273C65.7809 37.1875 65.8477 37.5909 65.9812 37.9375C66.1147 38.2841 66.3079 38.5554 66.5607 38.7514C66.8136 38.9446 67.1232 39.0412 67.4897 39.0412C67.8704 39.0412 68.1886 38.9403 68.4442 38.7386C68.6999 38.5341 68.8931 38.2571 69.0238 37.9077C69.1573 37.5582 69.2241 37.1648 69.2241 36.7273C69.2241 36.2955 69.1587 35.9077 69.0281 35.5639C68.9002 35.2202 68.707 34.9489 68.4485 34.75C68.1928 34.5511 67.8732 34.4517 67.4897 34.4517C67.1204 34.4517 66.8079 34.5469 66.5522 34.7372C66.2994 34.9276 66.1076 35.1932 65.9769 35.5341C65.8462 35.875 65.7809 36.2727 65.7809 36.7273ZM71.9386 40V33.4545H73.2127V40H71.9386ZM72.582 32.4446C72.3604 32.4446 72.1701 32.3707 72.011 32.223C71.8548 32.0724 71.7766 31.8935 71.7766 31.6861C71.7766 31.4759 71.8548 31.2969 72.011 31.1491C72.1701 30.9986 72.3604 30.9233 72.582 30.9233C72.8036 30.9233 72.9925 30.9986 73.1488 31.1491C73.3079 31.2969 73.3874 31.4759 73.3874 31.6861C73.3874 31.8935 73.3079 32.0724 73.1488 32.223C72.9925 32.3707 72.8036 32.4446 72.582 32.4446ZM77.9822 33.4545V34.4773H74.407V33.4545H77.9822ZM75.3658 31.8864H76.6399V38.0781C76.6399 38.3253 76.6768 38.5114 76.7507 38.6364C76.8246 38.7585 76.9197 38.8423 77.0362 38.8878C77.1555 38.9304 77.2848 38.9517 77.424 38.9517C77.5263 38.9517 77.6158 38.9446 77.6925 38.9304C77.7692 38.9162 77.8288 38.9048 77.8714 38.8963L78.1016 39.9489C78.0277 39.9773 77.9226 40.0057 77.7862 40.0341C77.6499 40.0653 77.4794 40.0824 77.2749 40.0852C76.9396 40.0909 76.6271 40.0312 76.3374 39.9062C76.0476 39.7812 75.8132 39.5881 75.6342 39.3267C75.4553 39.0653 75.3658 38.7372 75.3658 38.3423V31.8864ZM79.3917 40V33.4545H80.6658V40H79.3917ZM80.0352 32.4446C79.8136 32.4446 79.6232 32.3707 79.4641 32.223C79.3079 32.0724 79.2298 31.8935 79.2298 31.6861C79.2298 31.4759 79.3079 31.2969 79.4641 31.1491C79.6232 30.9986 79.8136 30.9233 80.0352 30.9233C80.2567 30.9233 80.4457 30.9986 80.6019 31.1491C80.761 31.2969 80.8406 31.4759 80.8406 31.6861C80.8406 31.8935 80.761 32.0724 80.6019 32.223C80.4457 32.3707 80.2567 32.4446 80.0352 32.4446ZM87.2848 35.0526L86.13 35.2571C86.0817 35.1094 86.005 34.9687 85.8999 34.8352C85.7976 34.7017 85.6584 34.5923 85.4822 34.5071C85.3061 34.4219 85.0859 34.3793 84.8217 34.3793C84.4609 34.3793 84.1598 34.4602 83.9183 34.6222C83.6768 34.7812 83.5561 34.9872 83.5561 35.2401C83.5561 35.4588 83.6371 35.6349 83.799 35.7685C83.9609 35.902 84.2223 36.0114 84.5831 36.0966L85.6229 36.3352C86.2251 36.4744 86.674 36.6889 86.9695 36.9787C87.2649 37.2685 87.4126 37.6449 87.4126 38.108C87.4126 38.5 87.299 38.8494 87.0717 39.1562C86.8473 39.4602 86.5334 39.6989 86.13 39.8722C85.7294 40.0455 85.2649 40.1321 84.7365 40.1321C84.0036 40.1321 83.4055 39.9759 82.9425 39.6634C82.4794 39.348 82.1953 38.9006 82.0902 38.321L83.3217 38.1335C83.3984 38.4545 83.5561 38.6974 83.7947 38.8622C84.0334 39.0241 84.3445 39.1051 84.728 39.1051C85.1456 39.1051 85.4794 39.0185 85.7294 38.8452C85.9794 38.669 86.1044 38.4545 86.1044 38.2017C86.1044 37.9972 86.0277 37.8253 85.8743 37.6861C85.7237 37.5469 85.4922 37.4418 85.1797 37.3707L84.0717 37.1278C83.4609 36.9886 83.0092 36.767 82.7166 36.4631C82.4268 36.1591 82.282 35.7741 82.282 35.3082C82.282 34.9219 82.3899 34.5838 82.6058 34.294C82.8217 34.0043 83.12 33.7784 83.5007 33.6165C83.8814 33.4517 84.3175 33.3693 84.8089 33.3693C85.5163 33.3693 86.0732 33.5227 86.4794 33.8295C86.8857 34.1335 87.1541 34.5412 87.2848 35.0526Z" fill="white"/>
<path d="M94.7464 40.1321C94.1129 40.1321 93.5675 39.9886 93.1101 39.7017C92.6555 39.4119 92.3061 39.0128 92.0618 38.5043C91.8175 37.9957 91.6953 37.4134 91.6953 36.7571C91.6953 36.0923 91.8203 35.5057 92.0703 34.9972C92.3203 34.4858 92.6726 34.0866 93.1271 33.7997C93.5817 33.5128 94.1172 33.3693 94.7337 33.3693C95.2308 33.3693 95.674 33.4616 96.0632 33.6463C96.4524 33.8281 96.7663 34.0838 97.005 34.4134C97.2464 34.7429 97.3899 35.1278 97.4354 35.5682H96.1953C96.1271 35.2614 95.9709 34.9972 95.7266 34.7756C95.4851 34.554 95.1612 34.4432 94.755 34.4432C94.3999 34.4432 94.0888 34.5369 93.8217 34.7244C93.5575 34.9091 93.3516 35.1733 93.2038 35.517C93.0561 35.858 92.9822 36.2614 92.9822 36.7273C92.9822 37.2045 93.0547 37.6165 93.1996 37.9631C93.3445 38.3097 93.549 38.5781 93.8132 38.7685C94.0803 38.9588 94.3942 39.054 94.755 39.054C94.9964 39.054 95.2152 39.0099 95.4112 38.9219C95.6101 38.831 95.7763 38.7017 95.9098 38.5341C96.0462 38.3665 96.1413 38.1648 96.1953 37.929H97.4354C97.3899 38.3523 97.2521 38.7301 97.022 39.0625C96.7919 39.3949 96.4837 39.6562 96.0973 39.8466C95.7138 40.0369 95.2635 40.1321 94.7464 40.1321ZM101.555 40.1321C100.941 40.1321 100.406 39.9915 99.9485 39.7102C99.4911 39.429 99.136 39.0355 98.8832 38.5298C98.6303 38.0241 98.5039 37.4332 98.5039 36.7571C98.5039 36.0781 98.6303 35.4844 98.8832 34.9759C99.136 34.4673 99.4911 34.0724 99.9485 33.7912C100.406 33.5099 100.941 33.3693 101.555 33.3693C102.169 33.3693 102.704 33.5099 103.162 33.7912C103.619 34.0724 103.974 34.4673 104.227 34.9759C104.48 35.4844 104.606 36.0781 104.606 36.7571C104.606 37.4332 104.48 38.0241 104.227 38.5298C103.974 39.0355 103.619 39.429 103.162 39.7102C102.704 39.9915 102.169 40.1321 101.555 40.1321ZM101.559 39.0625C101.957 39.0625 102.287 38.9574 102.548 38.7472C102.809 38.5369 103.002 38.2571 103.127 37.9077C103.255 37.5582 103.319 37.1733 103.319 36.7528C103.319 36.3352 103.255 35.9517 103.127 35.6023C103.002 35.25 102.809 34.9673 102.548 34.7543C102.287 34.5412 101.957 34.4347 101.559 34.4347C101.159 34.4347 100.826 34.5412 100.562 34.7543C100.301 34.9673 100.106 35.25 99.9783 35.6023C99.8533 35.9517 99.7908 36.3352 99.7908 36.7528C99.7908 37.1733 99.8533 37.5582 99.9783 37.9077C100.106 38.2571 100.301 38.5369 100.562 38.7472C100.826 38.9574 101.159 39.0625 101.559 39.0625ZM109.885 35.7599V36.8636H106.016V35.7599H109.885ZM114.698 33.4545V34.4773H110.999V33.4545H114.698ZM112.013 40V32.696C112.013 32.2869 112.103 31.9474 112.282 31.6776C112.461 31.4048 112.698 31.2017 112.994 31.0682C113.289 30.9318 113.61 30.8636 113.957 30.8636C114.212 30.8636 114.431 30.8849 114.613 30.9276C114.795 30.9673 114.93 31.0043 115.018 31.0384L114.719 32.0696C114.66 32.0526 114.583 32.0327 114.489 32.0099C114.396 31.9844 114.282 31.9716 114.148 31.9716C113.839 31.9716 113.617 32.0483 113.484 32.2017C113.353 32.3551 113.288 32.5767 113.288 32.8665V40H112.013ZM118.512 40.1321C117.898 40.1321 117.363 39.9915 116.906 39.7102C116.448 39.429 116.093 39.0355 115.84 38.5298C115.587 38.0241 115.461 37.4332 115.461 36.7571C115.461 36.0781 115.587 35.4844 115.84 34.9759C116.093 34.4673 116.448 34.0724 116.906 33.7912C117.363 33.5099 117.898 33.3693 118.512 33.3693C119.126 33.3693 119.661 33.5099 120.119 33.7912C120.576 34.0724 120.931 34.4673 121.184 34.9759C121.437 35.4844 121.563 36.0781 121.563 36.7571C121.563 37.4332 121.437 38.0241 121.184 38.5298C120.931 39.0355 120.576 39.429 120.119 39.7102C119.661 39.9915 119.126 40.1321 118.512 40.1321ZM118.516 39.0625C118.914 39.0625 119.244 38.9574 119.505 38.7472C119.766 38.5369 119.96 38.2571 120.085 37.9077C120.212 37.5582 120.276 37.1733 120.276 36.7528C120.276 36.3352 120.212 35.9517 120.085 35.6023C119.96 35.25 119.766 34.9673 119.505 34.7543C119.244 34.5412 118.914 34.4347 118.516 34.4347C118.116 34.4347 117.783 34.5412 117.519 34.7543C117.258 34.9673 117.063 35.25 116.935 35.6023C116.81 35.9517 116.748 36.3352 116.748 36.7528C116.748 37.1733 116.81 37.5582 116.935 37.9077C117.063 38.2571 117.258 38.5369 117.519 38.7472C117.783 38.9574 118.116 39.0625 118.516 39.0625ZM127.132 37.2855V33.4545H128.41V40H127.157V38.8665H127.089C126.939 39.2159 126.697 39.5071 126.365 39.7401C126.035 39.9702 125.625 40.0852 125.133 40.0852C124.713 40.0852 124.341 39.9929 124.017 39.8082C123.696 39.6207 123.443 39.3438 123.258 38.9773C123.076 38.6108 122.985 38.1577 122.985 37.6179V33.4545H124.26V37.4645C124.26 37.9105 124.383 38.2656 124.63 38.5298C124.877 38.794 125.199 38.9261 125.593 38.9261C125.832 38.9261 126.069 38.8665 126.305 38.7472C126.544 38.6278 126.741 38.4474 126.897 38.206C127.056 37.9645 127.135 37.6577 127.132 37.2855ZM131.396 36.1136V40H130.122V33.4545H131.345V34.5199H131.426C131.577 34.1733 131.813 33.8949 132.134 33.6847C132.457 33.4744 132.865 33.3693 133.357 33.3693C133.803 33.3693 134.193 33.4631 134.528 33.6506C134.864 33.8352 135.124 34.1108 135.308 34.4773C135.493 34.8437 135.585 35.2969 135.585 35.8366V40H134.311V35.9901C134.311 35.5156 134.188 35.1449 133.94 34.8778C133.693 34.608 133.354 34.473 132.922 34.473C132.626 34.473 132.364 34.5369 132.134 34.6648C131.906 34.7926 131.726 34.9801 131.592 35.2273C131.462 35.4716 131.396 35.767 131.396 36.1136ZM139.744 40.1278C139.216 40.1278 138.744 39.9929 138.33 39.723C137.918 39.4503 137.594 39.0625 137.358 38.5597C137.125 38.054 137.009 37.4474 137.009 36.7401C137.009 36.0327 137.126 35.4276 137.362 34.9247C137.601 34.4219 137.928 34.0369 138.342 33.7699C138.757 33.5028 139.227 33.3693 139.753 33.3693C140.159 33.3693 140.486 33.4375 140.733 33.5739C140.983 33.7074 141.176 33.8636 141.312 34.0426C141.452 34.2216 141.56 34.3793 141.636 34.5156H141.713V31.2727H142.987V40H141.743V38.9815H141.636C141.56 39.1207 141.449 39.2798 141.304 39.4588C141.162 39.6378 140.966 39.794 140.716 39.9276C140.466 40.0611 140.142 40.1278 139.744 40.1278ZM140.026 39.0412C140.392 39.0412 140.702 38.9446 140.955 38.7514C141.21 38.5554 141.403 38.2841 141.534 37.9375C141.668 37.5909 141.734 37.1875 141.734 36.7273C141.734 36.2727 141.669 35.875 141.538 35.5341C141.408 35.1932 141.216 34.9276 140.963 34.7372C140.71 34.5469 140.398 34.4517 140.026 34.4517C139.642 34.4517 139.322 34.5511 139.067 34.75C138.811 34.9489 138.618 35.2202 138.487 35.5639C138.359 35.9077 138.295 36.2955 138.295 36.7273C138.295 37.1648 138.361 37.5582 138.491 37.9077C138.622 38.2571 138.815 38.5341 139.071 38.7386C139.33 38.9403 139.648 39.0412 140.026 39.0412ZM147.627 40.1321C146.982 40.1321 146.426 39.9943 145.961 39.7188C145.498 39.4403 145.14 39.0497 144.887 38.5469C144.637 38.0412 144.512 37.4489 144.512 36.7699C144.512 36.0994 144.637 35.5085 144.887 34.9972C145.14 34.4858 145.492 34.0866 145.944 33.7997C146.398 33.5128 146.929 33.3693 147.537 33.3693C147.907 33.3693 148.265 33.4304 148.611 33.5526C148.958 33.6747 149.269 33.8665 149.544 34.1278C149.82 34.3892 150.037 34.7287 150.196 35.1463C150.355 35.5611 150.435 36.0653 150.435 36.6591V37.1108H145.232V36.1562H149.186C149.186 35.821 149.118 35.5241 148.982 35.2656C148.846 35.0043 148.654 34.7983 148.407 34.6477C148.162 34.4972 147.875 34.4219 147.546 34.4219C147.188 34.4219 146.875 34.5099 146.608 34.6861C146.344 34.8594 146.14 35.0866 145.995 35.3679C145.853 35.6463 145.782 35.9489 145.782 36.2756V37.0213C145.782 37.4588 145.858 37.831 146.012 38.1378C146.168 38.4446 146.385 38.679 146.664 38.8409C146.942 39 147.267 39.0795 147.64 39.0795C147.881 39.0795 148.101 39.0455 148.3 38.9773C148.499 38.9062 148.671 38.8011 148.816 38.6619C148.961 38.5227 149.071 38.3509 149.148 38.1463L150.354 38.3636C150.257 38.7187 150.084 39.0298 149.834 39.2969C149.587 39.5611 149.276 39.767 148.901 39.9148C148.529 40.0597 148.104 40.1321 147.627 40.1321ZM151.849 40V33.4545H153.08V34.4943H153.148C153.268 34.142 153.478 33.8651 153.779 33.6634C154.083 33.4588 154.427 33.3565 154.81 33.3565C154.89 33.3565 154.984 33.3594 155.092 33.3651C155.202 33.3707 155.289 33.3778 155.352 33.3864V34.6051C155.3 34.5909 155.21 34.5753 155.079 34.5582C154.948 34.5384 154.817 34.5284 154.687 34.5284C154.386 34.5284 154.117 34.5923 153.881 34.7202C153.648 34.8452 153.464 35.0199 153.327 35.2443C153.191 35.4659 153.123 35.7187 153.123 36.0028V40H151.849ZM11.6136 57.1321C11 57.1321 10.4645 56.9915 10.0071 56.7102C9.54972 56.429 9.1946 56.0355 8.94176 55.5298C8.68892 55.0241 8.5625 54.4332 8.5625 53.7571C8.5625 53.0781 8.68892 52.4844 8.94176 51.9759C9.1946 51.4673 9.54972 51.0724 10.0071 50.7912C10.4645 50.5099 11 50.3693 11.6136 50.3693C12.2273 50.3693 12.7628 50.5099 13.2202 50.7912C13.6776 51.0724 14.0327 51.4673 14.2855 51.9759C14.5384 52.4844 14.6648 53.0781 14.6648 53.7571C14.6648 54.4332 14.5384 55.0241 14.2855 55.5298C14.0327 56.0355 13.6776 56.429 13.2202 56.7102C12.7628 56.9915 12.2273 57.1321 11.6136 57.1321ZM11.6179 56.0625C12.0156 56.0625 12.3452 55.9574 12.6065 55.7472C12.8679 55.5369 13.0611 55.2571 13.1861 54.9077C13.3139 54.5582 13.3778 54.1733 13.3778 53.7528C13.3778 53.3352 13.3139 52.9517 13.1861 52.6023C13.0611 52.25 12.8679 51.9673 12.6065 51.7543C12.3452 51.5412 12.0156 51.4347 11.6179 51.4347C11.2173 51.4347 10.8849 51.5412 10.6207 51.7543C10.3594 51.9673 10.1648 52.25 10.0369 52.6023C9.91193 52.9517 9.84943 53.3352 9.84943 53.7528C9.84943 54.1733 9.91193 54.5582 10.0369 54.9077C10.1648 55.2571 10.3594 55.5369 10.6207 55.7472C10.8849 55.9574 11.2173 56.0625 11.6179 56.0625ZM19.2021 50.4545V51.4773H15.5032V50.4545H19.2021ZM16.5174 57V49.696C16.5174 49.2869 16.6069 48.9474 16.7859 48.6776C16.9648 48.4048 17.2021 48.2017 17.4975 48.0682C17.793 47.9318 18.114 47.8636 18.4606 47.8636C18.7163 47.8636 18.935 47.8849 19.1168 47.9276C19.2987 47.9673 19.4336 48.0043 19.5217 48.0384L19.2234 49.0696C19.1637 49.0526 19.087 49.0327 18.9933 49.0099C18.8995 48.9844 18.7859 48.9716 18.6523 48.9716C18.3427 48.9716 18.1211 49.0483 17.9876 49.2017C17.8569 49.3551 17.7915 49.5767 17.7915 49.8665V57H16.5174ZM23.7947 57V48.2727H26.9055C27.5845 48.2727 28.147 48.3963 28.593 48.6435C29.0391 48.8906 29.3729 49.2287 29.5945 49.6577C29.8161 50.0838 29.9268 50.5639 29.9268 51.098C29.9268 51.6349 29.8146 52.1179 29.5902 52.5469C29.3686 52.973 29.0334 53.3111 28.5845 53.5611C28.1385 53.8082 27.5774 53.9318 26.9013 53.9318H24.7621V52.8153H26.782C27.2109 52.8153 27.5589 52.7415 27.826 52.5938C28.093 52.4432 28.2891 52.2386 28.4141 51.9801C28.5391 51.7216 28.6016 51.4276 28.6016 51.098C28.6016 50.7685 28.5391 50.4759 28.4141 50.2202C28.2891 49.9645 28.0916 49.7642 27.8217 49.6193C27.5547 49.4744 27.2024 49.402 26.7649 49.402H25.1115V57H23.7947ZM32.6424 53.1136V57H31.3683V48.2727H32.6254V51.5199H32.7063C32.8597 51.1676 33.0941 50.8878 33.4094 50.6804C33.7248 50.473 34.1367 50.3693 34.6452 50.3693C35.0941 50.3693 35.4862 50.4616 35.8214 50.6463C36.1594 50.831 36.4208 51.1065 36.6055 51.473C36.793 51.8366 36.8867 52.2912 36.8867 52.8366V57H35.6126V52.9901C35.6126 52.5099 35.489 52.1378 35.2418 51.8736C34.9947 51.6065 34.6509 51.473 34.2106 51.473C33.9094 51.473 33.6396 51.5369 33.4009 51.6648C33.1651 51.7926 32.979 51.9801 32.8427 52.2273C32.7092 52.4716 32.6424 52.767 32.6424 53.1136ZM39.158 59.4545C38.9677 59.4545 38.7944 59.4389 38.6381 59.4077C38.4819 59.3793 38.3654 59.348 38.2887 59.3139L38.5955 58.2699C38.8285 58.3324 39.0359 58.3594 39.2177 58.3509C39.3995 58.3423 39.56 58.2741 39.6992 58.1463C39.8413 58.0185 39.9663 57.8097 40.0742 57.5199L40.2319 57.0852L37.837 50.4545H39.2006L40.8583 55.5341H40.9265L42.5842 50.4545H43.9521L41.2546 57.8736C41.1296 58.2145 40.9705 58.5028 40.7773 58.7386C40.5842 58.9773 40.354 59.1563 40.087 59.2756C39.82 59.3949 39.5103 59.4545 39.158 59.4545ZM50.0543 52.0526L48.8995 52.2571C48.8512 52.1094 48.7745 51.9687 48.6694 51.8352C48.5671 51.7017 48.4279 51.5923 48.2518 51.5071C48.0756 51.4219 47.8555 51.3793 47.5913 51.3793C47.2305 51.3793 46.9293 51.4602 46.6879 51.6222C46.4464 51.7812 46.3256 51.9872 46.3256 52.2401C46.3256 52.4588 46.4066 52.6349 46.5685 52.7685C46.7305 52.902 46.9918 53.0114 47.3526 53.0966L48.3924 53.3352C48.9947 53.4744 49.4435 53.6889 49.739 53.9787C50.0344 54.2685 50.1822 54.6449 50.1822 55.108C50.1822 55.5 50.0685 55.8494 49.8413 56.1562C49.6168 56.4602 49.3029 56.6989 48.8995 56.8722C48.4989 57.0455 48.0344 57.1321 47.506 57.1321C46.7731 57.1321 46.1751 56.9759 45.712 56.6634C45.2489 56.348 44.9648 55.9006 44.8597 55.321L46.0913 55.1335C46.168 55.4545 46.3256 55.6974 46.5643 55.8622C46.8029 56.0241 47.114 56.1051 47.4975 56.1051C47.9151 56.1051 48.2489 56.0185 48.4989 55.8452C48.7489 55.669 48.8739 55.4545 48.8739 55.2017C48.8739 54.9972 48.7972 54.8253 48.6438 54.6861C48.4933 54.5469 48.2617 54.4418 47.9492 54.3707L46.8413 54.1278C46.2305 53.9886 45.7788 53.767 45.4862 53.4631C45.1964 53.1591 45.0515 52.7741 45.0515 52.3082C45.0515 51.9219 45.1594 51.5838 45.3754 51.294C45.5913 51.0043 45.8896 50.7784 46.2702 50.6165C46.6509 50.4517 47.087 50.3693 47.5785 50.3693C48.2859 50.3693 48.8427 50.5227 49.2489 50.8295C49.6552 51.1335 49.9237 51.5412 50.0543 52.0526ZM51.5831 57V50.4545H52.8572V57H51.5831ZM52.2266 49.4446C52.005 49.4446 51.8146 49.3707 51.6555 49.223C51.4993 49.0724 51.4212 48.8935 51.4212 48.6861C51.4212 48.4759 51.4993 48.2969 51.6555 48.1491C51.8146 47.9986 52.005 47.9233 52.2266 47.9233C52.4482 47.9233 52.6371 47.9986 52.7933 48.1491C52.9524 48.2969 53.032 48.4759 53.032 48.6861C53.032 48.8935 52.9524 49.0724 52.7933 49.223C52.6371 49.3707 52.4482 49.4446 52.2266 49.4446ZM57.3285 57.1321C56.695 57.1321 56.1495 56.9886 55.6921 56.7017C55.2376 56.4119 54.8881 56.0128 54.6438 55.5043C54.3995 54.9957 54.2773 54.4134 54.2773 53.7571C54.2773 53.0923 54.4023 52.5057 54.6523 51.9972C54.9023 51.4858 55.2546 51.0866 55.7092 50.7997C56.1637 50.5128 56.6992 50.3693 57.3157 50.3693C57.8129 50.3693 58.256 50.4616 58.6452 50.6463C59.0344 50.8281 59.3484 51.0838 59.587 51.4134C59.8285 51.7429 59.9719 52.1278 60.0174 52.5682H58.7773C58.7092 52.2614 58.5529 51.9972 58.3086 51.7756C58.0671 51.554 57.7433 51.4432 57.337 51.4432C56.9819 51.4432 56.6708 51.5369 56.4038 51.7244C56.1396 51.9091 55.9336 52.1733 55.7859 52.517C55.6381 52.858 55.5643 53.2614 55.5643 53.7273C55.5643 54.2045 55.6367 54.6165 55.7816 54.9631C55.9265 55.3097 56.131 55.5781 56.3952 55.7685C56.6623 55.9588 56.9762 56.054 57.337 56.054C57.5785 56.054 57.7972 56.0099 57.9933 55.9219C58.1921 55.831 58.3583 55.7017 58.4918 55.5341C58.6282 55.3665 58.7234 55.1648 58.7773 54.929H60.0174C59.9719 55.3523 59.8342 55.7301 59.604 56.0625C59.3739 56.3949 59.0657 56.6562 58.6793 56.8466C58.2958 57.0369 57.8455 57.1321 57.3285 57.1321ZM63.2848 57.1449C62.87 57.1449 62.495 57.0682 62.1598 56.9148C61.8246 56.7585 61.5589 56.5327 61.3629 56.2372C61.1697 55.9418 61.0732 55.5795 61.0732 55.1506C61.0732 54.7812 61.1442 54.4773 61.2862 54.2386C61.4283 54 61.62 53.8111 61.8615 53.6719C62.103 53.5327 62.3729 53.4276 62.6712 53.3565C62.9695 53.2855 63.2734 53.2315 63.5831 53.1946C63.9751 53.1491 64.2933 53.1122 64.5376 53.0838C64.782 53.0526 64.9595 53.0028 65.0703 52.9347C65.1811 52.8665 65.2365 52.7557 65.2365 52.6023V52.5724C65.2365 52.2003 65.1314 51.9119 64.9212 51.7074C64.7138 51.5028 64.4041 51.4006 63.9922 51.4006C63.5632 51.4006 63.2251 51.4957 62.978 51.6861C62.7337 51.8736 62.5646 52.0824 62.4709 52.3125L61.2734 52.0398C61.4155 51.642 61.6229 51.321 61.8956 51.0767C62.1712 50.8295 62.4879 50.6506 62.8459 50.5398C63.2038 50.4261 63.5803 50.3693 63.9751 50.3693C64.2365 50.3693 64.5135 50.4006 64.8061 50.4631C65.1016 50.5227 65.3771 50.6335 65.6328 50.7955C65.8913 50.9574 66.103 51.1889 66.2678 51.4901C66.4325 51.7884 66.5149 52.1761 66.5149 52.6534V57H65.2706V56.1051H65.2195C65.1371 56.2699 65.0135 56.4318 64.8487 56.5909C64.6839 56.75 64.4723 56.8821 64.2138 56.9872C63.9553 57.0923 63.6456 57.1449 63.2848 57.1449ZM63.5618 56.1222C63.9141 56.1222 64.2152 56.0526 64.4652 55.9134C64.718 55.7741 64.9098 55.5923 65.0405 55.3679C65.174 55.1406 65.2408 54.8977 65.2408 54.6392V53.7955C65.1953 53.8409 65.1072 53.8835 64.9766 53.9233C64.8487 53.9602 64.7024 53.9929 64.5376 54.0213C64.3729 54.0469 64.2124 54.071 64.0561 54.0938C63.8999 54.1136 63.7692 54.1307 63.6641 54.1449C63.4169 54.1761 63.1911 54.2287 62.9865 54.3026C62.7848 54.3764 62.6229 54.483 62.5007 54.6222C62.3814 54.7585 62.3217 54.9403 62.3217 55.1676C62.3217 55.483 62.4382 55.7216 62.6712 55.8835C62.9041 56.0426 63.201 56.1222 63.5618 56.1222ZM69.4862 48.2727V57H68.212V48.2727H69.4862ZM75.2156 57H73.8178L76.9585 48.2727H78.4798L81.6204 57H80.2227L77.7553 49.858H77.6871L75.2156 57ZM75.4499 53.5824H79.984V54.6903H75.4499V53.5824ZM85.1232 57.1278C84.5948 57.1278 84.1232 56.9929 83.7085 56.723C83.2965 56.4503 82.9727 56.0625 82.7369 55.5597C82.5039 55.054 82.3874 54.4474 82.3874 53.7401C82.3874 53.0327 82.5053 52.4276 82.7411 51.9247C82.9798 51.4219 83.3065 51.0369 83.7212 50.7699C84.136 50.5028 84.6062 50.3693 85.1317 50.3693C85.538 50.3693 85.8647 50.4375 86.1119 50.5739C86.3619 50.7074 86.555 50.8636 86.6914 51.0426C86.8306 51.2216 86.9386 51.3793 87.0153 51.5156H87.092V48.2727H88.3661V57H87.1218V55.9815H87.0153C86.9386 56.1207 86.8278 56.2798 86.6829 56.4588C86.5408 56.6378 86.3448 56.794 86.0948 56.9276C85.8448 57.0611 85.521 57.1278 85.1232 57.1278ZM85.4045 56.0412C85.771 56.0412 86.0806 55.9446 86.3335 55.7514C86.5891 55.5554 86.7823 55.2841 86.913 54.9375C87.0465 54.5909 87.1133 54.1875 87.1133 53.7273C87.1133 53.2727 87.0479 52.875 86.9173 52.5341C86.7866 52.1932 86.5948 51.9276 86.342 51.7372C86.0891 51.5469 85.7766 51.4517 85.4045 51.4517C85.021 51.4517 84.7013 51.5511 84.4457 51.75C84.19 51.9489 83.9968 52.2202 83.8661 52.5639C83.7383 52.9077 83.6744 53.2955 83.6744 53.7273C83.6744 54.1648 83.7397 54.5582 83.8704 54.9077C84.0011 55.2571 84.1942 55.5341 84.4499 55.7386C84.7085 55.9403 85.0266 56.0412 85.4045 56.0412ZM92.6349 57.1278C92.1065 57.1278 91.6349 56.9929 91.2202 56.723C90.8082 56.4503 90.4844 56.0625 90.2486 55.5597C90.0156 55.054 89.8991 54.4474 89.8991 53.7401C89.8991 53.0327 90.017 52.4276 90.2528 51.9247C90.4915 51.4219 90.8182 51.0369 91.233 50.7699C91.6477 50.5028 92.1179 50.3693 92.6435 50.3693C93.0497 50.3693 93.3764 50.4375 93.6236 50.5739C93.8736 50.7074 94.0668 50.8636 94.2031 51.0426C94.3423 51.2216 94.4503 51.3793 94.527 51.5156H94.6037V48.2727H95.8778V57H94.6335V55.9815H94.527C94.4503 56.1207 94.3395 56.2798 94.1946 56.4588C94.0526 56.6378 93.8565 56.794 93.6065 56.9276C93.3565 57.0611 93.0327 57.1278 92.6349 57.1278ZM92.9162 56.0412C93.2827 56.0412 93.5923 55.9446 93.8452 55.7514C94.1009 55.5554 94.294 55.2841 94.4247 54.9375C94.5582 54.5909 94.625 54.1875 94.625 53.7273C94.625 53.2727 94.5597 52.875 94.429 52.5341C94.2983 52.1932 94.1065 51.9276 93.8537 51.7372C93.6009 51.5469 93.2884 51.4517 92.9162 51.4517C92.5327 51.4517 92.2131 51.5511 91.9574 51.75C91.7017 51.9489 91.5085 52.2202 91.3778 52.5639C91.25 52.9077 91.1861 53.2955 91.1861 53.7273C91.1861 54.1648 91.2514 54.5582 91.3821 54.9077C91.5128 55.2571 91.706 55.5341 91.9616 55.7386C92.2202 55.9403 92.5384 56.0412 92.9162 56.0412ZM100.453 57.1321C99.8398 57.1321 99.3043 56.9915 98.8469 56.7102C98.3896 56.429 98.0344 56.0355 97.7816 55.5298C97.5288 55.0241 97.4023 54.4332 97.4023 53.7571C97.4023 53.0781 97.5288 52.4844 97.7816 51.9759C98.0344 51.4673 98.3896 51.0724 98.8469 50.7912C99.3043 50.5099 99.8398 50.3693 100.453 50.3693C101.067 50.3693 101.603 50.5099 102.06 50.7912C102.517 51.0724 102.873 51.4673 103.125 51.9759C103.378 52.4844 103.505 53.0781 103.505 53.7571C103.505 54.4332 103.378 55.0241 103.125 55.5298C102.873 56.0355 102.517 56.429 102.06 56.7102C101.603 56.9915 101.067 57.1321 100.453 57.1321ZM100.458 56.0625C100.855 56.0625 101.185 55.9574 101.446 55.7472C101.708 55.5369 101.901 55.2571 102.026 54.9077C102.154 54.5582 102.218 54.1733 102.218 53.7528C102.218 53.3352 102.154 52.9517 102.026 52.6023C101.901 52.25 101.708 51.9673 101.446 51.7543C101.185 51.5412 100.855 51.4347 100.458 51.4347C100.057 51.4347 99.7248 51.5412 99.4606 51.7543C99.1992 51.9673 99.0046 52.25 98.8768 52.6023C98.7518 52.9517 98.6893 53.3352 98.6893 53.7528C98.6893 54.1733 98.7518 54.5582 98.8768 54.9077C99.0046 55.2571 99.1992 55.5369 99.4606 55.7472C99.7248 55.9574 100.057 56.0625 100.458 56.0625ZM106.201 53.1136V57H104.927V50.4545H106.15V51.5199H106.231C106.381 51.1733 106.617 50.8949 106.938 50.6847C107.262 50.4744 107.67 50.3693 108.161 50.3693C108.607 50.3693 108.998 50.4631 109.333 50.6506C109.668 50.8352 109.928 51.1108 110.113 51.4773C110.298 51.8437 110.39 52.2969 110.39 52.8366V57H109.116V52.9901C109.116 52.5156 108.992 52.1449 108.745 51.8778C108.498 51.608 108.158 51.473 107.727 51.473C107.431 51.473 107.168 51.5369 106.938 51.6648C106.711 51.7926 106.531 51.9801 106.397 52.2273C106.266 52.4716 106.201 52.767 106.201 53.1136ZM117.004 52.0526L115.849 52.2571C115.8 52.1094 115.724 51.9687 115.619 51.8352C115.516 51.7017 115.377 51.5923 115.201 51.5071C115.025 51.4219 114.805 51.3793 114.54 51.3793C114.18 51.3793 113.879 51.4602 113.637 51.6222C113.396 51.7812 113.275 51.9872 113.275 52.2401C113.275 52.4588 113.356 52.6349 113.518 52.7685C113.68 52.902 113.941 53.0114 114.302 53.0966L115.342 53.3352C115.944 53.4744 116.393 53.6889 116.688 53.9787C116.984 54.2685 117.131 54.6449 117.131 55.108C117.131 55.5 117.018 55.8494 116.79 56.1562C116.566 56.4602 116.252 56.6989 115.849 56.8722C115.448 57.0455 114.984 57.1321 114.455 57.1321C113.722 57.1321 113.124 56.9759 112.661 56.6634C112.198 56.348 111.914 55.9006 111.809 55.321L113.04 55.1335C113.117 55.4545 113.275 55.6974 113.513 55.8622C113.752 56.0241 114.063 56.1051 114.447 56.1051C114.864 56.1051 115.198 56.0185 115.448 55.8452C115.698 55.669 115.823 55.4545 115.823 55.2017C115.823 54.9972 115.746 54.8253 115.593 54.6861C115.442 54.5469 115.211 54.4418 114.898 54.3707L113.79 54.1278C113.18 53.9886 112.728 53.767 112.435 53.4631C112.146 53.1591 112.001 52.7741 112.001 52.3082C112.001 51.9219 112.109 51.5838 112.325 51.294C112.54 51.0043 112.839 50.7784 113.219 50.6165C113.6 50.4517 114.036 50.3693 114.528 50.3693C115.235 50.3693 115.792 50.5227 116.198 50.8295C116.604 51.1335 116.873 51.5412 117.004 52.0526Z" fill="white" fill-opacity="0.5"/>
</svg>
