<svg width="32" height="32" viewBox="0 0 32 32" fill="none" xmlns="http://www.w3.org/2000/svg">
<path d="M6.00568 3.36364V15H3.54545V5.69886H3.47727L0.8125 7.36932V5.1875L3.69318 3.36364H6.00568ZM8.19949 3.36364H11.2336L14.4381 11.1818H14.5745L17.779 3.36364H20.8131V15H18.4268V7.42614H18.3302L15.3188 14.9432H13.6938L10.6824 7.39773H10.5859V15H8.19949V3.36364ZM22.2001 15V3.36364H26.8592C27.7153 3.36364 28.4293 3.49053 29.0012 3.74432C29.5732 3.99811 30.0031 4.35038 30.291 4.80114C30.5789 5.24811 30.7228 5.76326 30.7228 6.34659C30.7228 6.80114 30.6319 7.20076 30.4501 7.54545C30.2683 7.88636 30.0183 8.16667 29.7001 8.38636C29.3857 8.60227 29.0259 8.75568 28.6206 8.84659V8.96023C29.0637 8.97917 29.4785 9.10417 29.8649 9.33523C30.255 9.56629 30.5713 9.89015 30.8137 10.3068C31.0562 10.7197 31.1774 11.2121 31.1774 11.7841C31.1774 12.4015 31.024 12.9527 30.7172 13.4375C30.4141 13.9186 29.9653 14.2992 29.3706 14.5795C28.7759 14.8598 28.0429 15 27.1717 15H22.2001ZM24.6603 12.9886H26.666C27.3516 12.9886 27.8516 12.858 28.166 12.5966C28.4804 12.3314 28.6376 11.9792 28.6376 11.5398C28.6376 11.2178 28.56 10.9337 28.4047 10.6875C28.2494 10.4413 28.0278 10.2481 27.7399 10.108C27.4558 9.9678 27.1168 9.89773 26.7228 9.89773H24.6603V12.9886ZM24.6603 8.23295H26.4842C26.8213 8.23295 27.1206 8.17424 27.3819 8.05682C27.6471 7.93561 27.8554 7.76515 28.0069 7.54545C28.1622 7.32576 28.2399 7.0625 28.2399 6.75568C28.2399 6.33523 28.0903 5.99621 27.791 5.73864C27.4956 5.48106 27.0751 5.35227 26.5297 5.35227H24.6603V8.23295Z" fill="url(#paint0_radial_1497_72)"/>
<defs>
<radialGradient id="paint0_radial_1497_72" cx="0" cy="0" r="1" gradientUnits="userSpaceOnUse" gradientTransform="translate(16 16) rotate(90) scale(16)">
<stop offset="0.453125" stop-color="#6C26FF"/>
<stop offset="1" stop-color="#BA26FF"/>
</radialGradient>
</defs>
</svg>
