<svg width="32" height="32" viewBox="0 0 32 32" fill="none" xmlns="http://www.w3.org/2000/svg">
<path d="M0 4.8C0 2.14903 2.14903 0 4.8 0H27.2C29.851 0 32 2.14903 32 4.8V27.2C32 29.851 29.851 32 27.2 32H4.8C2.14903 32 0 29.851 0 27.2V4.8Z" fill="url(#paint0_radial_1458_601)"/>
<path d="M4.4375 20V11.8545H7.34091C7.97462 11.8545 8.49962 11.9699 8.91591 12.2006C9.3322 12.4312 9.64375 12.7468 9.85057 13.1471C10.0574 13.5449 10.1608 13.993 10.1608 14.4915C10.1608 14.9926 10.0561 15.4434 9.84659 15.8437C9.63977 16.2415 9.32689 16.557 8.90795 16.7903C8.49167 17.021 7.96799 17.1363 7.33693 17.1363H5.34034V16.0943H7.22557C7.62595 16.0943 7.95076 16.0254 8.2 15.8875C8.44924 15.747 8.6322 15.556 8.74886 15.3148C8.86553 15.0735 8.92386 14.799 8.92386 14.4915C8.92386 14.1839 8.86553 13.9108 8.74886 13.6721C8.6322 13.4335 8.44792 13.2466 8.19602 13.1113C7.94678 12.9761 7.61799 12.9085 7.20966 12.9085H5.66648V20H4.4375Z" fill="black"/>
<path d="M4.4375 20V11.8545H7.34091C7.97462 11.8545 8.49962 11.9699 8.91591 12.2006C9.3322 12.4312 9.64375 12.7468 9.85057 13.1471C10.0574 13.5449 10.1608 13.993 10.1608 14.4915C10.1608 14.9926 10.0561 15.4434 9.84659 15.8437C9.63977 16.2415 9.32689 16.557 8.90795 16.7903C8.49167 17.021 7.96799 17.1363 7.33693 17.1363H5.34034V16.0943H7.22557C7.62595 16.0943 7.95076 16.0254 8.2 15.8875C8.44924 15.747 8.6322 15.556 8.74886 15.3148C8.86553 15.0735 8.92386 14.799 8.92386 14.4915C8.92386 14.1839 8.86553 13.9108 8.74886 13.6721C8.6322 13.4335 8.44792 13.2466 8.19602 13.1113C7.94678 12.9761 7.61799 12.9085 7.20966 12.9085H5.66648V20H4.4375Z" fill="white"/>
<path d="M18.8149 14.5034H17.574C17.5263 14.2382 17.4374 14.0049 17.3075 13.8034C17.1776 13.6019 17.0185 13.4309 16.8302 13.2903C16.642 13.1498 16.4312 13.0437 16.1979 12.9721C15.9672 12.9006 15.7219 12.8648 15.4621 12.8648C14.9927 12.8648 14.5725 12.9827 14.2013 13.2187C13.8327 13.4547 13.541 13.8007 13.3263 14.2568C13.1141 14.7129 13.0081 15.2697 13.0081 15.9273C13.0081 16.5901 13.1141 17.1496 13.3263 17.6057C13.541 18.0617 13.834 18.4064 14.2052 18.6398C14.5765 18.8731 14.9941 18.9898 15.4581 18.9898C15.7153 18.9898 15.9592 18.9553 16.1899 18.8863C16.4232 18.8148 16.634 18.71 16.8223 18.5721C17.0105 18.4343 17.1696 18.2659 17.2996 18.067C17.4321 17.8655 17.5236 17.6348 17.574 17.375L18.8149 17.379C18.7486 17.7793 18.62 18.1479 18.4291 18.4846C18.2409 18.8187 17.9982 19.1077 17.7013 19.3517C17.4069 19.593 17.0702 19.7799 16.691 19.9125C16.3119 20.0451 15.8982 20.1113 15.4501 20.1113C14.7448 20.1113 14.1164 19.9443 13.5649 19.6102C13.0134 19.2735 12.5785 18.7922 12.2604 18.1665C11.9448 17.5407 11.7871 16.7943 11.7871 15.9273C11.7871 15.0576 11.9462 14.3112 12.2643 13.6881C12.5825 13.0623 13.0174 12.5824 13.5689 12.2483C14.1204 11.9115 14.7475 11.7432 15.4501 11.7432C15.8823 11.7432 16.2854 11.8055 16.6592 11.9301C17.0357 12.0521 17.3738 12.2324 17.6734 12.471C17.973 12.707 18.221 12.996 18.4172 13.3381C18.6134 13.6774 18.746 14.0659 18.8149 14.5034Z" fill="black"/>
<path d="M18.8149 14.5034H17.574C17.5263 14.2382 17.4374 14.0049 17.3075 13.8034C17.1776 13.6019 17.0185 13.4309 16.8302 13.2903C16.642 13.1498 16.4312 13.0437 16.1979 12.9721C15.9672 12.9006 15.7219 12.8648 15.4621 12.8648C14.9927 12.8648 14.5725 12.9827 14.2013 13.2187C13.8327 13.4547 13.541 13.8007 13.3263 14.2568C13.1141 14.7129 13.0081 15.2697 13.0081 15.9273C13.0081 16.5901 13.1141 17.1496 13.3263 17.6057C13.541 18.0617 13.834 18.4064 14.2052 18.6398C14.5765 18.8731 14.9941 18.9898 15.4581 18.9898C15.7153 18.9898 15.9592 18.9553 16.1899 18.8863C16.4232 18.8148 16.634 18.71 16.8223 18.5721C17.0105 18.4343 17.1696 18.2659 17.2996 18.067C17.4321 17.8655 17.5236 17.6348 17.574 17.375L18.8149 17.379C18.7486 17.7793 18.62 18.1479 18.4291 18.4846C18.2409 18.8187 17.9982 19.1077 17.7013 19.3517C17.4069 19.593 17.0702 19.7799 16.691 19.9125C16.3119 20.0451 15.8982 20.1113 15.4501 20.1113C14.7448 20.1113 14.1164 19.9443 13.5649 19.6102C13.0134 19.2735 12.5785 18.7922 12.2604 18.1665C11.9448 17.5407 11.7871 16.7943 11.7871 15.9273C11.7871 15.0576 11.9462 14.3112 12.2643 13.6881C12.5825 13.0623 13.0174 12.5824 13.5689 12.2483C14.1204 11.9115 14.7475 11.7432 15.4501 11.7432C15.8823 11.7432 16.2854 11.8055 16.6592 11.9301C17.0357 12.0521 17.3738 12.2324 17.6734 12.471C17.973 12.707 18.221 12.996 18.4172 13.3381C18.6134 13.6774 18.746 14.0659 18.8149 14.5034Z" fill="white"/>
<path d="M27.8091 15.9273C27.8091 16.797 27.65 17.5447 27.3318 18.1704C27.0136 18.7935 26.5774 19.2735 26.0233 19.6102C25.4718 19.9443 24.8447 20.1113 24.142 20.1113C23.4367 20.1113 22.807 19.9443 22.2528 19.6102C21.7013 19.2735 21.2665 18.7922 20.9483 18.1665C20.6301 17.5407 20.471 16.7943 20.471 15.9273C20.471 15.0576 20.6301 14.3112 20.9483 13.6881C21.2665 13.0623 21.7013 12.5824 22.2528 12.2483C22.807 11.9115 23.4367 11.7432 24.142 11.7432C24.8447 11.7432 25.4718 11.9115 26.0233 12.2483C26.5774 12.5824 27.0136 13.0623 27.3318 13.6881C27.65 14.3112 27.8091 15.0576 27.8091 15.9273ZM26.592 15.9273C26.592 15.2644 26.4846 14.7062 26.2699 14.2528C26.0577 13.7968 25.7661 13.4521 25.3949 13.2187C25.0263 12.9827 24.6087 12.8648 24.142 12.8648C23.6727 12.8648 23.2538 12.9827 22.8852 13.2187C22.5166 13.4521 22.225 13.7968 22.0102 14.2528C21.7981 14.7062 21.692 15.2644 21.692 15.9273C21.692 16.5901 21.7981 17.1496 22.0102 17.6057C22.225 18.0591 22.5166 18.4038 22.8852 18.6398C23.2538 18.8731 23.6727 18.9898 24.142 18.9898C24.6087 18.9898 25.0263 18.8731 25.3949 18.6398C25.7661 18.4038 26.0577 18.0591 26.2699 17.6057C26.4846 17.1496 26.592 16.5901 26.592 15.9273Z" fill="black"/>
<path d="M27.8091 15.9273C27.8091 16.797 27.65 17.5447 27.3318 18.1704C27.0136 18.7935 26.5774 19.2735 26.0233 19.6102C25.4718 19.9443 24.8447 20.1113 24.142 20.1113C23.4367 20.1113 22.807 19.9443 22.2528 19.6102C21.7013 19.2735 21.2665 18.7922 20.9483 18.1665C20.6301 17.5407 20.471 16.7943 20.471 15.9273C20.471 15.0576 20.6301 14.3112 20.9483 13.6881C21.2665 13.0623 21.7013 12.5824 22.2528 12.2483C22.807 11.9115 23.4367 11.7432 24.142 11.7432C24.8447 11.7432 25.4718 11.9115 26.0233 12.2483C26.5774 12.5824 27.0136 13.0623 27.3318 13.6881C27.65 14.3112 27.8091 15.0576 27.8091 15.9273ZM26.592 15.9273C26.592 15.2644 26.4846 14.7062 26.2699 14.2528C26.0577 13.7968 25.7661 13.4521 25.3949 13.2187C25.0263 12.9827 24.6087 12.8648 24.142 12.8648C23.6727 12.8648 23.2538 12.9827 22.8852 13.2187C22.5166 13.4521 22.225 13.7968 22.0102 14.2528C21.7981 14.7062 21.692 15.2644 21.692 15.9273C21.692 16.5901 21.7981 17.1496 22.0102 17.6057C22.225 18.0591 22.5166 18.4038 22.8852 18.6398C23.2538 18.8731 23.6727 18.9898 24.142 18.9898C24.6087 18.9898 25.0263 18.8731 25.3949 18.6398C25.7661 18.4038 26.0577 18.0591 26.2699 17.6057C26.4846 17.1496 26.592 16.5901 26.592 15.9273Z" fill="white"/>
<defs>
<radialGradient id="paint0_radial_1458_601" cx="0" cy="0" r="1" gradientUnits="userSpaceOnUse" gradientTransform="translate(21.6 21.6) rotate(53.9149) scale(29.2027)">
<stop offset="0.25" stop-color="#000D84"/>
<stop offset="1"/>
</radialGradient>
</defs>
</svg>
