<svg width="277" height="468" viewBox="0 0 277 468" fill="none" xmlns="http://www.w3.org/2000/svg">
<path d="M147.42 425.636C147.42 426.557 147.254 427.352 146.922 428.023C146.589 428.693 146.134 429.21 145.554 429.574C144.974 429.938 144.313 430.119 143.568 430.119C142.824 430.119 142.162 429.938 141.582 429.574C141.003 429.21 140.547 428.693 140.214 428.023C139.882 427.352 139.716 426.557 139.716 425.636C139.716 424.716 139.882 423.92 140.214 423.25C140.547 422.58 141.003 422.062 141.582 421.699C142.162 421.335 142.824 421.153 143.568 421.153C144.313 421.153 144.974 421.335 145.554 421.699C146.134 422.062 146.589 422.58 146.922 423.25C147.254 423.92 147.42 424.716 147.42 425.636ZM146.398 425.636C146.398 424.881 146.271 424.243 146.018 423.723C145.768 423.203 145.429 422.81 145 422.543C144.574 422.276 144.097 422.142 143.568 422.142C143.04 422.142 142.561 422.276 142.132 422.543C141.706 422.81 141.366 423.203 141.114 423.723C140.864 424.243 140.739 424.881 140.739 425.636C140.739 426.392 140.864 427.03 141.114 427.55C141.366 428.07 141.706 428.463 142.132 428.73C142.561 428.997 143.04 429.131 143.568 429.131C144.097 429.131 144.574 428.997 145 428.73C145.429 428.463 145.768 428.07 146.018 427.55C146.271 427.03 146.398 426.392 146.398 425.636ZM148.874 430V429.233L152.589 424.46V424.392H148.993V423.455H153.885V424.256L150.271 428.994V429.062H154.004V430H148.874ZM158.025 430.136C157.434 430.136 156.915 429.996 156.469 429.714C156.026 429.433 155.68 429.04 155.43 428.534C155.183 428.028 155.059 427.437 155.059 426.761C155.059 426.08 155.183 425.484 155.43 424.976C155.68 424.467 156.026 424.072 156.469 423.791C156.915 423.51 157.434 423.369 158.025 423.369C158.616 423.369 159.133 423.51 159.576 423.791C160.022 424.072 160.369 424.467 160.616 424.976C160.866 425.484 160.991 426.08 160.991 426.761C160.991 427.437 160.866 428.028 160.616 428.534C160.369 429.04 160.022 429.433 159.576 429.714C159.133 429.996 158.616 430.136 158.025 430.136ZM158.025 429.233C158.474 429.233 158.843 429.118 159.133 428.888C159.423 428.658 159.637 428.355 159.776 427.98C159.915 427.605 159.985 427.199 159.985 426.761C159.985 426.324 159.915 425.916 159.776 425.538C159.637 425.161 159.423 424.855 159.133 424.622C158.843 424.389 158.474 424.273 158.025 424.273C157.576 424.273 157.207 424.389 156.917 424.622C156.627 424.855 156.413 425.161 156.273 425.538C156.134 425.916 156.065 426.324 156.065 426.761C156.065 427.199 156.134 427.605 156.273 427.98C156.413 428.355 156.627 428.658 156.917 428.888C157.207 429.118 157.576 429.233 158.025 429.233ZM163.532 426.062V430H162.526V423.455H163.498V424.477H163.583C163.736 424.145 163.969 423.878 164.282 423.676C164.594 423.472 164.998 423.369 165.492 423.369C165.935 423.369 166.323 423.46 166.655 423.642C166.988 423.821 167.246 424.094 167.431 424.46C167.615 424.824 167.708 425.284 167.708 425.841V430H166.702V425.909C166.702 425.395 166.569 424.994 166.301 424.707C166.034 424.418 165.668 424.273 165.202 424.273C164.881 424.273 164.594 424.342 164.341 424.482C164.091 424.621 163.894 424.824 163.749 425.091C163.604 425.358 163.532 425.682 163.532 426.062ZM172.29 430.136C171.659 430.136 171.115 429.997 170.658 429.719C170.203 429.438 169.852 429.045 169.605 428.543C169.361 428.037 169.239 427.449 169.239 426.778C169.239 426.108 169.361 425.517 169.605 425.006C169.852 424.491 170.196 424.091 170.636 423.804C171.08 423.514 171.597 423.369 172.188 423.369C172.528 423.369 172.865 423.426 173.197 423.54C173.53 423.653 173.832 423.838 174.105 424.094C174.378 424.347 174.595 424.682 174.757 425.099C174.919 425.517 175 426.031 175 426.642V427.068H169.955V426.199H173.977C173.977 425.83 173.903 425.5 173.756 425.21C173.611 424.92 173.403 424.692 173.134 424.524C172.866 424.357 172.551 424.273 172.188 424.273C171.787 424.273 171.44 424.372 171.148 424.571C170.858 424.767 170.635 425.023 170.479 425.338C170.322 425.653 170.244 425.991 170.244 426.352V426.932C170.244 427.426 170.33 427.845 170.5 428.189C170.673 428.53 170.913 428.79 171.22 428.969C171.527 429.145 171.884 429.233 172.29 429.233C172.554 429.233 172.793 429.196 173.006 429.122C173.222 429.045 173.408 428.932 173.564 428.781C173.72 428.628 173.841 428.437 173.926 428.21L174.898 428.483C174.795 428.812 174.624 429.102 174.382 429.352C174.141 429.599 173.842 429.793 173.487 429.932C173.132 430.068 172.733 430.136 172.29 430.136Z" fill="white"/>
<path d="M1.60227 429V428.489L3.52273 426.386C3.74811 426.14 3.93371 425.926 4.07955 425.744C4.22538 425.561 4.33333 425.388 4.40341 425.227C4.47538 425.064 4.51136 424.894 4.51136 424.716C4.51136 424.511 4.46212 424.334 4.36364 424.185C4.26705 424.035 4.13447 423.92 3.96591 423.838C3.79735 423.757 3.60795 423.716 3.39773 423.716C3.17424 423.716 2.97917 423.762 2.8125 423.855C2.64773 423.946 2.51989 424.074 2.42898 424.239C2.33996 424.403 2.29545 424.597 2.29545 424.818H1.625C1.625 424.477 1.7036 424.178 1.8608 423.92C2.01799 423.663 2.23201 423.462 2.50284 423.318C2.77557 423.174 3.08144 423.102 3.42045 423.102C3.76136 423.102 4.06345 423.174 4.3267 423.318C4.58996 423.462 4.7964 423.656 4.94602 423.901C5.09564 424.145 5.17045 424.417 5.17045 424.716C5.17045 424.93 5.13163 425.139 5.05398 425.344C4.97822 425.546 4.84564 425.773 4.65625 426.023C4.46875 426.271 4.20833 426.574 3.875 426.932L2.56818 428.33V428.375H5.27273V429H1.60227ZM8.34375 429.08C7.91572 429.08 7.55114 428.963 7.25 428.73C6.94886 428.495 6.71875 428.155 6.55966 427.71C6.40057 427.263 6.32102 426.723 6.32102 426.091C6.32102 425.462 6.40057 424.925 6.55966 424.48C6.72064 424.033 6.9517 423.692 7.25284 423.457C7.55587 423.221 7.91951 423.102 8.34375 423.102C8.76799 423.102 9.13068 423.221 9.43182 423.457C9.73485 423.692 9.96591 424.033 10.125 424.48C10.286 424.925 10.3665 425.462 10.3665 426.091C10.3665 426.723 10.2869 427.263 10.1278 427.71C9.96875 428.155 9.73864 428.495 9.4375 428.73C9.13636 428.963 8.77178 429.08 8.34375 429.08ZM8.34375 428.455C8.76799 428.455 9.09754 428.25 9.33239 427.841C9.56723 427.432 9.68466 426.848 9.68466 426.091C9.68466 425.587 9.63068 425.158 9.52273 424.804C9.41667 424.45 9.26326 424.18 9.0625 423.994C8.86364 423.809 8.62405 423.716 8.34375 423.716C7.9233 423.716 7.5947 423.923 7.35795 424.338C7.12121 424.751 7.00284 425.335 7.00284 426.091C7.00284 426.595 7.05587 427.023 7.16193 427.375C7.26799 427.727 7.42045 427.995 7.61932 428.179C7.82008 428.363 8.06155 428.455 8.34375 428.455ZM13.9574 425.778V426.403H11.4119V425.778H13.9574ZM16.9979 429.08C16.6229 429.08 16.2886 429.015 15.995 428.886C15.7034 428.758 15.4714 428.579 15.299 428.349C15.1286 428.118 15.0357 427.85 15.0206 427.545H15.7365C15.7517 427.733 15.8161 427.895 15.9297 428.031C16.0433 428.166 16.192 428.27 16.3757 428.344C16.5594 428.418 16.763 428.455 16.9865 428.455C17.2365 428.455 17.4581 428.411 17.6513 428.324C17.8445 428.237 17.996 428.116 18.1058 427.96C18.2157 427.805 18.2706 427.625 18.2706 427.42C18.2706 427.206 18.2176 427.018 18.1115 426.855C18.0054 426.69 17.8501 426.562 17.6456 426.469C17.4411 426.376 17.1911 426.33 16.8956 426.33H16.4297V425.705H16.8956C17.1267 425.705 17.3293 425.663 17.5036 425.58C17.6797 425.496 17.817 425.379 17.9155 425.227C18.0159 425.076 18.0661 424.898 18.0661 424.693C18.0661 424.496 18.0225 424.325 17.9354 424.179C17.8482 424.033 17.7251 423.92 17.5661 423.838C17.4089 423.757 17.2232 423.716 17.0092 423.716C16.8085 423.716 16.6191 423.753 16.4411 423.827C16.2649 423.899 16.121 424.004 16.0092 424.142C15.8975 424.278 15.8369 424.443 15.8274 424.636H15.1456C15.157 424.331 15.2488 424.064 15.4212 423.835C15.5935 423.604 15.8189 423.424 16.0973 423.295C16.3776 423.167 16.6854 423.102 17.0206 423.102C17.3804 423.102 17.6892 423.175 17.9467 423.321C18.2043 423.465 18.4022 423.655 18.5405 423.892C18.6787 424.129 18.7479 424.384 18.7479 424.659C18.7479 424.987 18.6617 425.266 18.4893 425.497C18.3189 425.728 18.0869 425.888 17.7933 425.977V426.023C18.1607 426.083 18.4477 426.24 18.6541 426.491C18.8606 426.741 18.9638 427.051 18.9638 427.42C18.9638 427.737 18.8776 428.021 18.7053 428.273C18.5348 428.523 18.3018 428.72 18.0064 428.864C17.7109 429.008 17.3748 429.08 16.9979 429.08ZM22.0234 429.08C21.5954 429.08 21.2308 428.963 20.9297 428.73C20.6286 428.495 20.3984 428.155 20.2393 427.71C20.0803 427.263 20.0007 426.723 20.0007 426.091C20.0007 425.462 20.0803 424.925 20.2393 424.48C20.4003 424.033 20.6314 423.692 20.9325 423.457C21.2356 423.221 21.5992 423.102 22.0234 423.102C22.4477 423.102 22.8104 423.221 23.1115 423.457C23.4145 423.692 23.6456 424.033 23.8047 424.48C23.9657 424.925 24.0462 425.462 24.0462 426.091C24.0462 426.723 23.9666 427.263 23.8075 427.71C23.6484 428.155 23.4183 428.495 23.1172 428.73C22.8161 428.963 22.4515 429.08 22.0234 429.08ZM22.0234 428.455C22.4477 428.455 22.7772 428.25 23.0121 427.841C23.2469 427.432 23.3643 426.848 23.3643 426.091C23.3643 425.587 23.3104 425.158 23.2024 424.804C23.0964 424.45 22.9429 424.18 22.7422 423.994C22.5433 423.809 22.3037 423.716 22.0234 423.716C21.603 423.716 21.2744 423.923 21.0376 424.338C20.8009 424.751 20.6825 425.335 20.6825 426.091C20.6825 426.595 20.7356 427.023 20.8416 427.375C20.9477 427.727 21.1001 427.995 21.299 428.179C21.4998 428.363 21.7412 428.455 22.0234 428.455Z" fill="white"/>
<line y1="416.5" x2="277" y2="416.5" stroke="white" stroke-opacity="0.2"/>
<path d="M144.83 344.455C144.778 344.023 144.571 343.688 144.207 343.449C143.844 343.21 143.398 343.091 142.869 343.091C142.483 343.091 142.145 343.153 141.855 343.278C141.568 343.403 141.344 343.575 141.182 343.794C141.023 344.013 140.943 344.261 140.943 344.54C140.943 344.773 140.999 344.973 141.109 345.141C141.223 345.305 141.368 345.443 141.544 345.554C141.72 345.662 141.905 345.751 142.098 345.822C142.291 345.891 142.469 345.946 142.631 345.989L143.517 346.227C143.744 346.287 143.997 346.369 144.276 346.474C144.557 346.58 144.825 346.723 145.081 346.905C145.339 347.084 145.553 347.314 145.72 347.595C145.888 347.876 145.972 348.222 145.972 348.631C145.972 349.102 145.848 349.528 145.601 349.909C145.357 350.29 144.999 350.592 144.527 350.817C144.058 351.041 143.489 351.153 142.818 351.153C142.193 351.153 141.652 351.053 141.195 350.851C140.74 350.649 140.382 350.368 140.121 350.007C139.862 349.646 139.716 349.227 139.682 348.75H140.773C140.801 349.08 140.912 349.352 141.105 349.568C141.301 349.781 141.548 349.94 141.847 350.045C142.148 350.148 142.472 350.199 142.818 350.199C143.222 350.199 143.584 350.134 143.905 350.003C144.226 349.869 144.48 349.685 144.668 349.449C144.855 349.21 144.949 348.932 144.949 348.614C144.949 348.324 144.868 348.088 144.706 347.906C144.544 347.724 144.331 347.577 144.067 347.463C143.803 347.349 143.517 347.25 143.21 347.165L142.136 346.858C141.455 346.662 140.915 346.382 140.517 346.018C140.119 345.655 139.92 345.179 139.92 344.591C139.92 344.102 140.053 343.676 140.317 343.312C140.584 342.946 140.942 342.662 141.391 342.46C141.842 342.256 142.347 342.153 142.903 342.153C143.466 342.153 143.966 342.254 144.403 342.456C144.841 342.655 145.188 342.928 145.443 343.274C145.702 343.621 145.838 344.014 145.852 344.455H144.83ZM150.232 351.136C149.641 351.136 149.123 350.996 148.676 350.714C148.233 350.433 147.887 350.04 147.637 349.534C147.39 349.028 147.266 348.437 147.266 347.761C147.266 347.08 147.39 346.484 147.637 345.976C147.887 345.467 148.233 345.072 148.676 344.791C149.123 344.51 149.641 344.369 150.232 344.369C150.823 344.369 151.34 344.51 151.783 344.791C152.229 345.072 152.576 345.467 152.823 345.976C153.073 346.484 153.198 347.08 153.198 347.761C153.198 348.437 153.073 349.028 152.823 349.534C152.576 350.04 152.229 350.433 151.783 350.714C151.34 350.996 150.823 351.136 150.232 351.136ZM150.232 350.233C150.681 350.233 151.05 350.118 151.34 349.888C151.63 349.658 151.844 349.355 151.983 348.98C152.123 348.605 152.192 348.199 152.192 347.761C152.192 347.324 152.123 346.916 151.983 346.538C151.844 346.161 151.63 345.855 151.34 345.622C151.05 345.389 150.681 345.273 150.232 345.273C149.783 345.273 149.414 345.389 149.124 345.622C148.834 345.855 148.62 346.161 148.48 346.538C148.341 346.916 148.272 347.324 148.272 347.761C148.272 348.199 148.341 348.605 148.48 348.98C148.62 349.355 148.834 349.658 149.124 349.888C149.414 350.118 149.783 350.233 150.232 350.233ZM157.205 351.136C156.659 351.136 156.178 350.999 155.76 350.723C155.342 350.445 155.016 350.053 154.78 349.547C154.544 349.038 154.426 348.438 154.426 347.744C154.426 347.057 154.544 346.46 154.78 345.955C155.016 345.449 155.344 345.058 155.764 344.783C156.185 344.507 156.67 344.369 157.222 344.369C157.648 344.369 157.984 344.44 158.232 344.582C158.482 344.722 158.672 344.881 158.803 345.06C158.936 345.236 159.04 345.381 159.114 345.494H159.199V342.273H160.205V351H159.233V349.994H159.114C159.04 350.114 158.935 350.264 158.798 350.446C158.662 350.625 158.467 350.786 158.214 350.928C157.962 351.067 157.625 351.136 157.205 351.136ZM157.341 350.233C157.744 350.233 158.085 350.128 158.364 349.918C158.642 349.705 158.854 349.411 158.999 349.036C159.143 348.658 159.216 348.222 159.216 347.727C159.216 347.239 159.145 346.811 159.003 346.445C158.861 346.075 158.651 345.788 158.372 345.584C158.094 345.376 157.75 345.273 157.341 345.273C156.915 345.273 156.56 345.382 156.276 345.601C155.994 345.817 155.783 346.111 155.641 346.483C155.501 346.852 155.432 347.267 155.432 347.727C155.432 348.193 155.503 348.616 155.645 348.997C155.79 349.375 156.003 349.676 156.284 349.901C156.568 350.122 156.92 350.233 157.341 350.233ZM162.186 351V344.455H163.192V351H162.186ZM162.697 343.364C162.501 343.364 162.332 343.297 162.19 343.163C162.051 343.03 161.982 342.869 161.982 342.682C161.982 342.494 162.051 342.334 162.19 342.2C162.332 342.067 162.501 342 162.697 342C162.893 342 163.061 342.067 163.2 342.2C163.342 342.334 163.413 342.494 163.413 342.682C163.413 342.869 163.342 343.03 163.2 343.163C163.061 343.297 162.893 343.364 162.697 343.364ZM169.159 348.324V344.455H170.164V351H169.159V349.892H169.091C168.937 350.224 168.699 350.507 168.375 350.74C168.051 350.97 167.642 351.085 167.147 351.085C166.738 351.085 166.375 350.996 166.056 350.817C165.738 350.635 165.488 350.362 165.306 349.999C165.125 349.632 165.034 349.17 165.034 348.614V344.455H166.039V348.545C166.039 349.023 166.173 349.403 166.44 349.688C166.71 349.972 167.054 350.114 167.471 350.114C167.721 350.114 167.975 350.05 168.234 349.922C168.495 349.794 168.714 349.598 168.89 349.334C169.069 349.07 169.159 348.733 169.159 348.324ZM172.006 351V344.455H172.978V345.477H173.063C173.2 345.128 173.42 344.857 173.724 344.663C174.028 344.467 174.393 344.369 174.819 344.369C175.251 344.369 175.61 344.467 175.897 344.663C176.187 344.857 176.413 345.128 176.575 345.477H176.643C176.81 345.139 177.062 344.871 177.397 344.672C177.732 344.47 178.134 344.369 178.603 344.369C179.188 344.369 179.667 344.553 180.039 344.919C180.411 345.283 180.597 345.849 180.597 346.619V351H179.592V346.619C179.592 346.136 179.46 345.791 179.195 345.584C178.931 345.376 178.62 345.273 178.262 345.273C177.802 345.273 177.445 345.412 177.192 345.69C176.94 345.966 176.813 346.315 176.813 346.739V351H175.79V346.517C175.79 346.145 175.67 345.845 175.428 345.618C175.187 345.388 174.876 345.273 174.495 345.273C174.234 345.273 173.989 345.342 173.762 345.482C173.538 345.621 173.356 345.814 173.217 346.061C173.08 346.305 173.012 346.588 173.012 346.909V351H172.006ZM193.311 346.636C193.311 347.557 193.145 348.352 192.812 349.023C192.48 349.693 192.024 350.21 191.445 350.574C190.865 350.938 190.203 351.119 189.459 351.119C188.714 351.119 188.053 350.938 187.473 350.574C186.893 350.21 186.438 349.693 186.105 349.023C185.773 348.352 185.607 347.557 185.607 346.636C185.607 345.716 185.773 344.92 186.105 344.25C186.438 343.58 186.893 343.062 187.473 342.699C188.053 342.335 188.714 342.153 189.459 342.153C190.203 342.153 190.865 342.335 191.445 342.699C192.024 343.062 192.48 343.58 192.812 344.25C193.145 344.92 193.311 345.716 193.311 346.636ZM192.288 346.636C192.288 345.881 192.162 345.243 191.909 344.723C191.659 344.203 191.32 343.81 190.891 343.543C190.464 343.276 189.987 343.142 189.459 343.142C188.93 343.142 188.452 343.276 188.023 343.543C187.597 343.81 187.257 344.203 187.004 344.723C186.754 345.243 186.629 345.881 186.629 346.636C186.629 347.392 186.754 348.03 187.004 348.55C187.257 349.07 187.597 349.463 188.023 349.73C188.452 349.997 188.93 350.131 189.459 350.131C189.987 350.131 190.464 349.997 190.891 349.73C191.32 349.463 191.659 349.07 191.909 348.55C192.162 348.03 192.288 347.392 192.288 346.636ZM194.952 351V344.455H195.923V345.443H195.991C196.111 345.119 196.327 344.857 196.639 344.655C196.952 344.453 197.304 344.352 197.696 344.352C197.77 344.352 197.862 344.354 197.973 344.357C198.084 344.359 198.168 344.364 198.224 344.369V345.392C198.19 345.384 198.112 345.371 197.99 345.354C197.871 345.334 197.744 345.324 197.611 345.324C197.293 345.324 197.009 345.391 196.759 345.524C196.511 345.655 196.315 345.837 196.17 346.07C196.028 346.3 195.957 346.562 195.957 346.858V351H194.952ZM201.343 351.153C200.928 351.153 200.551 351.075 200.213 350.919C199.875 350.76 199.607 350.531 199.408 350.233C199.209 349.932 199.11 349.568 199.11 349.142C199.11 348.767 199.184 348.463 199.331 348.23C199.479 347.994 199.676 347.81 199.924 347.676C200.171 347.543 200.444 347.443 200.742 347.378C201.043 347.31 201.346 347.256 201.65 347.216C202.047 347.165 202.37 347.126 202.617 347.101C202.867 347.072 203.049 347.026 203.162 346.96C203.279 346.895 203.337 346.781 203.337 346.619V346.585C203.337 346.165 203.222 345.838 202.992 345.605C202.765 345.372 202.419 345.256 201.956 345.256C201.476 345.256 201.1 345.361 200.827 345.571C200.554 345.781 200.363 346.006 200.252 346.244L199.297 345.903C199.468 345.506 199.695 345.196 199.979 344.974C200.266 344.75 200.578 344.594 200.917 344.506C201.257 344.415 201.593 344.369 201.922 344.369C202.132 344.369 202.374 344.395 202.647 344.446C202.922 344.494 203.188 344.595 203.444 344.749C203.702 344.902 203.917 345.134 204.087 345.443C204.257 345.753 204.343 346.168 204.343 346.688V351H203.337V350.114H203.286C203.218 350.256 203.104 350.408 202.945 350.57C202.786 350.732 202.574 350.869 202.31 350.983C202.046 351.097 201.723 351.153 201.343 351.153ZM201.496 350.25C201.894 350.25 202.229 350.172 202.502 350.016C202.777 349.859 202.985 349.658 203.124 349.411C203.266 349.163 203.337 348.903 203.337 348.631V347.71C203.294 347.761 203.201 347.808 203.056 347.851C202.914 347.891 202.749 347.926 202.561 347.957C202.377 347.986 202.196 348.011 202.02 348.034C201.847 348.054 201.706 348.071 201.598 348.085C201.337 348.119 201.093 348.175 200.865 348.251C200.641 348.325 200.459 348.437 200.32 348.588C200.184 348.736 200.115 348.937 200.115 349.193C200.115 349.543 200.245 349.807 200.503 349.986C200.765 350.162 201.096 350.25 201.496 350.25ZM207.184 347.062V351H206.178V344.455H207.15V345.477H207.235C207.388 345.145 207.621 344.878 207.934 344.676C208.246 344.472 208.65 344.369 209.144 344.369C209.587 344.369 209.975 344.46 210.308 344.642C210.64 344.821 210.898 345.094 211.083 345.46C211.268 345.824 211.36 346.284 211.36 346.841V351H210.354V346.909C210.354 346.395 210.221 345.994 209.954 345.707C209.687 345.418 209.32 345.273 208.854 345.273C208.533 345.273 208.246 345.342 207.994 345.482C207.744 345.621 207.546 345.824 207.401 346.091C207.256 346.358 207.184 346.682 207.184 347.062ZM215.84 353.591C215.354 353.591 214.936 353.528 214.587 353.403C214.238 353.281 213.946 353.119 213.713 352.918C213.483 352.719 213.3 352.506 213.164 352.278L213.965 351.716C214.056 351.835 214.171 351.972 214.31 352.125C214.449 352.281 214.64 352.416 214.881 352.53C215.125 352.646 215.445 352.705 215.84 352.705C216.368 352.705 216.804 352.577 217.148 352.321C217.492 352.065 217.664 351.665 217.664 351.119V349.79H217.578C217.505 349.909 217.4 350.057 217.263 350.233C217.13 350.406 216.936 350.561 216.684 350.697C216.434 350.831 216.096 350.898 215.669 350.898C215.141 350.898 214.667 350.773 214.246 350.523C213.828 350.273 213.498 349.909 213.253 349.432C213.012 348.955 212.891 348.375 212.891 347.693C212.891 347.023 213.009 346.439 213.245 345.942C213.48 345.442 213.809 345.055 214.229 344.783C214.65 344.507 215.135 344.369 215.686 344.369C216.113 344.369 216.451 344.44 216.701 344.582C216.953 344.722 217.147 344.881 217.28 345.06C217.417 345.236 217.522 345.381 217.596 345.494H217.698V344.455H218.669V351.188C218.669 351.75 218.542 352.207 218.286 352.56C218.033 352.915 217.692 353.175 217.263 353.339C216.837 353.507 216.363 353.591 215.84 353.591ZM215.806 349.994C216.209 349.994 216.55 349.902 216.828 349.717C217.107 349.533 217.319 349.267 217.463 348.92C217.608 348.574 217.681 348.159 217.681 347.676C217.681 347.205 217.61 346.788 217.468 346.428C217.326 346.067 217.115 345.784 216.837 345.58C216.559 345.375 216.215 345.273 215.806 345.273C215.38 345.273 215.025 345.381 214.74 345.597C214.459 345.812 214.248 346.102 214.105 346.466C213.966 346.83 213.897 347.233 213.897 347.676C213.897 348.131 213.968 348.533 214.11 348.882C214.255 349.229 214.468 349.501 214.749 349.7C215.033 349.896 215.385 349.994 215.806 349.994ZM223.255 351.136C222.624 351.136 222.08 350.997 221.623 350.719C221.168 350.438 220.817 350.045 220.57 349.543C220.326 349.037 220.203 348.449 220.203 347.778C220.203 347.108 220.326 346.517 220.57 346.006C220.817 345.491 221.161 345.091 221.601 344.804C222.044 344.514 222.561 344.369 223.152 344.369C223.493 344.369 223.83 344.426 224.162 344.54C224.495 344.653 224.797 344.838 225.07 345.094C225.343 345.347 225.56 345.682 225.722 346.099C225.884 346.517 225.965 347.031 225.965 347.642V348.068H220.919V347.199H224.942C224.942 346.83 224.868 346.5 224.721 346.21C224.576 345.92 224.368 345.692 224.098 345.524C223.831 345.357 223.516 345.273 223.152 345.273C222.752 345.273 222.405 345.372 222.113 345.571C221.823 345.767 221.6 346.023 221.444 346.338C221.287 346.653 221.209 346.991 221.209 347.352V347.932C221.209 348.426 221.294 348.845 221.465 349.189C221.638 349.53 221.878 349.79 222.185 349.969C222.492 350.145 222.848 350.233 223.255 350.233C223.519 350.233 223.757 350.196 223.971 350.122C224.186 350.045 224.373 349.932 224.529 349.781C224.685 349.628 224.806 349.437 224.891 349.21L225.863 349.483C225.76 349.812 225.588 350.102 225.347 350.352C225.105 350.599 224.807 350.793 224.452 350.932C224.097 351.068 223.698 351.136 223.255 351.136Z" fill="white"/>
<path d="M3.45455 344.102C3.69318 344.104 3.93182 344.15 4.17045 344.239C4.40909 344.328 4.62689 344.475 4.82386 344.682C5.02083 344.886 5.17898 345.166 5.2983 345.52C5.41761 345.874 5.47727 346.318 5.47727 346.852C5.47727 347.369 5.42803 347.829 5.32955 348.23C5.23295 348.63 5.0928 348.967 4.90909 349.241C4.72727 349.516 4.50568 349.724 4.24432 349.866C3.98485 350.009 3.69129 350.08 3.36364 350.08C3.03788 350.08 2.74716 350.015 2.49148 349.886C2.23769 349.756 2.02936 349.575 1.86648 349.344C1.70549 349.111 1.60227 348.841 1.55682 348.534H2.25C2.3125 348.801 2.43655 349.022 2.62216 349.196C2.80966 349.368 3.05682 349.455 3.36364 349.455C3.8125 349.455 4.16667 349.259 4.42614 348.866C4.6875 348.474 4.81818 347.92 4.81818 347.205H4.77273C4.66667 347.364 4.54072 347.501 4.39489 347.616C4.24905 347.732 4.08712 347.821 3.90909 347.884C3.73106 347.946 3.54167 347.977 3.34091 347.977C3.00758 347.977 2.7017 347.895 2.4233 347.73C2.14678 347.563 1.92519 347.335 1.75852 347.045C1.59375 346.754 1.51136 346.42 1.51136 346.045C1.51136 345.689 1.59091 345.364 1.75 345.068C1.91098 344.771 2.13636 344.534 2.42614 344.358C2.7178 344.182 3.06061 344.097 3.45455 344.102ZM3.45455 344.727C3.21591 344.727 3.00095 344.787 2.80966 344.906C2.62027 345.024 2.4697 345.183 2.35795 345.384C2.24811 345.582 2.19318 345.803 2.19318 346.045C2.19318 346.288 2.24621 346.509 2.35227 346.707C2.46023 346.904 2.60701 347.062 2.79261 347.179C2.98011 347.295 3.19318 347.352 3.43182 347.352C3.61174 347.352 3.77936 347.317 3.93466 347.247C4.08996 347.175 4.22538 347.078 4.34091 346.955C4.45833 346.83 4.55019 346.688 4.61648 346.531C4.68277 346.372 4.71591 346.206 4.71591 346.034C4.71591 345.807 4.66098 345.594 4.55114 345.395C4.44318 345.196 4.29356 345.035 4.10227 344.912C3.91288 344.789 3.69697 344.727 3.45455 344.727ZM8.49219 350.08C8.06416 350.08 7.69957 349.963 7.39844 349.73C7.0973 349.495 6.86719 349.155 6.7081 348.71C6.54901 348.263 6.46946 347.723 6.46946 347.091C6.46946 346.462 6.54901 345.925 6.7081 345.48C6.86908 345.033 7.10014 344.692 7.40128 344.457C7.70431 344.221 8.06795 344.102 8.49219 344.102C8.91643 344.102 9.27912 344.221 9.58026 344.457C9.88329 344.692 10.1143 345.033 10.2734 345.48C10.4344 345.925 10.5149 346.462 10.5149 347.091C10.5149 347.723 10.4354 348.263 10.2763 348.71C10.1172 349.155 9.88707 349.495 9.58594 349.73C9.2848 349.963 8.92022 350.08 8.49219 350.08ZM8.49219 349.455C8.91643 349.455 9.24598 349.25 9.48082 348.841C9.71567 348.432 9.8331 347.848 9.8331 347.091C9.8331 346.587 9.77912 346.158 9.67116 345.804C9.5651 345.45 9.4117 345.18 9.21094 344.994C9.01207 344.809 8.77249 344.716 8.49219 344.716C8.07173 344.716 7.74313 344.923 7.50639 345.338C7.26965 345.751 7.15128 346.335 7.15128 347.091C7.15128 347.595 7.20431 348.023 7.31037 348.375C7.41643 348.727 7.56889 348.995 7.76776 349.179C7.96851 349.363 8.20999 349.455 8.49219 349.455Z" fill="white"/>
<line y1="337.5" x2="277" y2="337.5" stroke="white" stroke-opacity="0.2"/>
<path d="M147.42 303.636C147.42 304.557 147.254 305.352 146.922 306.023C146.589 306.693 146.134 307.21 145.554 307.574C144.974 307.938 144.313 308.119 143.568 308.119C142.824 308.119 142.162 307.938 141.582 307.574C141.003 307.21 140.547 306.693 140.214 306.023C139.882 305.352 139.716 304.557 139.716 303.636C139.716 302.716 139.882 301.92 140.214 301.25C140.547 300.58 141.003 300.062 141.582 299.699C142.162 299.335 142.824 299.153 143.568 299.153C144.313 299.153 144.974 299.335 145.554 299.699C146.134 300.062 146.589 300.58 146.922 301.25C147.254 301.92 147.42 302.716 147.42 303.636ZM146.398 303.636C146.398 302.881 146.271 302.243 146.018 301.723C145.768 301.203 145.429 300.81 145 300.543C144.574 300.276 144.097 300.142 143.568 300.142C143.04 300.142 142.561 300.276 142.132 300.543C141.706 300.81 141.366 301.203 141.114 301.723C140.864 302.243 140.739 302.881 140.739 303.636C140.739 304.392 140.864 305.03 141.114 305.55C141.366 306.07 141.706 306.463 142.132 306.73C142.561 306.997 143.04 307.131 143.568 307.131C144.097 307.131 144.574 306.997 145 306.73C145.429 306.463 145.768 306.07 146.018 305.55C146.271 305.03 146.398 304.392 146.398 303.636ZM149.811 301.455L151.379 304.131L152.947 301.455H154.107L151.993 304.727L154.107 308H152.947L151.379 305.46L149.811 308H148.652L150.732 304.727L148.652 301.455H149.811ZM156.189 310.455C156.019 310.455 155.867 310.44 155.733 310.412C155.6 310.386 155.507 310.361 155.456 310.335L155.712 309.449C155.956 309.511 156.172 309.534 156.36 309.517C156.547 309.5 156.713 309.416 156.858 309.266C157.006 309.118 157.141 308.878 157.263 308.545L157.451 308.034L155.03 301.455H156.121L157.928 306.67H157.996L159.803 301.455H160.894L158.115 308.955C157.99 309.293 157.836 309.572 157.651 309.794C157.466 310.018 157.252 310.185 157.007 310.293C156.766 310.401 156.493 310.455 156.189 310.455ZM164.629 310.591C164.143 310.591 163.725 310.528 163.376 310.403C163.027 310.281 162.735 310.119 162.502 309.918C162.272 309.719 162.089 309.506 161.953 309.278L162.754 308.716C162.845 308.835 162.96 308.972 163.099 309.125C163.238 309.281 163.429 309.416 163.67 309.53C163.914 309.646 164.234 309.705 164.629 309.705C165.157 309.705 165.593 309.577 165.937 309.321C166.281 309.065 166.453 308.665 166.453 308.119V306.79H166.368C166.294 306.909 166.189 307.057 166.052 307.233C165.919 307.406 165.725 307.561 165.473 307.697C165.223 307.831 164.885 307.898 164.458 307.898C163.93 307.898 163.456 307.773 163.035 307.523C162.618 307.273 162.287 306.909 162.042 306.432C161.801 305.955 161.68 305.375 161.68 304.693C161.68 304.023 161.798 303.439 162.034 302.942C162.27 302.442 162.598 302.055 163.018 301.783C163.439 301.507 163.924 301.369 164.475 301.369C164.902 301.369 165.24 301.44 165.49 301.582C165.743 301.722 165.936 301.881 166.069 302.06C166.206 302.236 166.311 302.381 166.385 302.494H166.487V301.455H167.458V308.188C167.458 308.75 167.331 309.207 167.075 309.56C166.822 309.915 166.481 310.175 166.052 310.339C165.626 310.507 165.152 310.591 164.629 310.591ZM164.595 306.994C164.998 306.994 165.339 306.902 165.618 306.717C165.896 306.533 166.108 306.267 166.252 305.92C166.397 305.574 166.47 305.159 166.47 304.676C166.47 304.205 166.399 303.788 166.257 303.428C166.115 303.067 165.904 302.784 165.626 302.58C165.348 302.375 165.004 302.273 164.595 302.273C164.169 302.273 163.814 302.381 163.529 302.597C163.248 302.812 163.037 303.102 162.895 303.466C162.755 303.83 162.686 304.233 162.686 304.676C162.686 305.131 162.757 305.533 162.899 305.882C163.044 306.229 163.257 306.501 163.538 306.7C163.822 306.896 164.174 306.994 164.595 306.994ZM172.044 308.136C171.413 308.136 170.869 307.997 170.412 307.719C169.957 307.438 169.606 307.045 169.359 306.543C169.115 306.037 168.993 305.449 168.993 304.778C168.993 304.108 169.115 303.517 169.359 303.006C169.606 302.491 169.95 302.091 170.39 301.804C170.833 301.514 171.35 301.369 171.941 301.369C172.282 301.369 172.619 301.426 172.951 301.54C173.284 301.653 173.586 301.838 173.859 302.094C174.132 302.347 174.349 302.682 174.511 303.099C174.673 303.517 174.754 304.031 174.754 304.642V305.068H169.708V304.199H173.731C173.731 303.83 173.657 303.5 173.51 303.21C173.365 302.92 173.157 302.692 172.887 302.524C172.62 302.357 172.305 302.273 171.941 302.273C171.541 302.273 171.194 302.372 170.902 302.571C170.612 302.767 170.389 303.023 170.233 303.338C170.076 303.653 169.998 303.991 169.998 304.352V304.932C169.998 305.426 170.083 305.845 170.254 306.189C170.427 306.53 170.667 306.79 170.974 306.969C171.281 307.145 171.637 307.233 172.044 307.233C172.308 307.233 172.547 307.196 172.76 307.122C172.975 307.045 173.162 306.932 173.318 306.781C173.474 306.628 173.595 306.437 173.68 306.21L174.652 306.483C174.549 306.812 174.377 307.102 174.136 307.352C173.895 307.599 173.596 307.793 173.241 307.932C172.886 308.068 172.487 308.136 172.044 308.136ZM177.289 304.062V308H176.284V301.455H177.255V302.477H177.341C177.494 302.145 177.727 301.878 178.039 301.676C178.352 301.472 178.755 301.369 179.25 301.369C179.693 301.369 180.081 301.46 180.413 301.642C180.745 301.821 181.004 302.094 181.189 302.46C181.373 302.824 181.466 303.284 181.466 303.841V308H180.46V303.909C180.46 303.395 180.326 302.994 180.059 302.707C179.792 302.418 179.426 302.273 178.96 302.273C178.639 302.273 178.352 302.342 178.099 302.482C177.849 302.621 177.652 302.824 177.507 303.091C177.362 303.358 177.289 303.682 177.289 304.062ZM192.781 302C192.687 301.713 192.563 301.456 192.41 301.229C192.259 300.999 192.079 300.803 191.869 300.641C191.661 300.479 191.425 300.355 191.161 300.27C190.897 300.185 190.607 300.142 190.292 300.142C189.775 300.142 189.305 300.276 188.881 300.543C188.458 300.81 188.121 301.203 187.871 301.723C187.621 302.243 187.496 302.881 187.496 303.636C187.496 304.392 187.623 305.03 187.876 305.55C188.129 306.07 188.471 306.463 188.903 306.73C189.335 306.997 189.82 307.131 190.36 307.131C190.86 307.131 191.3 307.024 191.681 306.811C192.065 306.595 192.363 306.291 192.576 305.899C192.792 305.504 192.9 305.04 192.9 304.506L193.224 304.574H190.599V303.636H193.923V304.574C193.923 305.293 193.769 305.918 193.462 306.449C193.158 306.98 192.738 307.392 192.201 307.685C191.667 307.974 191.053 308.119 190.36 308.119C189.587 308.119 188.908 307.938 188.323 307.574C187.741 307.21 187.286 306.693 186.96 306.023C186.636 305.352 186.474 304.557 186.474 303.636C186.474 302.946 186.566 302.325 186.751 301.774C186.938 301.22 187.202 300.749 187.543 300.359C187.884 299.97 188.288 299.672 188.754 299.464C189.219 299.257 189.732 299.153 190.292 299.153C190.752 299.153 191.181 299.223 191.579 299.362C191.979 299.499 192.336 299.693 192.648 299.946C192.964 300.196 193.227 300.496 193.437 300.845C193.647 301.192 193.792 301.577 193.871 302H192.781ZM195.596 308V301.455H196.568V302.443H196.636C196.755 302.119 196.971 301.857 197.284 301.655C197.596 301.453 197.949 301.352 198.341 301.352C198.414 301.352 198.507 301.354 198.618 301.357C198.728 301.359 198.812 301.364 198.869 301.369V302.392C198.835 302.384 198.757 302.371 198.635 302.354C198.515 302.334 198.389 302.324 198.255 302.324C197.937 302.324 197.653 302.391 197.403 302.524C197.156 302.655 196.96 302.837 196.815 303.07C196.673 303.3 196.602 303.562 196.602 303.858V308H195.596ZM202.606 308.136C201.975 308.136 201.431 307.997 200.974 307.719C200.52 307.438 200.169 307.045 199.922 306.543C199.677 306.037 199.555 305.449 199.555 304.778C199.555 304.108 199.677 303.517 199.922 303.006C200.169 302.491 200.512 302.091 200.953 301.804C201.396 301.514 201.913 301.369 202.504 301.369C202.845 301.369 203.181 301.426 203.514 301.54C203.846 301.653 204.149 301.838 204.422 302.094C204.694 302.347 204.912 302.682 205.074 303.099C205.235 303.517 205.316 304.031 205.316 304.642V305.068H200.271V304.199H204.294C204.294 303.83 204.22 303.5 204.072 303.21C203.927 302.92 203.72 302.692 203.45 302.524C203.183 302.357 202.868 302.273 202.504 302.273C202.103 302.273 201.757 302.372 201.464 302.571C201.174 302.767 200.951 303.023 200.795 303.338C200.639 303.653 200.561 303.991 200.561 304.352V304.932C200.561 305.426 200.646 305.845 200.816 306.189C200.99 306.53 201.23 306.79 201.537 306.969C201.843 307.145 202.2 307.233 202.606 307.233C202.87 307.233 203.109 307.196 203.322 307.122C203.538 307.045 203.724 306.932 203.88 306.781C204.037 306.628 204.157 306.437 204.243 306.21L205.214 306.483C205.112 306.812 204.94 307.102 204.699 307.352C204.457 307.599 204.159 307.793 203.804 307.932C203.449 308.068 203.049 308.136 202.606 308.136ZM209.591 308.136C208.96 308.136 208.416 307.997 207.958 307.719C207.504 307.438 207.153 307.045 206.906 306.543C206.662 306.037 206.539 305.449 206.539 304.778C206.539 304.108 206.662 303.517 206.906 303.006C207.153 302.491 207.497 302.091 207.937 301.804C208.38 301.514 208.897 301.369 209.488 301.369C209.829 301.369 210.166 301.426 210.498 301.54C210.831 301.653 211.133 301.838 211.406 302.094C211.679 302.347 211.896 302.682 212.058 303.099C212.22 303.517 212.301 304.031 212.301 304.642V305.068H207.255V304.199H211.278C211.278 303.83 211.204 303.5 211.056 303.21C210.912 302.92 210.704 302.692 210.434 302.524C210.167 302.357 209.852 302.273 209.488 302.273C209.088 302.273 208.741 302.372 208.449 302.571C208.159 302.767 207.936 303.023 207.779 303.338C207.623 303.653 207.545 303.991 207.545 304.352V304.932C207.545 305.426 207.63 305.845 207.801 306.189C207.974 306.53 208.214 306.79 208.521 306.969C208.828 307.145 209.184 307.233 209.591 307.233C209.855 307.233 210.093 307.196 210.306 307.122C210.522 307.045 210.708 306.932 210.865 306.781C211.021 306.628 211.142 306.437 211.227 306.21L212.199 306.483C212.096 306.812 211.924 307.102 211.683 307.352C211.441 307.599 211.143 307.793 210.788 307.932C210.433 308.068 210.034 308.136 209.591 308.136ZM214.836 304.062V308H213.831V301.455H214.802V302.477H214.887C215.041 302.145 215.274 301.878 215.586 301.676C215.899 301.472 216.302 301.369 216.797 301.369C217.24 301.369 217.627 301.46 217.96 301.642C218.292 301.821 218.551 302.094 218.735 302.46C218.92 302.824 219.012 303.284 219.012 303.841V308H218.007V303.909C218.007 303.395 217.873 302.994 217.606 302.707C217.339 302.418 216.973 302.273 216.507 302.273C216.186 302.273 215.899 302.342 215.646 302.482C215.396 302.621 215.199 302.824 215.054 303.091C214.909 303.358 214.836 303.682 214.836 304.062Z" fill="white"/>
<path d="M3.45455 301.102C3.69318 301.104 3.93182 301.15 4.17045 301.239C4.40909 301.328 4.62689 301.475 4.82386 301.682C5.02083 301.886 5.17898 302.166 5.2983 302.52C5.41761 302.874 5.47727 303.318 5.47727 303.852C5.47727 304.369 5.42803 304.829 5.32955 305.23C5.23295 305.63 5.0928 305.967 4.90909 306.241C4.72727 306.516 4.50568 306.724 4.24432 306.866C3.98485 307.009 3.69129 307.08 3.36364 307.08C3.03788 307.08 2.74716 307.015 2.49148 306.886C2.23769 306.756 2.02936 306.575 1.86648 306.344C1.70549 306.111 1.60227 305.841 1.55682 305.534H2.25C2.3125 305.801 2.43655 306.022 2.62216 306.196C2.80966 306.368 3.05682 306.455 3.36364 306.455C3.8125 306.455 4.16667 306.259 4.42614 305.866C4.6875 305.474 4.81818 304.92 4.81818 304.205H4.77273C4.66667 304.364 4.54072 304.501 4.39489 304.616C4.24905 304.732 4.08712 304.821 3.90909 304.884C3.73106 304.946 3.54167 304.977 3.34091 304.977C3.00758 304.977 2.7017 304.895 2.4233 304.73C2.14678 304.563 1.92519 304.335 1.75852 304.045C1.59375 303.754 1.51136 303.42 1.51136 303.045C1.51136 302.689 1.59091 302.364 1.75 302.068C1.91098 301.771 2.13636 301.534 2.42614 301.358C2.7178 301.182 3.06061 301.097 3.45455 301.102ZM3.45455 301.727C3.21591 301.727 3.00095 301.787 2.80966 301.906C2.62027 302.024 2.4697 302.183 2.35795 302.384C2.24811 302.582 2.19318 302.803 2.19318 303.045C2.19318 303.288 2.24621 303.509 2.35227 303.707C2.46023 303.904 2.60701 304.062 2.79261 304.179C2.98011 304.295 3.19318 304.352 3.43182 304.352C3.61174 304.352 3.77936 304.317 3.93466 304.247C4.08996 304.175 4.22538 304.078 4.34091 303.955C4.45833 303.83 4.55019 303.688 4.61648 303.531C4.68277 303.372 4.71591 303.206 4.71591 303.034C4.71591 302.807 4.66098 302.594 4.55114 302.395C4.44318 302.196 4.29356 302.035 4.10227 301.912C3.91288 301.789 3.69697 301.727 3.45455 301.727ZM8.49219 307.08C8.06416 307.08 7.69957 306.963 7.39844 306.73C7.0973 306.495 6.86719 306.155 6.7081 305.71C6.54901 305.263 6.46946 304.723 6.46946 304.091C6.46946 303.462 6.54901 302.925 6.7081 302.48C6.86908 302.033 7.10014 301.692 7.40128 301.457C7.70431 301.221 8.06795 301.102 8.49219 301.102C8.91643 301.102 9.27912 301.221 9.58026 301.457C9.88329 301.692 10.1143 302.033 10.2734 302.48C10.4344 302.925 10.5149 303.462 10.5149 304.091C10.5149 304.723 10.4354 305.263 10.2763 305.71C10.1172 306.155 9.88707 306.495 9.58594 306.73C9.2848 306.963 8.92022 307.08 8.49219 307.08ZM8.49219 306.455C8.91643 306.455 9.24598 306.25 9.48082 305.841C9.71567 305.432 9.8331 304.848 9.8331 304.091C9.8331 303.587 9.77912 303.158 9.67116 302.804C9.5651 302.45 9.4117 302.18 9.21094 301.994C9.01207 301.809 8.77249 301.716 8.49219 301.716C8.07173 301.716 7.74313 301.923 7.50639 302.338C7.26965 302.751 7.15128 303.335 7.15128 304.091C7.15128 304.595 7.20431 305.023 7.31037 305.375C7.41643 305.727 7.56889 305.995 7.76776 306.179C7.96851 306.363 8.20999 306.455 8.49219 306.455ZM14.1058 303.778V304.403H11.5604V303.778H14.1058ZM17.3196 301.182V307H16.6151V301.92H16.581L15.1605 302.864V302.148L16.6151 301.182H17.3196ZM21.0384 301.182V307H20.3338V301.92H20.2997L18.8793 302.864V302.148L20.3338 301.182H21.0384ZM24.6094 307.08C24.1813 307.08 23.8168 306.963 23.5156 306.73C23.2145 306.495 22.9844 306.155 22.8253 305.71C22.6662 305.263 22.5866 304.723 22.5866 304.091C22.5866 303.462 22.6662 302.925 22.8253 302.48C22.9863 302.033 23.2173 301.692 23.5185 301.457C23.8215 301.221 24.1851 301.102 24.6094 301.102C25.0336 301.102 25.3963 301.221 25.6974 301.457C26.0005 301.692 26.2315 302.033 26.3906 302.48C26.5516 302.925 26.6321 303.462 26.6321 304.091C26.6321 304.723 26.5526 305.263 26.3935 305.71C26.2344 306.155 26.0043 306.495 25.7031 306.73C25.402 306.963 25.0374 307.08 24.6094 307.08ZM24.6094 306.455C25.0336 306.455 25.3632 306.25 25.598 305.841C25.8329 305.432 25.9503 304.848 25.9503 304.091C25.9503 303.587 25.8963 303.158 25.7884 302.804C25.6823 302.45 25.5289 302.18 25.3281 301.994C25.1293 301.809 24.8897 301.716 24.6094 301.716C24.1889 301.716 23.8603 301.923 23.6236 302.338C23.3868 302.751 23.2685 303.335 23.2685 304.091C23.2685 304.595 23.3215 305.023 23.4276 305.375C23.5336 305.727 23.6861 305.995 23.8849 306.179C24.0857 306.363 24.3272 306.455 24.6094 306.455Z" fill="white"/>
<line y1="294.5" x2="277" y2="294.5" stroke="white" stroke-opacity="0.2"/>
<path d="M146.977 256.273V265H145.955L141.199 258.148H141.114V265H140.057V256.273H141.08L145.852 263.142H145.938V256.273H146.977ZM148.956 265V258.455H149.961V265H148.956ZM149.467 257.364C149.271 257.364 149.102 257.297 148.96 257.163C148.821 257.03 148.751 256.869 148.751 256.682C148.751 256.494 148.821 256.334 148.96 256.2C149.102 256.067 149.271 256 149.467 256C149.663 256 149.831 256.067 149.97 256.2C150.112 256.334 150.183 256.494 150.183 256.682C150.183 256.869 150.112 257.03 149.97 257.163C149.831 257.297 149.663 257.364 149.467 257.364ZM154.65 258.455V259.307H151.258V258.455H154.65ZM152.246 256.886H153.252V263.125C153.252 263.409 153.293 263.622 153.376 263.764C153.461 263.903 153.569 263.997 153.7 264.045C153.833 264.091 153.974 264.114 154.121 264.114C154.232 264.114 154.323 264.108 154.394 264.097C154.465 264.082 154.522 264.071 154.565 264.062L154.769 264.966C154.701 264.991 154.606 265.017 154.484 265.043C154.362 265.071 154.207 265.085 154.019 265.085C153.735 265.085 153.457 265.024 153.184 264.902C152.914 264.78 152.69 264.594 152.511 264.344C152.335 264.094 152.246 263.778 152.246 263.398V256.886ZM156.163 265V258.455H157.134V259.443H157.202C157.322 259.119 157.538 258.857 157.85 258.655C158.163 258.453 158.515 258.352 158.907 258.352C158.981 258.352 159.073 258.354 159.184 258.357C159.295 258.359 159.379 258.364 159.435 258.369V259.392C159.401 259.384 159.323 259.371 159.201 259.354C159.082 259.334 158.955 259.324 158.822 259.324C158.504 259.324 158.219 259.391 157.969 259.524C157.722 259.655 157.526 259.837 157.381 260.07C157.239 260.3 157.168 260.562 157.168 260.858V265H156.163ZM163.087 265.136C162.496 265.136 161.978 264.996 161.532 264.714C161.089 264.433 160.742 264.04 160.492 263.534C160.245 263.028 160.121 262.437 160.121 261.761C160.121 261.08 160.245 260.484 160.492 259.976C160.742 259.467 161.089 259.072 161.532 258.791C161.978 258.51 162.496 258.369 163.087 258.369C163.678 258.369 164.195 258.51 164.638 258.791C165.085 259.072 165.431 259.467 165.678 259.976C165.928 260.484 166.053 261.08 166.053 261.761C166.053 262.437 165.928 263.028 165.678 263.534C165.431 264.04 165.085 264.433 164.638 264.714C164.195 264.996 163.678 265.136 163.087 265.136ZM163.087 264.233C163.536 264.233 163.906 264.118 164.195 263.888C164.485 263.658 164.7 263.355 164.839 262.98C164.978 262.605 165.048 262.199 165.048 261.761C165.048 261.324 164.978 260.916 164.839 260.538C164.7 260.161 164.485 259.855 164.195 259.622C163.906 259.389 163.536 259.273 163.087 259.273C162.638 259.273 162.269 259.389 161.979 259.622C161.69 259.855 161.475 260.161 161.336 260.538C161.197 260.916 161.127 261.324 161.127 261.761C161.127 262.199 161.197 262.605 161.336 262.98C161.475 263.355 161.69 263.658 161.979 263.888C162.269 264.118 162.638 264.233 163.087 264.233ZM170.23 267.591C169.745 267.591 169.327 267.528 168.978 267.403C168.628 267.281 168.337 267.119 168.104 266.918C167.874 266.719 167.691 266.506 167.554 266.278L168.355 265.716C168.446 265.835 168.561 265.972 168.701 266.125C168.84 266.281 169.03 266.416 169.272 266.53C169.516 266.646 169.836 266.705 170.23 266.705C170.759 266.705 171.195 266.577 171.539 266.321C171.882 266.065 172.054 265.665 172.054 265.119V263.79H171.969C171.895 263.909 171.79 264.057 171.654 264.233C171.52 264.406 171.327 264.561 171.074 264.697C170.824 264.831 170.486 264.898 170.06 264.898C169.532 264.898 169.057 264.773 168.637 264.523C168.219 264.273 167.888 263.909 167.644 263.432C167.402 262.955 167.282 262.375 167.282 261.693C167.282 261.023 167.4 260.439 167.635 259.942C167.871 259.442 168.199 259.055 168.62 258.783C169.04 258.507 169.526 258.369 170.077 258.369C170.503 258.369 170.841 258.44 171.091 258.582C171.344 258.722 171.537 258.881 171.671 259.06C171.807 259.236 171.912 259.381 171.986 259.494H172.088V258.455H173.06V265.188C173.06 265.75 172.932 266.207 172.676 266.56C172.424 266.915 172.083 267.175 171.654 267.339C171.228 267.507 170.753 267.591 170.23 267.591ZM170.196 263.994C170.6 263.994 170.941 263.902 171.219 263.717C171.498 263.533 171.709 263.267 171.854 262.92C171.999 262.574 172.071 262.159 172.071 261.676C172.071 261.205 172 260.788 171.858 260.428C171.716 260.067 171.506 259.784 171.228 259.58C170.949 259.375 170.605 259.273 170.196 259.273C169.77 259.273 169.415 259.381 169.131 259.597C168.85 259.812 168.638 260.102 168.496 260.466C168.357 260.83 168.287 261.233 168.287 261.676C168.287 262.131 168.358 262.533 168.5 262.882C168.645 263.229 168.858 263.501 169.14 263.7C169.424 263.896 169.776 263.994 170.196 263.994ZM177.645 265.136C177.015 265.136 176.471 264.997 176.013 264.719C175.559 264.438 175.208 264.045 174.961 263.543C174.716 263.037 174.594 262.449 174.594 261.778C174.594 261.108 174.716 260.517 174.961 260.006C175.208 259.491 175.551 259.091 175.992 258.804C176.435 258.514 176.952 258.369 177.543 258.369C177.884 258.369 178.221 258.426 178.553 258.54C178.885 258.653 179.188 258.838 179.461 259.094C179.733 259.347 179.951 259.682 180.113 260.099C180.275 260.517 180.355 261.031 180.355 261.642V262.068H175.31V261.199H179.333C179.333 260.83 179.259 260.5 179.111 260.21C178.966 259.92 178.759 259.692 178.489 259.524C178.222 259.357 177.907 259.273 177.543 259.273C177.142 259.273 176.796 259.372 176.503 259.571C176.213 259.767 175.99 260.023 175.834 260.338C175.678 260.653 175.6 260.991 175.6 261.352V261.932C175.6 262.426 175.685 262.845 175.855 263.189C176.029 263.53 176.269 263.79 176.576 263.969C176.882 264.145 177.239 264.233 177.645 264.233C177.909 264.233 178.148 264.196 178.361 264.122C178.577 264.045 178.763 263.932 178.919 263.781C179.076 263.628 179.196 263.437 179.282 263.21L180.253 263.483C180.151 263.812 179.979 264.102 179.738 264.352C179.496 264.599 179.198 264.793 178.843 264.932C178.488 265.068 178.088 265.136 177.645 265.136ZM182.891 261.062V265H181.885V258.455H182.857V259.477H182.942C183.096 259.145 183.328 258.878 183.641 258.676C183.953 258.472 184.357 258.369 184.851 258.369C185.294 258.369 185.682 258.46 186.015 258.642C186.347 258.821 186.605 259.094 186.79 259.46C186.975 259.824 187.067 260.284 187.067 260.841V265H186.061V260.909C186.061 260.395 185.928 259.994 185.661 259.707C185.394 259.418 185.027 259.273 184.561 259.273C184.24 259.273 183.953 259.342 183.701 259.482C183.451 259.621 183.253 259.824 183.108 260.091C182.963 260.358 182.891 260.682 182.891 261.062Z" fill="white"/>
<path d="M3.45455 258.102C3.69318 258.104 3.93182 258.15 4.17045 258.239C4.40909 258.328 4.62689 258.475 4.82386 258.682C5.02083 258.886 5.17898 259.166 5.2983 259.52C5.41761 259.874 5.47727 260.318 5.47727 260.852C5.47727 261.369 5.42803 261.829 5.32955 262.23C5.23295 262.63 5.0928 262.967 4.90909 263.241C4.72727 263.516 4.50568 263.724 4.24432 263.866C3.98485 264.009 3.69129 264.08 3.36364 264.08C3.03788 264.08 2.74716 264.015 2.49148 263.886C2.23769 263.756 2.02936 263.575 1.86648 263.344C1.70549 263.111 1.60227 262.841 1.55682 262.534H2.25C2.3125 262.801 2.43655 263.022 2.62216 263.196C2.80966 263.368 3.05682 263.455 3.36364 263.455C3.8125 263.455 4.16667 263.259 4.42614 262.866C4.6875 262.474 4.81818 261.92 4.81818 261.205H4.77273C4.66667 261.364 4.54072 261.501 4.39489 261.616C4.24905 261.732 4.08712 261.821 3.90909 261.884C3.73106 261.946 3.54167 261.977 3.34091 261.977C3.00758 261.977 2.7017 261.895 2.4233 261.73C2.14678 261.563 1.92519 261.335 1.75852 261.045C1.59375 260.754 1.51136 260.42 1.51136 260.045C1.51136 259.689 1.59091 259.364 1.75 259.068C1.91098 258.771 2.13636 258.534 2.42614 258.358C2.7178 258.182 3.06061 258.097 3.45455 258.102ZM3.45455 258.727C3.21591 258.727 3.00095 258.787 2.80966 258.906C2.62027 259.024 2.4697 259.183 2.35795 259.384C2.24811 259.582 2.19318 259.803 2.19318 260.045C2.19318 260.288 2.24621 260.509 2.35227 260.707C2.46023 260.904 2.60701 261.062 2.79261 261.179C2.98011 261.295 3.19318 261.352 3.43182 261.352C3.61174 261.352 3.77936 261.317 3.93466 261.247C4.08996 261.175 4.22538 261.078 4.34091 260.955C4.45833 260.83 4.55019 260.688 4.61648 260.531C4.68277 260.372 4.71591 260.206 4.71591 260.034C4.71591 259.807 4.66098 259.594 4.55114 259.395C4.44318 259.196 4.29356 259.035 4.10227 258.912C3.91288 258.789 3.69697 258.727 3.45455 258.727ZM8.49219 264.08C8.06416 264.08 7.69957 263.963 7.39844 263.73C7.0973 263.495 6.86719 263.155 6.7081 262.71C6.54901 262.263 6.46946 261.723 6.46946 261.091C6.46946 260.462 6.54901 259.925 6.7081 259.48C6.86908 259.033 7.10014 258.692 7.40128 258.457C7.70431 258.221 8.06795 258.102 8.49219 258.102C8.91643 258.102 9.27912 258.221 9.58026 258.457C9.88329 258.692 10.1143 259.033 10.2734 259.48C10.4344 259.925 10.5149 260.462 10.5149 261.091C10.5149 261.723 10.4354 262.263 10.2763 262.71C10.1172 263.155 9.88707 263.495 9.58594 263.73C9.2848 263.963 8.92022 264.08 8.49219 264.08ZM8.49219 263.455C8.91643 263.455 9.24598 263.25 9.48082 262.841C9.71567 262.432 9.8331 261.848 9.8331 261.091C9.8331 260.587 9.77912 260.158 9.67116 259.804C9.5651 259.45 9.4117 259.18 9.21094 258.994C9.01207 258.809 8.77249 258.716 8.49219 258.716C8.07173 258.716 7.74313 258.923 7.50639 259.338C7.26965 259.751 7.15128 260.335 7.15128 261.091C7.15128 261.595 7.20431 262.023 7.31037 262.375C7.41643 262.727 7.56889 262.995 7.76776 263.179C7.96851 263.363 8.20999 263.455 8.49219 263.455ZM14.1058 260.778V261.403H11.5604V260.778H14.1058ZM17.3196 258.182V264H16.6151V258.92H16.581L15.1605 259.864V259.148L16.6151 258.182H17.3196ZM18.9929 264V263.489L20.9134 261.386C21.1387 261.14 21.3243 260.926 21.4702 260.744C21.616 260.561 21.724 260.388 21.794 260.227C21.866 260.064 21.902 259.894 21.902 259.716C21.902 259.511 21.8527 259.334 21.7543 259.185C21.6577 259.035 21.5251 258.92 21.3565 258.838C21.188 258.757 20.9986 258.716 20.7884 258.716C20.5649 258.716 20.3698 258.762 20.2031 258.855C20.0384 258.946 19.9105 259.074 19.8196 259.239C19.7306 259.403 19.6861 259.597 19.6861 259.818H19.0156C19.0156 259.477 19.0942 259.178 19.2514 258.92C19.4086 258.663 19.6226 258.462 19.8935 258.318C20.1662 258.174 20.4721 258.102 20.8111 258.102C21.152 258.102 21.4541 258.174 21.7173 258.318C21.9806 258.462 22.187 258.656 22.3366 258.901C22.4863 259.145 22.5611 259.417 22.5611 259.716C22.5611 259.93 22.5223 260.139 22.4446 260.344C22.3688 260.546 22.2363 260.773 22.0469 261.023C21.8594 261.271 21.599 261.574 21.2656 261.932L19.9588 263.33V263.375H22.6634V264H18.9929ZM25.7344 264.08C25.3063 264.08 24.9418 263.963 24.6406 263.73C24.3395 263.495 24.1094 263.155 23.9503 262.71C23.7912 262.263 23.7116 261.723 23.7116 261.091C23.7116 260.462 23.7912 259.925 23.9503 259.48C24.1113 259.033 24.3423 258.692 24.6435 258.457C24.9465 258.221 25.3101 258.102 25.7344 258.102C26.1586 258.102 26.5213 258.221 26.8224 258.457C27.1255 258.692 27.3565 259.033 27.5156 259.48C27.6766 259.925 27.7571 260.462 27.7571 261.091C27.7571 261.723 27.6776 262.263 27.5185 262.71C27.3594 263.155 27.1293 263.495 26.8281 263.73C26.527 263.963 26.1624 264.08 25.7344 264.08ZM25.7344 263.455C26.1586 263.455 26.4882 263.25 26.723 262.841C26.9579 262.432 27.0753 261.848 27.0753 261.091C27.0753 260.587 27.0213 260.158 26.9134 259.804C26.8073 259.45 26.6539 259.18 26.4531 258.994C26.2543 258.809 26.0147 258.716 25.7344 258.716C25.3139 258.716 24.9853 258.923 24.7486 259.338C24.5118 259.751 24.3935 260.335 24.3935 261.091C24.3935 261.595 24.4465 262.023 24.5526 262.375C24.6586 262.727 24.8111 262.995 25.0099 263.179C25.2107 263.363 25.4522 263.455 25.7344 263.455Z" fill="white"/>
<line y1="251.5" x2="277" y2="251.5" stroke="white" stroke-opacity="0.2"/>
<path d="M147.42 60.6364C147.42 61.5568 147.254 62.3523 146.922 63.0227C146.589 63.6932 146.134 64.2102 145.554 64.5739C144.974 64.9375 144.313 65.1193 143.568 65.1193C142.824 65.1193 142.162 64.9375 141.582 64.5739C141.003 64.2102 140.547 63.6932 140.214 63.0227C139.882 62.3523 139.716 61.5568 139.716 60.6364C139.716 59.7159 139.882 58.9205 140.214 58.25C140.547 57.5795 141.003 57.0625 141.582 56.6989C142.162 56.3352 142.824 56.1534 143.568 56.1534C144.313 56.1534 144.974 56.3352 145.554 56.6989C146.134 57.0625 146.589 57.5795 146.922 58.25C147.254 58.9205 147.42 59.7159 147.42 60.6364ZM146.398 60.6364C146.398 59.8807 146.271 59.2429 146.018 58.723C145.768 58.2031 145.429 57.8097 145 57.5426C144.574 57.2756 144.097 57.142 143.568 57.142C143.04 57.142 142.561 57.2756 142.132 57.5426C141.706 57.8097 141.366 58.2031 141.114 58.723C140.864 59.2429 140.739 59.8807 140.739 60.6364C140.739 61.392 140.864 62.0298 141.114 62.5497C141.366 63.0696 141.706 63.4631 142.132 63.7301C142.561 63.9972 143.04 64.1307 143.568 64.1307C144.097 64.1307 144.574 63.9972 145 63.7301C145.429 63.4631 145.768 63.0696 146.018 62.5497C146.271 62.0298 146.398 61.392 146.398 60.6364ZM149.811 58.4545L151.379 61.1307L152.947 58.4545H154.107L151.993 61.7273L154.107 65H152.947L151.379 62.4602L149.811 65H148.652L150.732 61.7273L148.652 58.4545H149.811ZM156.189 67.4545C156.019 67.4545 155.867 67.4403 155.733 67.4119C155.6 67.3864 155.507 67.3608 155.456 67.3352L155.712 66.4489C155.956 66.5114 156.172 66.5341 156.36 66.517C156.547 66.5 156.713 66.4162 156.858 66.2656C157.006 66.1179 157.141 65.8778 157.263 65.5455L157.451 65.0341L155.03 58.4545H156.121L157.928 63.6705H157.996L159.803 58.4545H160.894L158.115 65.9545C157.99 66.2926 157.836 66.5724 157.651 66.794C157.466 67.0185 157.252 67.1847 157.007 67.2926C156.766 67.4006 156.493 67.4545 156.189 67.4545ZM164.629 67.5909C164.143 67.5909 163.725 67.5284 163.376 67.4034C163.027 67.2812 162.735 67.1193 162.502 66.9176C162.272 66.7188 162.089 66.5057 161.953 66.2784L162.754 65.7159C162.845 65.8352 162.96 65.9716 163.099 66.125C163.238 66.2812 163.429 66.4162 163.67 66.5298C163.914 66.6463 164.234 66.7045 164.629 66.7045C165.157 66.7045 165.593 66.5767 165.937 66.321C166.281 66.0653 166.453 65.6648 166.453 65.1193V63.7898H166.368C166.294 63.9091 166.189 64.0568 166.052 64.233C165.919 64.4062 165.725 64.5611 165.473 64.6974C165.223 64.831 164.885 64.8977 164.458 64.8977C163.93 64.8977 163.456 64.7727 163.035 64.5227C162.618 64.2727 162.287 63.9091 162.042 63.4318C161.801 62.9545 161.68 62.375 161.68 61.6932C161.68 61.0227 161.798 60.4389 162.034 59.9418C162.27 59.4418 162.598 59.0554 163.018 58.7827C163.439 58.5071 163.924 58.3693 164.475 58.3693C164.902 58.3693 165.24 58.4403 165.49 58.5824C165.743 58.7216 165.936 58.8807 166.069 59.0597C166.206 59.2358 166.311 59.3807 166.385 59.4943H166.487V58.4545H167.458V65.1875C167.458 65.75 167.331 66.2074 167.075 66.5597C166.822 66.9148 166.481 67.1747 166.052 67.3395C165.626 67.5071 165.152 67.5909 164.629 67.5909ZM164.595 63.9943C164.998 63.9943 165.339 63.902 165.618 63.7173C165.896 63.5327 166.108 63.267 166.252 62.9205C166.397 62.5739 166.47 62.1591 166.47 61.6761C166.47 61.2045 166.399 60.7884 166.257 60.4276C166.115 60.0668 165.904 59.7841 165.626 59.5795C165.348 59.375 165.004 59.2727 164.595 59.2727C164.169 59.2727 163.814 59.3807 163.529 59.5966C163.248 59.8125 163.037 60.1023 162.895 60.4659C162.755 60.8295 162.686 61.233 162.686 61.6761C162.686 62.1307 162.757 62.5327 162.899 62.8821C163.044 63.2287 163.257 63.5014 163.538 63.7003C163.822 63.8963 164.174 63.9943 164.595 63.9943ZM172.044 65.1364C171.413 65.1364 170.869 64.9972 170.412 64.7188C169.957 64.4375 169.606 64.0455 169.359 63.5426C169.115 63.0369 168.993 62.4489 168.993 61.7784C168.993 61.108 169.115 60.517 169.359 60.0057C169.606 59.4915 169.95 59.0909 170.39 58.804C170.833 58.5142 171.35 58.3693 171.941 58.3693C172.282 58.3693 172.619 58.4261 172.951 58.5398C173.284 58.6534 173.586 58.8381 173.859 59.0938C174.132 59.3466 174.349 59.6818 174.511 60.0994C174.673 60.517 174.754 61.0312 174.754 61.642V62.0682H169.708V61.1989H173.731C173.731 60.8295 173.657 60.5 173.51 60.2102C173.365 59.9205 173.157 59.6918 172.887 59.5241C172.62 59.3565 172.305 59.2727 171.941 59.2727C171.541 59.2727 171.194 59.3722 170.902 59.571C170.612 59.767 170.389 60.0227 170.233 60.3381C170.076 60.6534 169.998 60.9915 169.998 61.3523V61.9318C169.998 62.4261 170.083 62.8452 170.254 63.1889C170.427 63.5298 170.667 63.7898 170.974 63.9688C171.281 64.1449 171.637 64.233 172.044 64.233C172.308 64.233 172.547 64.196 172.76 64.1222C172.975 64.0455 173.162 63.9318 173.318 63.7812C173.474 63.6278 173.595 63.4375 173.68 63.2102L174.652 63.483C174.549 63.8125 174.377 64.1023 174.136 64.3523C173.895 64.5994 173.596 64.7926 173.241 64.9318C172.886 65.0682 172.487 65.1364 172.044 65.1364ZM177.289 61.0625V65H176.284V58.4545H177.255V59.4773H177.341C177.494 59.1449 177.727 58.8778 178.039 58.6761C178.352 58.4716 178.755 58.3693 179.25 58.3693C179.693 58.3693 180.081 58.4602 180.413 58.642C180.745 58.821 181.004 59.0938 181.189 59.4602C181.373 59.8239 181.466 60.2841 181.466 60.8409V65H180.46V60.9091C180.46 60.3949 180.326 59.9943 180.059 59.7074C179.792 59.4176 179.426 59.2727 178.96 59.2727C178.639 59.2727 178.352 59.3423 178.099 59.4815C177.849 59.6207 177.652 59.8239 177.507 60.0909C177.362 60.358 177.289 60.6818 177.289 61.0625ZM186.815 65V56.2727H189.763C190.445 56.2727 191.005 56.3892 191.442 56.6222C191.88 56.8523 192.204 57.169 192.414 57.5724C192.624 57.9759 192.729 58.4347 192.729 58.9489C192.729 59.4631 192.624 59.919 192.414 60.3168C192.204 60.7145 191.881 61.027 191.447 61.2543C191.012 61.4787 190.457 61.5909 189.781 61.5909H187.394V60.6364H189.746C190.212 60.6364 190.587 60.5682 190.871 60.4318C191.158 60.2955 191.366 60.1023 191.494 59.8523C191.624 59.5994 191.69 59.2983 191.69 58.9489C191.69 58.5994 191.624 58.294 191.494 58.0327C191.363 57.7713 191.154 57.5696 190.867 57.4276C190.58 57.2827 190.201 57.2102 189.729 57.2102H187.871V65H186.815ZM190.923 61.0795L193.07 65H191.843L189.729 61.0795H190.923ZM197.028 65.1364C196.397 65.1364 195.853 64.9972 195.396 64.7188C194.941 64.4375 194.591 64.0455 194.343 63.5426C194.099 63.0369 193.977 62.4489 193.977 61.7784C193.977 61.108 194.099 60.517 194.343 60.0057C194.591 59.4915 194.934 59.0909 195.375 58.804C195.818 58.5142 196.335 58.3693 196.926 58.3693C197.267 58.3693 197.603 58.4261 197.936 58.5398C198.268 58.6534 198.571 58.8381 198.843 59.0938C199.116 59.3466 199.333 59.6818 199.495 60.0994C199.657 60.517 199.738 61.0312 199.738 61.642V62.0682H194.693V61.1989H198.716C198.716 60.8295 198.642 60.5 198.494 60.2102C198.349 59.9205 198.142 59.6918 197.872 59.5241C197.605 59.3565 197.289 59.2727 196.926 59.2727C196.525 59.2727 196.179 59.3722 195.886 59.571C195.596 59.767 195.373 60.0227 195.217 60.3381C195.061 60.6534 194.983 60.9915 194.983 61.3523V61.9318C194.983 62.4261 195.068 62.8452 195.238 63.1889C195.412 63.5298 195.652 63.7898 195.958 63.9688C196.265 64.1449 196.622 64.233 197.028 64.233C197.292 64.233 197.531 64.196 197.744 64.1222C197.96 64.0455 198.146 63.9318 198.302 63.7812C198.458 63.6278 198.579 63.4375 198.664 63.2102L199.636 63.483C199.534 63.8125 199.362 64.1023 199.12 64.3523C198.879 64.5994 198.581 64.7926 198.225 64.9318C197.87 65.0682 197.471 65.1364 197.028 65.1364ZM203.74 65.1364C203.194 65.1364 202.713 64.9986 202.295 64.723C201.877 64.4446 201.551 64.0526 201.315 63.5469C201.079 63.0384 200.961 62.4375 200.961 61.7443C200.961 61.0568 201.079 60.4602 201.315 59.9545C201.551 59.4489 201.879 59.0582 202.299 58.7827C202.72 58.5071 203.206 58.3693 203.757 58.3693C204.183 58.3693 204.52 58.4403 204.767 58.5824C205.017 58.7216 205.207 58.8807 205.338 59.0597C205.471 59.2358 205.575 59.3807 205.649 59.4943H205.734V56.2727H206.74V65H205.768V63.9943H205.649C205.575 64.1136 205.47 64.2642 205.333 64.446C205.197 64.625 205.002 64.7855 204.75 64.9276C204.497 65.0668 204.16 65.1364 203.74 65.1364ZM203.876 64.233C204.279 64.233 204.62 64.1278 204.899 63.9176C205.177 63.7045 205.389 63.4105 205.534 63.0355C205.679 62.6577 205.751 62.2216 205.751 61.7273C205.751 61.2386 205.68 60.8111 205.538 60.4446C205.396 60.0753 205.186 59.7884 204.907 59.5838C204.629 59.3764 204.285 59.2727 203.876 59.2727C203.45 59.2727 203.095 59.3821 202.811 59.6009C202.529 59.8168 202.318 60.1108 202.176 60.483C202.037 60.8523 201.967 61.267 201.967 61.7273C201.967 62.1932 202.038 62.6165 202.18 62.9972C202.325 63.375 202.538 63.6761 202.819 63.9006C203.103 64.1222 203.456 64.233 203.876 64.233Z" fill="white"/>
<path d="M1.60227 64V63.4886L3.52273 61.3864C3.74811 61.1402 3.93371 60.9261 4.07955 60.7443C4.22538 60.5606 4.33333 60.3883 4.40341 60.2273C4.47538 60.0644 4.51136 59.8939 4.51136 59.7159C4.51136 59.5114 4.46212 59.3343 4.36364 59.1847C4.26705 59.035 4.13447 58.9195 3.96591 58.8381C3.79735 58.7566 3.60795 58.7159 3.39773 58.7159C3.17424 58.7159 2.97917 58.7623 2.8125 58.8551C2.64773 58.946 2.51989 59.0739 2.42898 59.2386C2.33996 59.4034 2.29545 59.5966 2.29545 59.8182H1.625C1.625 59.4773 1.7036 59.178 1.8608 58.9205C2.01799 58.6629 2.23201 58.4621 2.50284 58.3182C2.77557 58.1742 3.08144 58.1023 3.42045 58.1023C3.76136 58.1023 4.06345 58.1742 4.3267 58.3182C4.58996 58.4621 4.7964 58.6562 4.94602 58.9006C5.09564 59.1449 5.17045 59.4167 5.17045 59.7159C5.17045 59.9299 5.13163 60.1392 5.05398 60.3438C4.97822 60.5464 4.84564 60.7727 4.65625 61.0227C4.46875 61.2708 4.20833 61.5739 3.875 61.9318L2.56818 63.3295V63.375H5.27273V64H1.60227ZM8.34375 64.0795C7.91572 64.0795 7.55114 63.9631 7.25 63.7301C6.94886 63.4953 6.71875 63.1553 6.55966 62.7102C6.40057 62.2633 6.32102 61.7235 6.32102 61.0909C6.32102 60.4621 6.40057 59.9252 6.55966 59.4801C6.72064 59.0331 6.9517 58.6922 7.25284 58.4574C7.55587 58.2206 7.91951 58.1023 8.34375 58.1023C8.76799 58.1023 9.13068 58.2206 9.43182 58.4574C9.73485 58.6922 9.96591 59.0331 10.125 59.4801C10.286 59.9252 10.3665 60.4621 10.3665 61.0909C10.3665 61.7235 10.2869 62.2633 10.1278 62.7102C9.96875 63.1553 9.73864 63.4953 9.4375 63.7301C9.13636 63.9631 8.77178 64.0795 8.34375 64.0795ZM8.34375 63.4545C8.76799 63.4545 9.09754 63.25 9.33239 62.8409C9.56723 62.4318 9.68466 61.8485 9.68466 61.0909C9.68466 60.5871 9.63068 60.1581 9.52273 59.804C9.41667 59.4498 9.26326 59.1799 9.0625 58.9943C8.86364 58.8087 8.62405 58.7159 8.34375 58.7159C7.9233 58.7159 7.5947 58.9233 7.35795 59.3381C7.12121 59.7509 7.00284 60.3352 7.00284 61.0909C7.00284 61.5947 7.05587 62.0227 7.16193 62.375C7.26799 62.7273 7.42045 62.9953 7.61932 63.179C7.82008 63.3627 8.06155 63.4545 8.34375 63.4545ZM13.3438 64.0795C12.9157 64.0795 12.5511 63.9631 12.25 63.7301C11.9489 63.4953 11.7188 63.1553 11.5597 62.7102C11.4006 62.2633 11.321 61.7235 11.321 61.0909C11.321 60.4621 11.4006 59.9252 11.5597 59.4801C11.7206 59.0331 11.9517 58.6922 12.2528 58.4574C12.5559 58.2206 12.9195 58.1023 13.3438 58.1023C13.768 58.1023 14.1307 58.2206 14.4318 58.4574C14.7348 58.6922 14.9659 59.0331 15.125 59.4801C15.286 59.9252 15.3665 60.4621 15.3665 61.0909C15.3665 61.7235 15.2869 62.2633 15.1278 62.7102C14.9688 63.1553 14.7386 63.4953 14.4375 63.7301C14.1364 63.9631 13.7718 64.0795 13.3438 64.0795ZM13.3438 63.4545C13.768 63.4545 14.0975 63.25 14.3324 62.8409C14.5672 62.4318 14.6847 61.8485 14.6847 61.0909C14.6847 60.5871 14.6307 60.1581 14.5227 59.804C14.4167 59.4498 14.2633 59.1799 14.0625 58.9943C13.8636 58.8087 13.6241 58.7159 13.3438 58.7159C12.9233 58.7159 12.5947 58.9233 12.358 59.3381C12.1212 59.7509 12.0028 60.3352 12.0028 61.0909C12.0028 61.5947 12.0559 62.0227 12.1619 62.375C12.268 62.7273 12.4205 62.9953 12.6193 63.179C12.8201 63.3627 13.0616 63.4545 13.3438 63.4545ZM18.9574 60.7784V61.4034H16.4119V60.7784H18.9574ZM21.9979 64.0795C21.6229 64.0795 21.2886 64.0152 20.995 63.8864C20.7034 63.7576 20.4714 63.5786 20.299 63.3494C20.1286 63.1184 20.0357 62.8504 20.0206 62.5455H20.7365C20.7517 62.733 20.8161 62.8949 20.9297 63.0312C21.0433 63.1657 21.192 63.2699 21.3757 63.3438C21.5594 63.4176 21.763 63.4545 21.9865 63.4545C22.2365 63.4545 22.4581 63.411 22.6513 63.3239C22.8445 63.2367 22.996 63.1155 23.1058 62.9602C23.2157 62.8049 23.2706 62.625 23.2706 62.4205C23.2706 62.2064 23.2176 62.018 23.1115 61.8551C23.0054 61.6903 22.8501 61.5616 22.6456 61.4688C22.4411 61.3759 22.1911 61.3295 21.8956 61.3295H21.4297V60.7045H21.8956C22.1267 60.7045 22.3293 60.6629 22.5036 60.5795C22.6797 60.4962 22.817 60.3788 22.9155 60.2273C23.0159 60.0758 23.0661 59.8977 23.0661 59.6932C23.0661 59.4962 23.0225 59.3248 22.9354 59.179C22.8482 59.0331 22.7251 58.9195 22.5661 58.8381C22.4089 58.7566 22.2232 58.7159 22.0092 58.7159C21.8085 58.7159 21.6191 58.7528 21.4411 58.8267C21.2649 58.8987 21.121 59.0038 21.0092 59.142C20.8975 59.2784 20.8369 59.4432 20.8274 59.6364H20.1456C20.157 59.3314 20.2488 59.0644 20.4212 58.8352C20.5935 58.6042 20.8189 58.4242 21.0973 58.2955C21.3776 58.1667 21.6854 58.1023 22.0206 58.1023C22.3804 58.1023 22.6892 58.1752 22.9467 58.321C23.2043 58.465 23.4022 58.6553 23.5405 58.892C23.6787 59.1288 23.7479 59.3845 23.7479 59.6591C23.7479 59.9867 23.6617 60.2661 23.4893 60.4972C23.3189 60.7282 23.0869 60.8883 22.7933 60.9773V61.0227C23.1607 61.0833 23.4477 61.2396 23.6541 61.4915C23.8606 61.7415 23.9638 62.0511 23.9638 62.4205C23.9638 62.7367 23.8776 63.0208 23.7053 63.2727C23.5348 63.5227 23.3018 63.7197 23.0064 63.8636C22.7109 64.0076 22.3748 64.0795 21.9979 64.0795ZM27.0234 64.0795C26.5954 64.0795 26.2308 63.9631 25.9297 63.7301C25.6286 63.4953 25.3984 63.1553 25.2393 62.7102C25.0803 62.2633 25.0007 61.7235 25.0007 61.0909C25.0007 60.4621 25.0803 59.9252 25.2393 59.4801C25.4003 59.0331 25.6314 58.6922 25.9325 58.4574C26.2356 58.2206 26.5992 58.1023 27.0234 58.1023C27.4477 58.1023 27.8104 58.2206 28.1115 58.4574C28.4145 58.6922 28.6456 59.0331 28.8047 59.4801C28.9657 59.9252 29.0462 60.4621 29.0462 61.0909C29.0462 61.7235 28.9666 62.2633 28.8075 62.7102C28.6484 63.1553 28.4183 63.4953 28.1172 63.7301C27.8161 63.9631 27.4515 64.0795 27.0234 64.0795ZM27.0234 63.4545C27.4477 63.4545 27.7772 63.25 28.0121 62.8409C28.2469 62.4318 28.3643 61.8485 28.3643 61.0909C28.3643 60.5871 28.3104 60.1581 28.2024 59.804C28.0964 59.4498 27.9429 59.1799 27.7422 58.9943C27.5433 58.8087 27.3037 58.7159 27.0234 58.7159C26.603 58.7159 26.2744 58.9233 26.0376 59.3381C25.8009 59.7509 25.6825 60.3352 25.6825 61.0909C25.6825 61.5947 25.7356 62.0227 25.8416 62.375C25.9477 62.7273 26.1001 62.9953 26.299 63.179C26.4998 63.3627 26.7412 63.4545 27.0234 63.4545ZM32.0234 64.0795C31.5954 64.0795 31.2308 63.9631 30.9297 63.7301C30.6286 63.4953 30.3984 63.1553 30.2393 62.7102C30.0803 62.2633 30.0007 61.7235 30.0007 61.0909C30.0007 60.4621 30.0803 59.9252 30.2393 59.4801C30.4003 59.0331 30.6314 58.6922 30.9325 58.4574C31.2356 58.2206 31.5992 58.1023 32.0234 58.1023C32.4477 58.1023 32.8104 58.2206 33.1115 58.4574C33.4145 58.6922 33.6456 59.0331 33.8047 59.4801C33.9657 59.9252 34.0462 60.4621 34.0462 61.0909C34.0462 61.7235 33.9666 62.2633 33.8075 62.7102C33.6484 63.1553 33.4183 63.4953 33.1172 63.7301C32.8161 63.9631 32.4515 64.0795 32.0234 64.0795ZM32.0234 63.4545C32.4477 63.4545 32.7772 63.25 33.0121 62.8409C33.2469 62.4318 33.3643 61.8485 33.3643 61.0909C33.3643 60.5871 33.3104 60.1581 33.2024 59.804C33.0964 59.4498 32.9429 59.1799 32.7422 58.9943C32.5433 58.8087 32.3037 58.7159 32.0234 58.7159C31.603 58.7159 31.2744 58.9233 31.0376 59.3381C30.8009 59.7509 30.6825 60.3352 30.6825 61.0909C30.6825 61.5947 30.7356 62.0227 30.8416 62.375C30.9477 62.7273 31.1001 62.9953 31.299 63.179C31.4998 63.3627 31.7412 63.4545 32.0234 63.4545Z" fill="white"/>
<line y1="51.5" x2="277" y2="51.5" stroke="white" stroke-opacity="0.2"/>
<path d="M1.70455 44V38.1818H2.40909V41.0682H2.47727L5.09091 38.1818H6.01136L3.56818 40.8068L6.01136 44H5.15909L3.13636 41.2955L2.40909 42.1136V44H1.70455ZM6.83239 44V39.6364H7.48011V40.3182H7.53693C7.62784 40.0852 7.77462 39.9044 7.97727 39.7756C8.17992 39.6449 8.4233 39.5795 8.70739 39.5795C8.99527 39.5795 9.23485 39.6449 9.42614 39.7756C9.61932 39.9044 9.76989 40.0852 9.87784 40.3182H9.9233C10.035 40.0928 10.2027 39.9138 10.4261 39.7812C10.6496 39.6468 10.9176 39.5795 11.2301 39.5795C11.6203 39.5795 11.9394 39.7017 12.1875 39.946C12.4356 40.1884 12.5597 40.5663 12.5597 41.0795V44H11.8892V41.0795C11.8892 40.7576 11.8011 40.5275 11.625 40.3892C11.4489 40.2509 11.2415 40.1818 11.0028 40.1818C10.696 40.1818 10.4583 40.2746 10.2898 40.4602C10.1212 40.6439 10.0369 40.8769 10.0369 41.1591V44H9.35511V41.0114C9.35511 40.7633 9.27462 40.5634 9.11364 40.4119C8.95265 40.2585 8.74527 40.1818 8.49148 40.1818C8.31723 40.1818 8.15436 40.2282 8.00284 40.321C7.85322 40.4138 7.73201 40.5426 7.6392 40.7074C7.5483 40.8703 7.50284 41.0587 7.50284 41.2727V44H6.83239Z" fill="white"/>
<path d="M139.705 44V38.1818H140.409V43.375H143.114V44H139.705ZM145.398 44.1023C145.121 44.1023 144.87 44.0502 144.645 43.946C144.42 43.84 144.241 43.6875 144.108 43.4886C143.975 43.2879 143.909 43.0455 143.909 42.7614C143.909 42.5114 143.958 42.3087 144.057 42.1534C144.155 41.9962 144.287 41.8731 144.452 41.7841C144.616 41.6951 144.798 41.6288 144.997 41.5852C145.198 41.5398 145.4 41.5038 145.602 41.4773C145.867 41.4432 146.082 41.4176 146.247 41.4006C146.414 41.3816 146.535 41.3504 146.611 41.3068C146.688 41.2633 146.727 41.1875 146.727 41.0795V41.0568C146.727 40.7765 146.651 40.5587 146.497 40.4034C146.346 40.2481 146.116 40.1705 145.807 40.1705C145.487 40.1705 145.236 40.2405 145.054 40.3807C144.872 40.5208 144.744 40.6705 144.67 40.8295L144.034 40.6023C144.148 40.3371 144.299 40.1307 144.489 39.983C144.68 39.8333 144.888 39.7292 145.114 39.6705C145.341 39.6098 145.564 39.5795 145.784 39.5795C145.924 39.5795 146.085 39.5966 146.267 39.6307C146.451 39.6629 146.628 39.7301 146.798 39.8324C146.971 39.9347 147.114 40.089 147.227 40.2955C147.341 40.5019 147.398 40.7784 147.398 41.125V44H146.727V43.4091H146.693C146.648 43.5038 146.572 43.6051 146.466 43.7131C146.36 43.821 146.219 43.9129 146.043 43.9886C145.866 44.0644 145.652 44.1023 145.398 44.1023ZM145.5 43.5C145.765 43.5 145.989 43.4479 146.17 43.3438C146.354 43.2396 146.492 43.1051 146.585 42.9403C146.68 42.7756 146.727 42.6023 146.727 42.4205V41.8068C146.699 41.8409 146.636 41.8722 146.54 41.9006C146.445 41.9271 146.335 41.9508 146.21 41.9716C146.087 41.9905 145.967 42.0076 145.849 42.0227C145.734 42.036 145.64 42.0473 145.568 42.0568C145.394 42.0795 145.231 42.1165 145.08 42.1676C144.93 42.2169 144.809 42.2917 144.716 42.392C144.625 42.4905 144.58 42.625 144.58 42.7955C144.58 43.0284 144.666 43.2045 144.838 43.3239C145.012 43.4413 145.233 43.5 145.5 43.5ZM148.897 45.6364C148.783 45.6364 148.682 45.6269 148.593 45.608C148.504 45.5909 148.442 45.5739 148.408 45.5568L148.579 44.9659C148.742 45.0076 148.886 45.0227 149.011 45.0114C149.136 45 149.246 44.9441 149.343 44.8438C149.442 44.7453 149.531 44.5852 149.613 44.3636L149.738 44.0227L148.124 39.6364H148.852L150.056 43.1136H150.102L151.306 39.6364H152.033L150.181 44.6364C150.098 44.8617 149.995 45.0483 149.871 45.196C149.748 45.3456 149.605 45.4564 149.442 45.5284C149.281 45.6004 149.1 45.6364 148.897 45.6364ZM154.592 44.0909C154.171 44.0909 153.808 43.9981 153.504 43.8125C153.201 43.625 152.967 43.3636 152.802 43.0284C152.639 42.6913 152.558 42.2992 152.558 41.8523C152.558 41.4053 152.639 41.0114 152.802 40.6705C152.967 40.3277 153.196 40.0606 153.489 39.8693C153.785 39.6761 154.129 39.5795 154.523 39.5795C154.751 39.5795 154.975 39.6174 155.197 39.6932C155.418 39.7689 155.62 39.892 155.802 40.0625C155.984 40.2311 156.129 40.4545 156.237 40.733C156.344 41.0114 156.398 41.3542 156.398 41.7614V42.0455H153.035V41.4659H155.717C155.717 41.2197 155.667 41 155.569 40.8068C155.472 40.6136 155.334 40.4612 155.154 40.3494C154.976 40.2377 154.766 40.1818 154.523 40.1818C154.256 40.1818 154.025 40.2481 153.83 40.3807C153.637 40.5114 153.488 40.6818 153.384 40.892C153.28 41.1023 153.228 41.3277 153.228 41.5682V41.9545C153.228 42.2841 153.285 42.5634 153.398 42.7926C153.514 43.0199 153.674 43.1932 153.879 43.3125C154.083 43.4299 154.321 43.4886 154.592 43.4886C154.768 43.4886 154.927 43.464 155.069 43.4148C155.213 43.3636 155.337 43.2879 155.441 43.1875C155.545 43.0852 155.626 42.9583 155.683 42.8068L156.33 42.9886C156.262 43.2083 156.147 43.4015 155.987 43.5682C155.826 43.733 155.627 43.8617 155.39 43.9545C155.153 44.0455 154.887 44.0909 154.592 44.0909ZM157.418 44V39.6364H158.066V40.2955H158.112C158.191 40.0795 158.335 39.9044 158.543 39.7699C158.752 39.6354 158.987 39.5682 159.248 39.5682C159.297 39.5682 159.359 39.5691 159.433 39.571C159.506 39.5729 159.562 39.5758 159.6 39.5795V40.2614C159.577 40.2557 159.525 40.2472 159.444 40.2358C159.364 40.2225 159.28 40.2159 159.191 40.2159C158.979 40.2159 158.79 40.2604 158.623 40.3494C158.458 40.4366 158.327 40.5578 158.231 40.7131C158.136 40.8665 158.089 41.0417 158.089 41.2386V44H157.418Z" fill="white"/>
</svg>
