<svg width="831" height="439" viewBox="0 0 831 439" fill="none" xmlns="http://www.w3.org/2000/svg">
<path d="M0.5 315.828C275.316 270.568 555.684 270.568 830.5 315.828V422.404C830.5 430.964 823.56 437.904 815 437.904H16C7.43959 437.904 0.5 430.964 0.5 422.404V315.828Z" fill="#0F0F0F" stroke="black"/>
<path d="M542 284.404C542 277.776 547.373 272.404 554 272.404C560.627 272.404 566 277.776 566 284.404V285.132C566 288.507 564.659 291.745 562.272 294.132L554 302.404L545.728 294.132C543.341 291.745 542 288.507 542 285.132L542 284.404Z" fill="white"/>
<circle cx="554" cy="284.404" r="7" fill="#232323"/>
<path d="M323.5 273.904C323.5 273.904 501.002 112.403 812.654 35.9925" stroke="white" stroke-opacity="0.2" stroke-width="2" stroke-linecap="round" stroke-dasharray="4 3"/>
<path d="M59.5 300.404C59.5 300.404 383.896 85.2013 814.5 7.90381" stroke="white" stroke-opacity="0.2" stroke-width="2" stroke-linecap="round" stroke-dasharray="4 3"/>
<path d="M228 221.904C228 239.853 213.449 254.404 195.5 254.404C177.551 254.404 163 239.853 163 221.904C163 203.955 177.551 189.404 195.5 189.404C213.449 189.404 228 203.955 228 221.904Z" fill="black"/>
<path d="M195.5 190.404C212.897 190.404 227 204.507 227 221.904C227 239.301 212.897 253.404 195.5 253.404C178.103 253.404 164 239.301 164 221.904C164 204.507 178.103 190.404 195.5 190.404Z" stroke="white" stroke-opacity="0.4" stroke-width="2"/>
<path d="M703 75.9038C703 85.5688 695.165 93.4038 685.5 93.4038C675.835 93.4038 668 85.5688 668 75.9038C668 66.2388 675.835 58.4038 685.5 58.4038C695.165 58.4038 703 66.2388 703 75.9038Z" fill="black"/>
<path d="M685.5 59.4038C694.613 59.4038 702 66.7911 702 75.9038C702 85.0165 694.613 92.4038 685.5 92.4038C676.387 92.4038 669 85.0165 669 75.9038C669 66.7911 676.387 59.4038 685.5 59.4038Z" stroke="white" stroke-opacity="0.4" stroke-width="2"/>
<rect x="238" y="221.404" width="62" height="1" fill="white"/>
<path d="M283.83 210.858C283.778 210.427 283.571 210.091 283.207 209.853C282.844 209.614 282.398 209.495 281.869 209.495C281.483 209.495 281.145 209.557 280.855 209.682C280.568 209.807 280.344 209.979 280.182 210.198C280.023 210.417 279.943 210.665 279.943 210.944C279.943 211.177 279.999 211.377 280.109 211.544C280.223 211.709 280.368 211.847 280.544 211.958C280.72 212.066 280.905 212.155 281.098 212.226C281.291 212.294 281.469 212.35 281.631 212.392L282.517 212.631C282.744 212.691 282.997 212.773 283.276 212.878C283.557 212.983 283.825 213.127 284.081 213.309C284.339 213.488 284.553 213.718 284.72 213.999C284.888 214.28 284.972 214.625 284.972 215.034C284.972 215.506 284.848 215.932 284.601 216.313C284.357 216.694 283.999 216.996 283.527 217.221C283.058 217.445 282.489 217.557 281.818 217.557C281.193 217.557 280.652 217.456 280.195 217.255C279.74 217.053 279.382 216.772 279.121 216.411C278.862 216.05 278.716 215.631 278.682 215.154H279.773C279.801 215.483 279.912 215.756 280.105 215.972C280.301 216.185 280.548 216.344 280.847 216.449C281.148 216.552 281.472 216.603 281.818 216.603C282.222 216.603 282.584 216.537 282.905 216.407C283.226 216.273 283.48 216.088 283.668 215.853C283.855 215.614 283.949 215.336 283.949 215.017C283.949 214.728 283.868 214.492 283.706 214.31C283.544 214.128 283.331 213.981 283.067 213.867C282.803 213.753 282.517 213.654 282.21 213.569L281.136 213.262C280.455 213.066 279.915 212.786 279.517 212.422C279.119 212.059 278.92 211.583 278.92 210.995C278.92 210.506 279.053 210.08 279.317 209.716C279.584 209.35 279.942 209.066 280.391 208.864C280.842 208.659 281.347 208.557 281.903 208.557C282.466 208.557 282.966 208.658 283.403 208.86C283.841 209.059 284.188 209.331 284.443 209.678C284.702 210.025 284.838 210.418 284.852 210.858H283.83ZM290.698 214.728V210.858H291.703V217.404H290.698V216.296H290.63C290.476 216.628 290.238 216.911 289.914 217.144C289.59 217.374 289.181 217.489 288.686 217.489C288.277 217.489 287.914 217.4 287.596 217.221C287.277 217.039 287.027 216.766 286.846 216.402C286.664 216.036 286.573 215.574 286.573 215.017V210.858H287.578V214.949C287.578 215.427 287.712 215.807 287.979 216.091C288.249 216.375 288.593 216.517 289.01 216.517C289.26 216.517 289.515 216.454 289.773 216.326C290.034 216.198 290.253 216.002 290.429 215.738C290.608 215.473 290.698 215.137 290.698 214.728ZM294.551 213.466V217.404H293.545V210.858H294.517V211.881H294.602C294.756 211.549 294.989 211.282 295.301 211.08C295.614 210.875 296.017 210.773 296.511 210.773C296.955 210.773 297.342 210.864 297.675 211.046C298.007 211.225 298.266 211.498 298.45 211.864C298.635 212.228 298.727 212.688 298.727 213.245V217.404H297.722V213.313C297.722 212.799 297.588 212.398 297.321 212.111C297.054 211.821 296.688 211.677 296.222 211.677C295.901 211.677 295.614 211.746 295.361 211.885C295.111 212.025 294.913 212.228 294.768 212.495C294.624 212.762 294.551 213.086 294.551 213.466Z" fill="white"/>
<rect x="713" y="75.4038" width="73" height="1" fill="white"/>
<path d="M754.057 62.6765H755.318L758.284 69.9209H758.386L761.352 62.6765H762.614V71.4038H761.625V64.7731H761.54L758.812 71.4038H757.858L755.131 64.7731H755.045V71.4038H754.057V62.6765ZM767.255 71.5402C766.664 71.5402 766.146 71.3995 765.7 71.1183C765.257 70.837 764.91 70.4436 764.66 69.9379C764.413 69.4322 764.289 68.8413 764.289 68.1652C764.289 67.4834 764.413 66.8882 764.66 66.3797C764.91 65.8711 765.257 65.4763 765.7 65.195C766.146 64.9138 766.664 64.7731 767.255 64.7731C767.846 64.7731 768.363 64.9138 768.806 65.195C769.252 65.4763 769.599 65.8711 769.846 66.3797C770.096 66.8882 770.221 67.4834 770.221 68.1652C770.221 68.8413 770.096 69.4322 769.846 69.9379C769.599 70.4436 769.252 70.837 768.806 71.1183C768.363 71.3995 767.846 71.5402 767.255 71.5402ZM767.255 70.6368C767.704 70.6368 768.074 70.5217 768.363 70.2916C768.653 70.0615 768.868 69.7589 769.007 69.3839C769.146 69.0089 769.216 68.6027 769.216 68.1652C769.216 67.7277 769.146 67.32 769.007 66.9422C768.868 66.5643 768.653 66.2589 768.363 66.026C768.074 65.793 767.704 65.6765 767.255 65.6765C766.806 65.6765 766.437 65.793 766.147 66.026C765.858 66.2589 765.643 66.5643 765.504 66.9422C765.365 67.32 765.295 67.7277 765.295 68.1652C765.295 68.6027 765.365 69.0089 765.504 69.3839C765.643 69.7589 765.858 70.0615 766.147 70.2916C766.437 70.5217 766.806 70.6368 767.255 70.6368ZM774.415 71.5402C773.825 71.5402 773.306 71.3995 772.86 71.1183C772.417 70.837 772.07 70.4436 771.82 69.9379C771.573 69.4322 771.45 68.8413 771.45 68.1652C771.45 67.4834 771.573 66.8882 771.82 66.3797C772.07 65.8711 772.417 65.4763 772.86 65.195C773.306 64.9138 773.825 64.7731 774.415 64.7731C775.006 64.7731 775.523 64.9138 775.967 65.195C776.413 65.4763 776.759 65.8711 777.006 66.3797C777.256 66.8882 777.381 67.4834 777.381 68.1652C777.381 68.8413 777.256 69.4322 777.006 69.9379C776.759 70.4436 776.413 70.837 775.967 71.1183C775.523 71.3995 775.006 71.5402 774.415 71.5402ZM774.415 70.6368C774.864 70.6368 775.234 70.5217 775.523 70.2916C775.813 70.0615 776.028 69.7589 776.167 69.3839C776.306 69.0089 776.376 68.6027 776.376 68.1652C776.376 67.7277 776.306 67.32 776.167 66.9422C776.028 66.5643 775.813 66.2589 775.523 66.026C775.234 65.793 774.864 65.6765 774.415 65.6765C773.967 65.6765 773.597 65.793 773.308 66.026C773.018 66.2589 772.803 66.5643 772.664 66.9422C772.525 67.32 772.455 67.7277 772.455 68.1652C772.455 68.6027 772.525 69.0089 772.664 69.3839C772.803 69.7589 773.018 70.0615 773.308 70.2916C773.597 70.5217 773.967 70.6368 774.415 70.6368ZM779.922 67.4663V71.4038H778.917V64.8584H779.888V65.8811H779.973C780.127 65.5487 780.36 65.2816 780.672 65.0799C780.985 64.8754 781.388 64.7731 781.882 64.7731C782.326 64.7731 782.713 64.864 783.046 65.0459C783.378 65.2248 783.637 65.4976 783.821 65.864C784.006 66.2277 784.098 66.6879 784.098 67.2447V71.4038H783.093V67.3129C783.093 66.7987 782.959 66.3981 782.692 66.1112C782.425 65.8214 782.059 65.6765 781.593 65.6765C781.272 65.6765 780.985 65.7461 780.732 65.8853C780.482 66.0245 780.284 66.2277 780.14 66.4947C779.995 66.7618 779.922 67.0856 779.922 67.4663Z" fill="white"/>
</svg>
