<svg width="32" height="32" viewBox="0 0 32 32" fill="none" xmlns="http://www.w3.org/2000/svg">
<path d="M6.00568 3.36364V15H3.54545V5.69886H3.47727L0.8125 7.36932V5.1875L3.69318 3.36364H6.00568ZM15.9154 7.125C15.8359 6.84848 15.7241 6.60417 15.5802 6.39205C15.4362 6.17614 15.2601 5.99432 15.0518 5.84659C14.8472 5.69508 14.6124 5.57955 14.3472 5.5C14.0859 5.42045 13.7961 5.38068 13.4779 5.38068C12.8832 5.38068 12.3605 5.52841 11.9097 5.82386C11.4627 6.11932 11.1143 6.54924 10.8643 7.11364C10.6143 7.67424 10.4893 8.35985 10.4893 9.17045C10.4893 9.98106 10.6124 10.6705 10.8586 11.2386C11.1048 11.8068 11.4533 12.2405 11.904 12.5398C12.3548 12.8352 12.887 12.983 13.5006 12.983C14.0574 12.983 14.5328 12.8845 14.9268 12.6875C15.3245 12.4867 15.6275 12.2045 15.8359 11.8409C16.048 11.4773 16.154 11.0473 16.154 10.5511L16.654 10.625H13.654V8.77273H18.5234V10.2386C18.5234 11.2614 18.3074 12.1402 17.8756 12.875C17.4438 13.6061 16.8491 14.1705 16.0915 14.5682C15.334 14.9621 14.4665 15.1591 13.4893 15.1591C12.3984 15.1591 11.44 14.9186 10.6143 14.4375C9.7885 13.9527 9.14456 13.2652 8.68244 12.375C8.22411 11.4811 7.99494 10.4205 7.99494 9.19318C7.99494 8.25 8.13131 7.40909 8.40403 6.67045C8.68055 5.92803 9.06691 5.29924 9.56313 4.78409C10.0593 4.26894 10.637 3.87689 11.2961 3.60795C11.9552 3.33901 12.6692 3.20455 13.4381 3.20455C14.0972 3.20455 14.7109 3.30114 15.279 3.49432C15.8472 3.68371 16.351 3.95265 16.7904 4.30114C17.2336 4.64962 17.5953 5.06439 17.8756 5.54545C18.1559 6.02273 18.3359 6.54924 18.4154 7.125H15.9154ZM19.7314 15V3.36364H24.3905C25.2465 3.36364 25.9605 3.49053 26.5325 3.74432C27.1045 3.99811 27.5344 4.35038 27.8223 4.80114C28.1102 5.24811 28.2541 5.76326 28.2541 6.34659C28.2541 6.80114 28.1632 7.20076 27.9814 7.54545C27.7995 7.88636 27.5495 8.16667 27.2314 8.38636C26.917 8.60227 26.5571 8.75568 26.1518 8.84659V8.96023C26.595 8.97917 27.0098 9.10417 27.3961 9.33523C27.7863 9.56629 28.1026 9.89015 28.345 10.3068C28.5874 10.7197 28.7086 11.2121 28.7086 11.7841C28.7086 12.4015 28.5552 12.9527 28.2484 13.4375C27.9454 13.9186 27.4965 14.2992 26.9018 14.5795C26.3071 14.8598 25.5742 15 24.703 15H19.7314ZM22.1916 12.9886H24.1973C24.8829 12.9886 25.3829 12.858 25.6973 12.5966C26.0117 12.3314 26.1689 11.9792 26.1689 11.5398C26.1689 11.2178 26.0912 10.9337 25.9359 10.6875C25.7806 10.4413 25.559 10.2481 25.2711 10.108C24.987 9.9678 24.648 9.89773 24.2541 9.89773H22.1916V12.9886ZM22.1916 8.23295H24.0155C24.3526 8.23295 24.6518 8.17424 24.9132 8.05682C25.1783 7.93561 25.3867 7.76515 25.5382 7.54545C25.6935 7.32576 25.7711 7.0625 25.7711 6.75568C25.7711 6.33523 25.6215 5.99621 25.3223 5.73864C25.0268 5.48106 24.6064 5.35227 24.0609 5.35227H22.1916V8.23295Z" fill="black"/>
</svg>
