<svg width="32" height="32" viewBox="0 0 32 32" fill="none" xmlns="http://www.w3.org/2000/svg">
<path fill-rule="evenodd" clip-rule="evenodd" d="M28.7228 8.06669C29.1428 9.6 29.1428 16 29.1428 16C29.1428 16 29.1428 22.4 28.7228 23.9333C28.4895 24.7733 27.8295 25.4333 26.9895 25.6666C25.4561 26.0866 16.0001 26.0866 16.0001 26.0866C16.0001 26.0866 6.54415 26.0866 5.01081 25.6666C4.17081 25.4333 3.51081 24.7733 3.27748 23.9333C2.85748 22.4 2.85748 16 2.85748 16C2.85748 16 2.85748 9.6 3.27748 8.06669C3.51081 7.22669 4.17081 6.56669 5.01081 6.33336C6.54415 5.91336 16.0001 5.91336 16.0001 5.91336C16.0001 5.91336 25.4561 5.91336 26.9895 6.33336C27.8295 6.56669 28.4895 7.22669 28.7228 8.06669ZM20.8001 16L12.9335 20.5333V11.4667L20.8001 16Z" fill="black"/>
</svg>
